G04 #@! TF.GenerationSoftware,KiCad,Pcbnew,(5.1.5)-3*
G04 #@! TF.CreationDate,2022-01-18T22:05:29-03:00*
G04 #@! TF.ProjectId,Base,42617365-2e6b-4696-9361-645f70636258,rev?*
G04 #@! TF.SameCoordinates,Original*
G04 #@! TF.FileFunction,Soldermask,Top*
G04 #@! TF.FilePolarity,Negative*
%FSLAX46Y46*%
G04 Gerber Fmt 4.6, Leading zero omitted, Abs format (unit mm)*
G04 Created by KiCad (PCBNEW (5.1.5)-3) date 2022-01-18 22:05:29*
%MOMM*%
%LPD*%
G04 APERTURE LIST*
%ADD10C,0.100000*%
G04 APERTURE END LIST*
D10*
G36*
X191948228Y-102681703D02*
G01*
X192103100Y-102745853D01*
X192242481Y-102838985D01*
X192361015Y-102957519D01*
X192454147Y-103096900D01*
X192518297Y-103251772D01*
X192551000Y-103416184D01*
X192551000Y-103583816D01*
X192518297Y-103748228D01*
X192454147Y-103903100D01*
X192361015Y-104042481D01*
X192242481Y-104161015D01*
X192103100Y-104254147D01*
X191948228Y-104318297D01*
X191783816Y-104351000D01*
X191616184Y-104351000D01*
X191451772Y-104318297D01*
X191296900Y-104254147D01*
X191157519Y-104161015D01*
X191038985Y-104042481D01*
X190945853Y-103903100D01*
X190881703Y-103748228D01*
X190849000Y-103583816D01*
X190849000Y-103416184D01*
X190881703Y-103251772D01*
X190945853Y-103096900D01*
X191038985Y-102957519D01*
X191157519Y-102838985D01*
X191296900Y-102745853D01*
X191451772Y-102681703D01*
X191616184Y-102649000D01*
X191783816Y-102649000D01*
X191948228Y-102681703D01*
G37*
G36*
X160048228Y-102681703D02*
G01*
X160203100Y-102745853D01*
X160342481Y-102838985D01*
X160461015Y-102957519D01*
X160554147Y-103096900D01*
X160618297Y-103251772D01*
X160651000Y-103416184D01*
X160651000Y-103583816D01*
X160618297Y-103748228D01*
X160554147Y-103903100D01*
X160461015Y-104042481D01*
X160342481Y-104161015D01*
X160203100Y-104254147D01*
X160048228Y-104318297D01*
X159883816Y-104351000D01*
X159716184Y-104351000D01*
X159551772Y-104318297D01*
X159396900Y-104254147D01*
X159257519Y-104161015D01*
X159138985Y-104042481D01*
X159045853Y-103903100D01*
X158981703Y-103748228D01*
X158949000Y-103583816D01*
X158949000Y-103416184D01*
X158981703Y-103251772D01*
X159045853Y-103096900D01*
X159138985Y-102957519D01*
X159257519Y-102838985D01*
X159396900Y-102745853D01*
X159551772Y-102681703D01*
X159716184Y-102649000D01*
X159883816Y-102649000D01*
X160048228Y-102681703D01*
G37*
G36*
X170713512Y-97703927D02*
G01*
X170862812Y-97733624D01*
X171026784Y-97801544D01*
X171174354Y-97900147D01*
X171299853Y-98025646D01*
X171398456Y-98173216D01*
X171466376Y-98337188D01*
X171501000Y-98511259D01*
X171501000Y-98688741D01*
X171466376Y-98862812D01*
X171398456Y-99026784D01*
X171299853Y-99174354D01*
X171174354Y-99299853D01*
X171026784Y-99398456D01*
X170862812Y-99466376D01*
X170713512Y-99496073D01*
X170688742Y-99501000D01*
X170511258Y-99501000D01*
X170486488Y-99496073D01*
X170337188Y-99466376D01*
X170173216Y-99398456D01*
X170025646Y-99299853D01*
X169900147Y-99174354D01*
X169801544Y-99026784D01*
X169733624Y-98862812D01*
X169699000Y-98688741D01*
X169699000Y-98511259D01*
X169733624Y-98337188D01*
X169801544Y-98173216D01*
X169900147Y-98025646D01*
X170025646Y-97900147D01*
X170173216Y-97801544D01*
X170337188Y-97733624D01*
X170486488Y-97703927D01*
X170511258Y-97699000D01*
X170688742Y-97699000D01*
X170713512Y-97703927D01*
G37*
G36*
X164213512Y-97703927D02*
G01*
X164362812Y-97733624D01*
X164526784Y-97801544D01*
X164674354Y-97900147D01*
X164799853Y-98025646D01*
X164898456Y-98173216D01*
X164966376Y-98337188D01*
X165001000Y-98511259D01*
X165001000Y-98688741D01*
X164966376Y-98862812D01*
X164898456Y-99026784D01*
X164799853Y-99174354D01*
X164674354Y-99299853D01*
X164526784Y-99398456D01*
X164362812Y-99466376D01*
X164213512Y-99496073D01*
X164188742Y-99501000D01*
X164011258Y-99501000D01*
X163986488Y-99496073D01*
X163837188Y-99466376D01*
X163673216Y-99398456D01*
X163525646Y-99299853D01*
X163400147Y-99174354D01*
X163301544Y-99026784D01*
X163233624Y-98862812D01*
X163199000Y-98688741D01*
X163199000Y-98511259D01*
X163233624Y-98337188D01*
X163301544Y-98173216D01*
X163400147Y-98025646D01*
X163525646Y-97900147D01*
X163673216Y-97801544D01*
X163837188Y-97733624D01*
X163986488Y-97703927D01*
X164011258Y-97699000D01*
X164188742Y-97699000D01*
X164213512Y-97703927D01*
G37*
G36*
X187663512Y-97653927D02*
G01*
X187812812Y-97683624D01*
X187976784Y-97751544D01*
X188124354Y-97850147D01*
X188249853Y-97975646D01*
X188348456Y-98123216D01*
X188416376Y-98287188D01*
X188451000Y-98461259D01*
X188451000Y-98638741D01*
X188416376Y-98812812D01*
X188348456Y-98976784D01*
X188249853Y-99124354D01*
X188124354Y-99249853D01*
X187976784Y-99348456D01*
X187812812Y-99416376D01*
X187663512Y-99446073D01*
X187638742Y-99451000D01*
X187461258Y-99451000D01*
X187436488Y-99446073D01*
X187287188Y-99416376D01*
X187123216Y-99348456D01*
X186975646Y-99249853D01*
X186850147Y-99124354D01*
X186751544Y-98976784D01*
X186683624Y-98812812D01*
X186649000Y-98638741D01*
X186649000Y-98461259D01*
X186683624Y-98287188D01*
X186751544Y-98123216D01*
X186850147Y-97975646D01*
X186975646Y-97850147D01*
X187123216Y-97751544D01*
X187287188Y-97683624D01*
X187436488Y-97653927D01*
X187461258Y-97649000D01*
X187638742Y-97649000D01*
X187663512Y-97653927D01*
G37*
G36*
X181163512Y-97653927D02*
G01*
X181312812Y-97683624D01*
X181476784Y-97751544D01*
X181624354Y-97850147D01*
X181749853Y-97975646D01*
X181848456Y-98123216D01*
X181916376Y-98287188D01*
X181951000Y-98461259D01*
X181951000Y-98638741D01*
X181916376Y-98812812D01*
X181848456Y-98976784D01*
X181749853Y-99124354D01*
X181624354Y-99249853D01*
X181476784Y-99348456D01*
X181312812Y-99416376D01*
X181163512Y-99446073D01*
X181138742Y-99451000D01*
X180961258Y-99451000D01*
X180936488Y-99446073D01*
X180787188Y-99416376D01*
X180623216Y-99348456D01*
X180475646Y-99249853D01*
X180350147Y-99124354D01*
X180251544Y-98976784D01*
X180183624Y-98812812D01*
X180149000Y-98638741D01*
X180149000Y-98461259D01*
X180183624Y-98287188D01*
X180251544Y-98123216D01*
X180350147Y-97975646D01*
X180475646Y-97850147D01*
X180623216Y-97751544D01*
X180787188Y-97683624D01*
X180936488Y-97653927D01*
X180961258Y-97649000D01*
X181138742Y-97649000D01*
X181163512Y-97653927D01*
G37*
G36*
X212066778Y-95760547D02*
G01*
X212233224Y-95829491D01*
X212383022Y-95929583D01*
X212510417Y-96056978D01*
X212610509Y-96206776D01*
X212679453Y-96373222D01*
X212714600Y-96549918D01*
X212714600Y-96730082D01*
X212679453Y-96906778D01*
X212610509Y-97073224D01*
X212510417Y-97223022D01*
X212383022Y-97350417D01*
X212233224Y-97450509D01*
X212066778Y-97519453D01*
X211890082Y-97554600D01*
X211709918Y-97554600D01*
X211533222Y-97519453D01*
X211366776Y-97450509D01*
X211216978Y-97350417D01*
X211089583Y-97223022D01*
X210989491Y-97073224D01*
X210920547Y-96906778D01*
X210885400Y-96730082D01*
X210885400Y-96549918D01*
X210920547Y-96373222D01*
X210989491Y-96206776D01*
X211089583Y-96056978D01*
X211216978Y-95929583D01*
X211366776Y-95829491D01*
X211533222Y-95760547D01*
X211709918Y-95725400D01*
X211890082Y-95725400D01*
X212066778Y-95760547D01*
G37*
G36*
X209526778Y-95760547D02*
G01*
X209693224Y-95829491D01*
X209843022Y-95929583D01*
X209970417Y-96056978D01*
X210070509Y-96206776D01*
X210139453Y-96373222D01*
X210174600Y-96549918D01*
X210174600Y-96730082D01*
X210139453Y-96906778D01*
X210070509Y-97073224D01*
X209970417Y-97223022D01*
X209843022Y-97350417D01*
X209693224Y-97450509D01*
X209526778Y-97519453D01*
X209350082Y-97554600D01*
X209169918Y-97554600D01*
X208993222Y-97519453D01*
X208826776Y-97450509D01*
X208676978Y-97350417D01*
X208549583Y-97223022D01*
X208449491Y-97073224D01*
X208380547Y-96906778D01*
X208345400Y-96730082D01*
X208345400Y-96549918D01*
X208380547Y-96373222D01*
X208449491Y-96206776D01*
X208549583Y-96056978D01*
X208676978Y-95929583D01*
X208826776Y-95829491D01*
X208993222Y-95760547D01*
X209169918Y-95725400D01*
X209350082Y-95725400D01*
X209526778Y-95760547D01*
G37*
G36*
X201906778Y-95760547D02*
G01*
X202073224Y-95829491D01*
X202223022Y-95929583D01*
X202350417Y-96056978D01*
X202450509Y-96206776D01*
X202519453Y-96373222D01*
X202554600Y-96549918D01*
X202554600Y-96730082D01*
X202519453Y-96906778D01*
X202450509Y-97073224D01*
X202350417Y-97223022D01*
X202223022Y-97350417D01*
X202073224Y-97450509D01*
X201906778Y-97519453D01*
X201730082Y-97554600D01*
X201549918Y-97554600D01*
X201373222Y-97519453D01*
X201206776Y-97450509D01*
X201056978Y-97350417D01*
X200929583Y-97223022D01*
X200829491Y-97073224D01*
X200760547Y-96906778D01*
X200725400Y-96730082D01*
X200725400Y-96549918D01*
X200760547Y-96373222D01*
X200829491Y-96206776D01*
X200929583Y-96056978D01*
X201056978Y-95929583D01*
X201206776Y-95829491D01*
X201373222Y-95760547D01*
X201549918Y-95725400D01*
X201730082Y-95725400D01*
X201906778Y-95760547D01*
G37*
G36*
X206986778Y-95760547D02*
G01*
X207153224Y-95829491D01*
X207303022Y-95929583D01*
X207430417Y-96056978D01*
X207530509Y-96206776D01*
X207599453Y-96373222D01*
X207634600Y-96549918D01*
X207634600Y-96730082D01*
X207599453Y-96906778D01*
X207530509Y-97073224D01*
X207430417Y-97223022D01*
X207303022Y-97350417D01*
X207153224Y-97450509D01*
X206986778Y-97519453D01*
X206810082Y-97554600D01*
X206629918Y-97554600D01*
X206453222Y-97519453D01*
X206286776Y-97450509D01*
X206136978Y-97350417D01*
X206009583Y-97223022D01*
X205909491Y-97073224D01*
X205840547Y-96906778D01*
X205805400Y-96730082D01*
X205805400Y-96549918D01*
X205840547Y-96373222D01*
X205909491Y-96206776D01*
X206009583Y-96056978D01*
X206136978Y-95929583D01*
X206286776Y-95829491D01*
X206453222Y-95760547D01*
X206629918Y-95725400D01*
X206810082Y-95725400D01*
X206986778Y-95760547D01*
G37*
G36*
X204446778Y-95760547D02*
G01*
X204613224Y-95829491D01*
X204763022Y-95929583D01*
X204890417Y-96056978D01*
X204990509Y-96206776D01*
X205059453Y-96373222D01*
X205094600Y-96549918D01*
X205094600Y-96730082D01*
X205059453Y-96906778D01*
X204990509Y-97073224D01*
X204890417Y-97223022D01*
X204763022Y-97350417D01*
X204613224Y-97450509D01*
X204446778Y-97519453D01*
X204270082Y-97554600D01*
X204089918Y-97554600D01*
X203913222Y-97519453D01*
X203746776Y-97450509D01*
X203596978Y-97350417D01*
X203469583Y-97223022D01*
X203369491Y-97073224D01*
X203300547Y-96906778D01*
X203265400Y-96730082D01*
X203265400Y-96549918D01*
X203300547Y-96373222D01*
X203369491Y-96206776D01*
X203469583Y-96056978D01*
X203596978Y-95929583D01*
X203746776Y-95829491D01*
X203913222Y-95760547D01*
X204089918Y-95725400D01*
X204270082Y-95725400D01*
X204446778Y-95760547D01*
G37*
G36*
X160048228Y-95061703D02*
G01*
X160203100Y-95125853D01*
X160342481Y-95218985D01*
X160461015Y-95337519D01*
X160554147Y-95476900D01*
X160618297Y-95631772D01*
X160651000Y-95796184D01*
X160651000Y-95963816D01*
X160618297Y-96128228D01*
X160554147Y-96283100D01*
X160461015Y-96422481D01*
X160342481Y-96541015D01*
X160203100Y-96634147D01*
X160048228Y-96698297D01*
X159883816Y-96731000D01*
X159716184Y-96731000D01*
X159551772Y-96698297D01*
X159396900Y-96634147D01*
X159257519Y-96541015D01*
X159138985Y-96422481D01*
X159045853Y-96283100D01*
X158981703Y-96128228D01*
X158949000Y-95963816D01*
X158949000Y-95796184D01*
X158981703Y-95631772D01*
X159045853Y-95476900D01*
X159138985Y-95337519D01*
X159257519Y-95218985D01*
X159396900Y-95125853D01*
X159551772Y-95061703D01*
X159716184Y-95029000D01*
X159883816Y-95029000D01*
X160048228Y-95061703D01*
G37*
G36*
X191948228Y-95061703D02*
G01*
X192103100Y-95125853D01*
X192242481Y-95218985D01*
X192361015Y-95337519D01*
X192454147Y-95476900D01*
X192518297Y-95631772D01*
X192551000Y-95796184D01*
X192551000Y-95963816D01*
X192518297Y-96128228D01*
X192454147Y-96283100D01*
X192361015Y-96422481D01*
X192242481Y-96541015D01*
X192103100Y-96634147D01*
X191948228Y-96698297D01*
X191783816Y-96731000D01*
X191616184Y-96731000D01*
X191451772Y-96698297D01*
X191296900Y-96634147D01*
X191157519Y-96541015D01*
X191038985Y-96422481D01*
X190945853Y-96283100D01*
X190881703Y-96128228D01*
X190849000Y-95963816D01*
X190849000Y-95796184D01*
X190881703Y-95631772D01*
X190945853Y-95476900D01*
X191038985Y-95337519D01*
X191157519Y-95218985D01*
X191296900Y-95125853D01*
X191451772Y-95061703D01*
X191616184Y-95029000D01*
X191783816Y-95029000D01*
X191948228Y-95061703D01*
G37*
G36*
X212714600Y-95014600D02*
G01*
X210885400Y-95014600D01*
X210885400Y-93185400D01*
X212714600Y-93185400D01*
X212714600Y-95014600D01*
G37*
G36*
X209526778Y-93220547D02*
G01*
X209693224Y-93289491D01*
X209843022Y-93389583D01*
X209970417Y-93516978D01*
X210070509Y-93666776D01*
X210139453Y-93833222D01*
X210174600Y-94009918D01*
X210174600Y-94190082D01*
X210139453Y-94366778D01*
X210070509Y-94533224D01*
X209970417Y-94683022D01*
X209843022Y-94810417D01*
X209693224Y-94910509D01*
X209526778Y-94979453D01*
X209350082Y-95014600D01*
X209169918Y-95014600D01*
X208993222Y-94979453D01*
X208826776Y-94910509D01*
X208676978Y-94810417D01*
X208549583Y-94683022D01*
X208449491Y-94533224D01*
X208380547Y-94366778D01*
X208345400Y-94190082D01*
X208345400Y-94009918D01*
X208380547Y-93833222D01*
X208449491Y-93666776D01*
X208549583Y-93516978D01*
X208676978Y-93389583D01*
X208826776Y-93289491D01*
X208993222Y-93220547D01*
X209169918Y-93185400D01*
X209350082Y-93185400D01*
X209526778Y-93220547D01*
G37*
G36*
X206986778Y-93220547D02*
G01*
X207153224Y-93289491D01*
X207303022Y-93389583D01*
X207430417Y-93516978D01*
X207530509Y-93666776D01*
X207599453Y-93833222D01*
X207634600Y-94009918D01*
X207634600Y-94190082D01*
X207599453Y-94366778D01*
X207530509Y-94533224D01*
X207430417Y-94683022D01*
X207303022Y-94810417D01*
X207153224Y-94910509D01*
X206986778Y-94979453D01*
X206810082Y-95014600D01*
X206629918Y-95014600D01*
X206453222Y-94979453D01*
X206286776Y-94910509D01*
X206136978Y-94810417D01*
X206009583Y-94683022D01*
X205909491Y-94533224D01*
X205840547Y-94366778D01*
X205805400Y-94190082D01*
X205805400Y-94009918D01*
X205840547Y-93833222D01*
X205909491Y-93666776D01*
X206009583Y-93516978D01*
X206136978Y-93389583D01*
X206286776Y-93289491D01*
X206453222Y-93220547D01*
X206629918Y-93185400D01*
X206810082Y-93185400D01*
X206986778Y-93220547D01*
G37*
G36*
X204446778Y-93220547D02*
G01*
X204613224Y-93289491D01*
X204763022Y-93389583D01*
X204890417Y-93516978D01*
X204990509Y-93666776D01*
X205059453Y-93833222D01*
X205094600Y-94009918D01*
X205094600Y-94190082D01*
X205059453Y-94366778D01*
X204990509Y-94533224D01*
X204890417Y-94683022D01*
X204763022Y-94810417D01*
X204613224Y-94910509D01*
X204446778Y-94979453D01*
X204270082Y-95014600D01*
X204089918Y-95014600D01*
X203913222Y-94979453D01*
X203746776Y-94910509D01*
X203596978Y-94810417D01*
X203469583Y-94683022D01*
X203369491Y-94533224D01*
X203300547Y-94366778D01*
X203265400Y-94190082D01*
X203265400Y-94009918D01*
X203300547Y-93833222D01*
X203369491Y-93666776D01*
X203469583Y-93516978D01*
X203596978Y-93389583D01*
X203746776Y-93289491D01*
X203913222Y-93220547D01*
X204089918Y-93185400D01*
X204270082Y-93185400D01*
X204446778Y-93220547D01*
G37*
G36*
X201906778Y-93220547D02*
G01*
X202073224Y-93289491D01*
X202223022Y-93389583D01*
X202350417Y-93516978D01*
X202450509Y-93666776D01*
X202519453Y-93833222D01*
X202554600Y-94009918D01*
X202554600Y-94190082D01*
X202519453Y-94366778D01*
X202450509Y-94533224D01*
X202350417Y-94683022D01*
X202223022Y-94810417D01*
X202073224Y-94910509D01*
X201906778Y-94979453D01*
X201730082Y-95014600D01*
X201549918Y-95014600D01*
X201373222Y-94979453D01*
X201206776Y-94910509D01*
X201056978Y-94810417D01*
X200929583Y-94683022D01*
X200829491Y-94533224D01*
X200760547Y-94366778D01*
X200725400Y-94190082D01*
X200725400Y-94009918D01*
X200760547Y-93833222D01*
X200829491Y-93666776D01*
X200929583Y-93516978D01*
X201056978Y-93389583D01*
X201206776Y-93289491D01*
X201373222Y-93220547D01*
X201549918Y-93185400D01*
X201730082Y-93185400D01*
X201906778Y-93220547D01*
G37*
G36*
X164213512Y-93203927D02*
G01*
X164362812Y-93233624D01*
X164526784Y-93301544D01*
X164674354Y-93400147D01*
X164799853Y-93525646D01*
X164898456Y-93673216D01*
X164966376Y-93837188D01*
X165001000Y-94011259D01*
X165001000Y-94188741D01*
X164966376Y-94362812D01*
X164898456Y-94526784D01*
X164799853Y-94674354D01*
X164674354Y-94799853D01*
X164526784Y-94898456D01*
X164362812Y-94966376D01*
X164213512Y-94996073D01*
X164188742Y-95001000D01*
X164011258Y-95001000D01*
X163986488Y-94996073D01*
X163837188Y-94966376D01*
X163673216Y-94898456D01*
X163525646Y-94799853D01*
X163400147Y-94674354D01*
X163301544Y-94526784D01*
X163233624Y-94362812D01*
X163199000Y-94188741D01*
X163199000Y-94011259D01*
X163233624Y-93837188D01*
X163301544Y-93673216D01*
X163400147Y-93525646D01*
X163525646Y-93400147D01*
X163673216Y-93301544D01*
X163837188Y-93233624D01*
X163986488Y-93203927D01*
X164011258Y-93199000D01*
X164188742Y-93199000D01*
X164213512Y-93203927D01*
G37*
G36*
X170713512Y-93203927D02*
G01*
X170862812Y-93233624D01*
X171026784Y-93301544D01*
X171174354Y-93400147D01*
X171299853Y-93525646D01*
X171398456Y-93673216D01*
X171466376Y-93837188D01*
X171501000Y-94011259D01*
X171501000Y-94188741D01*
X171466376Y-94362812D01*
X171398456Y-94526784D01*
X171299853Y-94674354D01*
X171174354Y-94799853D01*
X171026784Y-94898456D01*
X170862812Y-94966376D01*
X170713512Y-94996073D01*
X170688742Y-95001000D01*
X170511258Y-95001000D01*
X170486488Y-94996073D01*
X170337188Y-94966376D01*
X170173216Y-94898456D01*
X170025646Y-94799853D01*
X169900147Y-94674354D01*
X169801544Y-94526784D01*
X169733624Y-94362812D01*
X169699000Y-94188741D01*
X169699000Y-94011259D01*
X169733624Y-93837188D01*
X169801544Y-93673216D01*
X169900147Y-93525646D01*
X170025646Y-93400147D01*
X170173216Y-93301544D01*
X170337188Y-93233624D01*
X170486488Y-93203927D01*
X170511258Y-93199000D01*
X170688742Y-93199000D01*
X170713512Y-93203927D01*
G37*
G36*
X187663512Y-93153927D02*
G01*
X187812812Y-93183624D01*
X187976784Y-93251544D01*
X188124354Y-93350147D01*
X188249853Y-93475646D01*
X188348456Y-93623216D01*
X188416376Y-93787188D01*
X188451000Y-93961259D01*
X188451000Y-94138741D01*
X188416376Y-94312812D01*
X188348456Y-94476784D01*
X188249853Y-94624354D01*
X188124354Y-94749853D01*
X187976784Y-94848456D01*
X187812812Y-94916376D01*
X187663512Y-94946073D01*
X187638742Y-94951000D01*
X187461258Y-94951000D01*
X187436488Y-94946073D01*
X187287188Y-94916376D01*
X187123216Y-94848456D01*
X186975646Y-94749853D01*
X186850147Y-94624354D01*
X186751544Y-94476784D01*
X186683624Y-94312812D01*
X186649000Y-94138741D01*
X186649000Y-93961259D01*
X186683624Y-93787188D01*
X186751544Y-93623216D01*
X186850147Y-93475646D01*
X186975646Y-93350147D01*
X187123216Y-93251544D01*
X187287188Y-93183624D01*
X187436488Y-93153927D01*
X187461258Y-93149000D01*
X187638742Y-93149000D01*
X187663512Y-93153927D01*
G37*
G36*
X181163512Y-93153927D02*
G01*
X181312812Y-93183624D01*
X181476784Y-93251544D01*
X181624354Y-93350147D01*
X181749853Y-93475646D01*
X181848456Y-93623216D01*
X181916376Y-93787188D01*
X181951000Y-93961259D01*
X181951000Y-94138741D01*
X181916376Y-94312812D01*
X181848456Y-94476784D01*
X181749853Y-94624354D01*
X181624354Y-94749853D01*
X181476784Y-94848456D01*
X181312812Y-94916376D01*
X181163512Y-94946073D01*
X181138742Y-94951000D01*
X180961258Y-94951000D01*
X180936488Y-94946073D01*
X180787188Y-94916376D01*
X180623216Y-94848456D01*
X180475646Y-94749853D01*
X180350147Y-94624354D01*
X180251544Y-94476784D01*
X180183624Y-94312812D01*
X180149000Y-94138741D01*
X180149000Y-93961259D01*
X180183624Y-93787188D01*
X180251544Y-93623216D01*
X180350147Y-93475646D01*
X180475646Y-93350147D01*
X180623216Y-93251544D01*
X180787188Y-93183624D01*
X180936488Y-93153927D01*
X180961258Y-93149000D01*
X181138742Y-93149000D01*
X181163512Y-93153927D01*
G37*
G36*
X184598228Y-88731703D02*
G01*
X184753100Y-88795853D01*
X184892481Y-88888985D01*
X185011015Y-89007519D01*
X185104147Y-89146900D01*
X185168297Y-89301772D01*
X185201000Y-89466184D01*
X185201000Y-89633816D01*
X185168297Y-89798228D01*
X185104147Y-89953100D01*
X185011015Y-90092481D01*
X184892481Y-90211015D01*
X184753100Y-90304147D01*
X184598228Y-90368297D01*
X184433816Y-90401000D01*
X184266184Y-90401000D01*
X184101772Y-90368297D01*
X183946900Y-90304147D01*
X183807519Y-90211015D01*
X183688985Y-90092481D01*
X183595853Y-89953100D01*
X183531703Y-89798228D01*
X183499000Y-89633816D01*
X183499000Y-89466184D01*
X183531703Y-89301772D01*
X183595853Y-89146900D01*
X183688985Y-89007519D01*
X183807519Y-88888985D01*
X183946900Y-88795853D01*
X184101772Y-88731703D01*
X184266184Y-88699000D01*
X184433816Y-88699000D01*
X184598228Y-88731703D01*
G37*
G36*
X146313512Y-88603927D02*
G01*
X146462812Y-88633624D01*
X146626784Y-88701544D01*
X146774354Y-88800147D01*
X146899853Y-88925646D01*
X146998456Y-89073216D01*
X147066376Y-89237188D01*
X147091006Y-89361015D01*
X147101000Y-89411258D01*
X147101000Y-89588742D01*
X147098144Y-89603100D01*
X147066376Y-89762812D01*
X146998456Y-89926784D01*
X146899853Y-90074354D01*
X146774354Y-90199853D01*
X146626784Y-90298456D01*
X146462812Y-90366376D01*
X146313512Y-90396073D01*
X146288742Y-90401000D01*
X146111258Y-90401000D01*
X146086488Y-90396073D01*
X145937188Y-90366376D01*
X145773216Y-90298456D01*
X145625646Y-90199853D01*
X145500147Y-90074354D01*
X145401544Y-89926784D01*
X145333624Y-89762812D01*
X145301856Y-89603100D01*
X145299000Y-89588742D01*
X145299000Y-89411258D01*
X145308994Y-89361015D01*
X145333624Y-89237188D01*
X145401544Y-89073216D01*
X145500147Y-88925646D01*
X145625646Y-88800147D01*
X145773216Y-88701544D01*
X145937188Y-88633624D01*
X146086488Y-88603927D01*
X146111258Y-88599000D01*
X146288742Y-88599000D01*
X146313512Y-88603927D01*
G37*
G36*
X166348228Y-88381703D02*
G01*
X166503100Y-88445853D01*
X166642481Y-88538985D01*
X166761015Y-88657519D01*
X166854147Y-88796900D01*
X166918297Y-88951772D01*
X166951000Y-89116184D01*
X166951000Y-89283816D01*
X166918297Y-89448228D01*
X166854147Y-89603100D01*
X166761015Y-89742481D01*
X166642481Y-89861015D01*
X166503100Y-89954147D01*
X166348228Y-90018297D01*
X166183816Y-90051000D01*
X166016184Y-90051000D01*
X165851772Y-90018297D01*
X165696900Y-89954147D01*
X165557519Y-89861015D01*
X165438985Y-89742481D01*
X165345853Y-89603100D01*
X165281703Y-89448228D01*
X165249000Y-89283816D01*
X165249000Y-89116184D01*
X165281703Y-88951772D01*
X165345853Y-88796900D01*
X165438985Y-88657519D01*
X165557519Y-88538985D01*
X165696900Y-88445853D01*
X165851772Y-88381703D01*
X166016184Y-88349000D01*
X166183816Y-88349000D01*
X166348228Y-88381703D01*
G37*
G36*
X169451000Y-90051000D02*
G01*
X167749000Y-90051000D01*
X167749000Y-88349000D01*
X169451000Y-88349000D01*
X169451000Y-90051000D01*
G37*
G36*
X158844098Y-84597033D02*
G01*
X159209118Y-84748229D01*
X159308352Y-84789333D01*
X159726168Y-85068509D01*
X160081491Y-85423832D01*
X160334820Y-85802966D01*
X160360668Y-85841650D01*
X160552967Y-86305902D01*
X160651000Y-86798747D01*
X160651000Y-87301253D01*
X160552967Y-87794098D01*
X160402433Y-88157519D01*
X160360667Y-88258352D01*
X160081491Y-88676168D01*
X159726168Y-89031491D01*
X159308352Y-89310667D01*
X159308351Y-89310668D01*
X159308350Y-89310668D01*
X158844098Y-89502967D01*
X158351253Y-89601000D01*
X157848747Y-89601000D01*
X157355902Y-89502967D01*
X156891650Y-89310668D01*
X156891649Y-89310668D01*
X156891648Y-89310667D01*
X156473832Y-89031491D01*
X156118509Y-88676168D01*
X155839333Y-88258352D01*
X155797567Y-88157519D01*
X155647033Y-87794098D01*
X155549000Y-87301253D01*
X155549000Y-86798747D01*
X155647033Y-86305902D01*
X155839332Y-85841650D01*
X155865180Y-85802966D01*
X156118509Y-85423832D01*
X156473832Y-85068509D01*
X156891648Y-84789333D01*
X156990882Y-84748229D01*
X157355902Y-84597033D01*
X157848747Y-84499000D01*
X158351253Y-84499000D01*
X158844098Y-84597033D01*
G37*
G36*
X211898228Y-87881703D02*
G01*
X212053100Y-87945853D01*
X212192481Y-88038985D01*
X212311015Y-88157519D01*
X212404147Y-88296900D01*
X212468297Y-88451772D01*
X212501000Y-88616184D01*
X212501000Y-88783816D01*
X212468297Y-88948228D01*
X212404147Y-89103100D01*
X212311015Y-89242481D01*
X212192481Y-89361015D01*
X212053100Y-89454147D01*
X211898228Y-89518297D01*
X211733816Y-89551000D01*
X211566184Y-89551000D01*
X211401772Y-89518297D01*
X211246900Y-89454147D01*
X211107519Y-89361015D01*
X210988985Y-89242481D01*
X210895853Y-89103100D01*
X210831703Y-88948228D01*
X210799000Y-88783816D01*
X210799000Y-88616184D01*
X210831703Y-88451772D01*
X210895853Y-88296900D01*
X210988985Y-88157519D01*
X211107519Y-88038985D01*
X211246900Y-87945853D01*
X211401772Y-87881703D01*
X211566184Y-87849000D01*
X211733816Y-87849000D01*
X211898228Y-87881703D01*
G37*
G36*
X192198228Y-87881703D02*
G01*
X192353100Y-87945853D01*
X192492481Y-88038985D01*
X192611015Y-88157519D01*
X192704147Y-88296900D01*
X192768297Y-88451772D01*
X192801000Y-88616184D01*
X192801000Y-88783816D01*
X192768297Y-88948228D01*
X192704147Y-89103100D01*
X192611015Y-89242481D01*
X192492481Y-89361015D01*
X192353100Y-89454147D01*
X192198228Y-89518297D01*
X192033816Y-89551000D01*
X191866184Y-89551000D01*
X191701772Y-89518297D01*
X191546900Y-89454147D01*
X191407519Y-89361015D01*
X191288985Y-89242481D01*
X191195853Y-89103100D01*
X191131703Y-88948228D01*
X191099000Y-88783816D01*
X191099000Y-88616184D01*
X191131703Y-88451772D01*
X191195853Y-88296900D01*
X191288985Y-88157519D01*
X191407519Y-88038985D01*
X191546900Y-87945853D01*
X191701772Y-87881703D01*
X191866184Y-87849000D01*
X192033816Y-87849000D01*
X192198228Y-87881703D01*
G37*
G36*
X185201000Y-87901000D02*
G01*
X183499000Y-87901000D01*
X183499000Y-86199000D01*
X185201000Y-86199000D01*
X185201000Y-87901000D01*
G37*
G36*
X146313512Y-86063927D02*
G01*
X146462812Y-86093624D01*
X146626784Y-86161544D01*
X146774354Y-86260147D01*
X146899853Y-86385646D01*
X146998456Y-86533216D01*
X147066376Y-86697188D01*
X147101000Y-86871259D01*
X147101000Y-87048741D01*
X147066376Y-87222812D01*
X146998456Y-87386784D01*
X146899853Y-87534354D01*
X146774354Y-87659853D01*
X146626784Y-87758456D01*
X146462812Y-87826376D01*
X146313512Y-87856073D01*
X146288742Y-87861000D01*
X146111258Y-87861000D01*
X146086488Y-87856073D01*
X145937188Y-87826376D01*
X145773216Y-87758456D01*
X145625646Y-87659853D01*
X145500147Y-87534354D01*
X145401544Y-87386784D01*
X145333624Y-87222812D01*
X145299000Y-87048741D01*
X145299000Y-86871259D01*
X145333624Y-86697188D01*
X145401544Y-86533216D01*
X145500147Y-86385646D01*
X145625646Y-86260147D01*
X145773216Y-86161544D01*
X145937188Y-86093624D01*
X146086488Y-86063927D01*
X146111258Y-86059000D01*
X146288742Y-86059000D01*
X146313512Y-86063927D01*
G37*
G36*
X216294098Y-80897033D02*
G01*
X216745033Y-81083816D01*
X216758352Y-81089333D01*
X217176168Y-81368509D01*
X217531491Y-81723832D01*
X217810667Y-82141648D01*
X217810668Y-82141650D01*
X218002967Y-82605902D01*
X218101000Y-83098747D01*
X218101000Y-83601253D01*
X218002967Y-84094098D01*
X217831216Y-84508742D01*
X217810667Y-84558352D01*
X217531491Y-84976168D01*
X217176168Y-85331491D01*
X216758352Y-85610667D01*
X216758351Y-85610668D01*
X216758350Y-85610668D01*
X216294098Y-85802967D01*
X215801253Y-85901000D01*
X215298747Y-85901000D01*
X214805902Y-85802967D01*
X214341650Y-85610668D01*
X214341649Y-85610668D01*
X214341648Y-85610667D01*
X213923832Y-85331491D01*
X213568509Y-84976168D01*
X213289333Y-84558352D01*
X213268784Y-84508742D01*
X213097033Y-84094098D01*
X212999000Y-83601253D01*
X212999000Y-83098747D01*
X213097033Y-82605902D01*
X213289332Y-82141650D01*
X213289333Y-82141648D01*
X213568509Y-81723832D01*
X213923832Y-81368509D01*
X214341648Y-81089333D01*
X214354967Y-81083816D01*
X214805902Y-80897033D01*
X215298747Y-80799000D01*
X215801253Y-80799000D01*
X216294098Y-80897033D01*
G37*
G36*
X152998228Y-83681703D02*
G01*
X153153100Y-83745853D01*
X153292481Y-83838985D01*
X153411015Y-83957519D01*
X153504147Y-84096900D01*
X153568297Y-84251772D01*
X153601000Y-84416184D01*
X153601000Y-84583816D01*
X153568297Y-84748228D01*
X153504147Y-84903100D01*
X153411015Y-85042481D01*
X153292481Y-85161015D01*
X153153100Y-85254147D01*
X152998228Y-85318297D01*
X152833816Y-85351000D01*
X152666184Y-85351000D01*
X152501772Y-85318297D01*
X152346900Y-85254147D01*
X152207519Y-85161015D01*
X152088985Y-85042481D01*
X151995853Y-84903100D01*
X151931703Y-84748228D01*
X151899000Y-84583816D01*
X151899000Y-84416184D01*
X151931703Y-84251772D01*
X151995853Y-84096900D01*
X152088985Y-83957519D01*
X152207519Y-83838985D01*
X152346900Y-83745853D01*
X152501772Y-83681703D01*
X152666184Y-83649000D01*
X152833816Y-83649000D01*
X152998228Y-83681703D01*
G37*
G36*
X146313512Y-83523927D02*
G01*
X146462812Y-83553624D01*
X146626784Y-83621544D01*
X146774354Y-83720147D01*
X146899853Y-83845646D01*
X146998456Y-83993216D01*
X147066376Y-84157188D01*
X147101000Y-84331259D01*
X147101000Y-84508741D01*
X147066376Y-84682812D01*
X146998456Y-84846784D01*
X146899853Y-84994354D01*
X146774354Y-85119853D01*
X146626784Y-85218456D01*
X146462812Y-85286376D01*
X146313512Y-85316073D01*
X146288742Y-85321000D01*
X146111258Y-85321000D01*
X146086488Y-85316073D01*
X145937188Y-85286376D01*
X145773216Y-85218456D01*
X145625646Y-85119853D01*
X145500147Y-84994354D01*
X145401544Y-84846784D01*
X145333624Y-84682812D01*
X145299000Y-84508741D01*
X145299000Y-84331259D01*
X145333624Y-84157188D01*
X145401544Y-83993216D01*
X145500147Y-83845646D01*
X145625646Y-83720147D01*
X145773216Y-83621544D01*
X145937188Y-83553624D01*
X146086488Y-83523927D01*
X146111258Y-83519000D01*
X146288742Y-83519000D01*
X146313512Y-83523927D01*
G37*
G36*
X172448228Y-82801703D02*
G01*
X172603100Y-82865853D01*
X172742481Y-82958985D01*
X172861015Y-83077519D01*
X172954147Y-83216900D01*
X173018297Y-83371772D01*
X173051000Y-83536184D01*
X173051000Y-83703816D01*
X173018297Y-83868228D01*
X172954147Y-84023100D01*
X172861015Y-84162481D01*
X172742481Y-84281015D01*
X172603100Y-84374147D01*
X172448228Y-84438297D01*
X172283816Y-84471000D01*
X172116184Y-84471000D01*
X171951772Y-84438297D01*
X171796900Y-84374147D01*
X171657519Y-84281015D01*
X171538985Y-84162481D01*
X171445853Y-84023100D01*
X171381703Y-83868228D01*
X171349000Y-83703816D01*
X171349000Y-83536184D01*
X171381703Y-83371772D01*
X171445853Y-83216900D01*
X171538985Y-83077519D01*
X171657519Y-82958985D01*
X171796900Y-82865853D01*
X171951772Y-82801703D01*
X172116184Y-82769000D01*
X172283816Y-82769000D01*
X172448228Y-82801703D01*
G37*
G36*
X180068228Y-82801703D02*
G01*
X180223100Y-82865853D01*
X180362481Y-82958985D01*
X180481015Y-83077519D01*
X180574147Y-83216900D01*
X180638297Y-83371772D01*
X180671000Y-83536184D01*
X180671000Y-83703816D01*
X180638297Y-83868228D01*
X180574147Y-84023100D01*
X180481015Y-84162481D01*
X180362481Y-84281015D01*
X180223100Y-84374147D01*
X180068228Y-84438297D01*
X179903816Y-84471000D01*
X179736184Y-84471000D01*
X179571772Y-84438297D01*
X179416900Y-84374147D01*
X179277519Y-84281015D01*
X179158985Y-84162481D01*
X179065853Y-84023100D01*
X179001703Y-83868228D01*
X178969000Y-83703816D01*
X178969000Y-83536184D01*
X179001703Y-83371772D01*
X179065853Y-83216900D01*
X179158985Y-83077519D01*
X179277519Y-82958985D01*
X179416900Y-82865853D01*
X179571772Y-82801703D01*
X179736184Y-82769000D01*
X179903816Y-82769000D01*
X180068228Y-82801703D01*
G37*
G36*
X150248228Y-81181703D02*
G01*
X150403100Y-81245853D01*
X150542481Y-81338985D01*
X150661015Y-81457519D01*
X150754147Y-81596900D01*
X150818297Y-81751772D01*
X150851000Y-81916184D01*
X150851000Y-82083816D01*
X150818297Y-82248228D01*
X150754147Y-82403100D01*
X150661015Y-82542481D01*
X150542481Y-82661015D01*
X150403100Y-82754147D01*
X150248228Y-82818297D01*
X150083816Y-82851000D01*
X149916184Y-82851000D01*
X149751772Y-82818297D01*
X149596900Y-82754147D01*
X149457519Y-82661015D01*
X149338985Y-82542481D01*
X149245853Y-82403100D01*
X149181703Y-82248228D01*
X149149000Y-82083816D01*
X149149000Y-81916184D01*
X149181703Y-81751772D01*
X149245853Y-81596900D01*
X149338985Y-81457519D01*
X149457519Y-81338985D01*
X149596900Y-81245853D01*
X149751772Y-81181703D01*
X149916184Y-81149000D01*
X150083816Y-81149000D01*
X150248228Y-81181703D01*
G37*
G36*
X146313512Y-80983927D02*
G01*
X146462812Y-81013624D01*
X146626784Y-81081544D01*
X146774354Y-81180147D01*
X146899853Y-81305646D01*
X146998456Y-81453216D01*
X147066376Y-81617188D01*
X147101000Y-81791259D01*
X147101000Y-81968741D01*
X147066376Y-82142812D01*
X146998456Y-82306784D01*
X146899853Y-82454354D01*
X146774354Y-82579853D01*
X146626784Y-82678456D01*
X146462812Y-82746376D01*
X146313512Y-82776073D01*
X146288742Y-82781000D01*
X146111258Y-82781000D01*
X146086488Y-82776073D01*
X145937188Y-82746376D01*
X145773216Y-82678456D01*
X145625646Y-82579853D01*
X145500147Y-82454354D01*
X145401544Y-82306784D01*
X145333624Y-82142812D01*
X145299000Y-81968741D01*
X145299000Y-81791259D01*
X145333624Y-81617188D01*
X145401544Y-81453216D01*
X145500147Y-81305646D01*
X145625646Y-81180147D01*
X145773216Y-81081544D01*
X145937188Y-81013624D01*
X146086488Y-80983927D01*
X146111258Y-80979000D01*
X146288742Y-80979000D01*
X146313512Y-80983927D01*
G37*
G36*
X135548228Y-80581703D02*
G01*
X135703100Y-80645853D01*
X135842481Y-80738985D01*
X135961015Y-80857519D01*
X136054147Y-80996900D01*
X136118297Y-81151772D01*
X136151000Y-81316184D01*
X136151000Y-81483816D01*
X136118297Y-81648228D01*
X136054147Y-81803100D01*
X135961015Y-81942481D01*
X135842481Y-82061015D01*
X135703100Y-82154147D01*
X135548228Y-82218297D01*
X135383816Y-82251000D01*
X135216184Y-82251000D01*
X135051772Y-82218297D01*
X134896900Y-82154147D01*
X134757519Y-82061015D01*
X134638985Y-81942481D01*
X134545853Y-81803100D01*
X134481703Y-81648228D01*
X134449000Y-81483816D01*
X134449000Y-81316184D01*
X134481703Y-81151772D01*
X134545853Y-80996900D01*
X134638985Y-80857519D01*
X134757519Y-80738985D01*
X134896900Y-80645853D01*
X135051772Y-80581703D01*
X135216184Y-80549000D01*
X135383816Y-80549000D01*
X135548228Y-80581703D01*
G37*
G36*
X180068228Y-80261703D02*
G01*
X180223100Y-80325853D01*
X180362481Y-80418985D01*
X180481015Y-80537519D01*
X180574147Y-80676900D01*
X180638297Y-80831772D01*
X180671000Y-80996184D01*
X180671000Y-81163816D01*
X180638297Y-81328228D01*
X180574147Y-81483100D01*
X180481015Y-81622481D01*
X180362481Y-81741015D01*
X180223100Y-81834147D01*
X180068228Y-81898297D01*
X179903816Y-81931000D01*
X179736184Y-81931000D01*
X179571772Y-81898297D01*
X179416900Y-81834147D01*
X179277519Y-81741015D01*
X179158985Y-81622481D01*
X179065853Y-81483100D01*
X179001703Y-81328228D01*
X178969000Y-81163816D01*
X178969000Y-80996184D01*
X179001703Y-80831772D01*
X179065853Y-80676900D01*
X179158985Y-80537519D01*
X179277519Y-80418985D01*
X179416900Y-80325853D01*
X179571772Y-80261703D01*
X179736184Y-80229000D01*
X179903816Y-80229000D01*
X180068228Y-80261703D01*
G37*
G36*
X172448228Y-80261703D02*
G01*
X172603100Y-80325853D01*
X172742481Y-80418985D01*
X172861015Y-80537519D01*
X172954147Y-80676900D01*
X173018297Y-80831772D01*
X173051000Y-80996184D01*
X173051000Y-81163816D01*
X173018297Y-81328228D01*
X172954147Y-81483100D01*
X172861015Y-81622481D01*
X172742481Y-81741015D01*
X172603100Y-81834147D01*
X172448228Y-81898297D01*
X172283816Y-81931000D01*
X172116184Y-81931000D01*
X171951772Y-81898297D01*
X171796900Y-81834147D01*
X171657519Y-81741015D01*
X171538985Y-81622481D01*
X171445853Y-81483100D01*
X171381703Y-81328228D01*
X171349000Y-81163816D01*
X171349000Y-80996184D01*
X171381703Y-80831772D01*
X171445853Y-80676900D01*
X171538985Y-80537519D01*
X171657519Y-80418985D01*
X171796900Y-80325853D01*
X171951772Y-80261703D01*
X172116184Y-80229000D01*
X172283816Y-80229000D01*
X172448228Y-80261703D01*
G37*
G36*
X210748228Y-80181703D02*
G01*
X210903100Y-80245853D01*
X211042481Y-80338985D01*
X211161015Y-80457519D01*
X211254147Y-80596900D01*
X211318297Y-80751772D01*
X211351000Y-80916184D01*
X211351000Y-81083816D01*
X211318297Y-81248228D01*
X211254147Y-81403100D01*
X211161015Y-81542481D01*
X211042481Y-81661015D01*
X210903100Y-81754147D01*
X210748228Y-81818297D01*
X210583816Y-81851000D01*
X210416184Y-81851000D01*
X210251772Y-81818297D01*
X210096900Y-81754147D01*
X209957519Y-81661015D01*
X209838985Y-81542481D01*
X209745853Y-81403100D01*
X209681703Y-81248228D01*
X209649000Y-81083816D01*
X209649000Y-80916184D01*
X209681703Y-80751772D01*
X209745853Y-80596900D01*
X209838985Y-80457519D01*
X209957519Y-80338985D01*
X210096900Y-80245853D01*
X210251772Y-80181703D01*
X210416184Y-80149000D01*
X210583816Y-80149000D01*
X210748228Y-80181703D01*
G37*
G36*
X205748228Y-80181703D02*
G01*
X205903100Y-80245853D01*
X206042481Y-80338985D01*
X206161015Y-80457519D01*
X206254147Y-80596900D01*
X206318297Y-80751772D01*
X206351000Y-80916184D01*
X206351000Y-81083816D01*
X206318297Y-81248228D01*
X206254147Y-81403100D01*
X206161015Y-81542481D01*
X206042481Y-81661015D01*
X205903100Y-81754147D01*
X205748228Y-81818297D01*
X205583816Y-81851000D01*
X205416184Y-81851000D01*
X205251772Y-81818297D01*
X205096900Y-81754147D01*
X204957519Y-81661015D01*
X204838985Y-81542481D01*
X204745853Y-81403100D01*
X204681703Y-81248228D01*
X204649000Y-81083816D01*
X204649000Y-80916184D01*
X204681703Y-80751772D01*
X204745853Y-80596900D01*
X204838985Y-80457519D01*
X204957519Y-80338985D01*
X205096900Y-80245853D01*
X205251772Y-80181703D01*
X205416184Y-80149000D01*
X205583816Y-80149000D01*
X205748228Y-80181703D01*
G37*
G36*
X146313512Y-78443927D02*
G01*
X146462812Y-78473624D01*
X146626784Y-78541544D01*
X146774354Y-78640147D01*
X146899853Y-78765646D01*
X146998456Y-78913216D01*
X147066376Y-79077188D01*
X147091006Y-79201015D01*
X147100949Y-79251000D01*
X147101000Y-79251259D01*
X147101000Y-79428741D01*
X147066376Y-79602812D01*
X146998456Y-79766784D01*
X146899853Y-79914354D01*
X146774354Y-80039853D01*
X146626784Y-80138456D01*
X146462812Y-80206376D01*
X146313512Y-80236073D01*
X146288742Y-80241000D01*
X146111258Y-80241000D01*
X146086488Y-80236073D01*
X145937188Y-80206376D01*
X145773216Y-80138456D01*
X145625646Y-80039853D01*
X145500147Y-79914354D01*
X145401544Y-79766784D01*
X145333624Y-79602812D01*
X145299000Y-79428741D01*
X145299000Y-79251259D01*
X145299052Y-79251000D01*
X145308994Y-79201015D01*
X145333624Y-79077188D01*
X145401544Y-78913216D01*
X145500147Y-78765646D01*
X145625646Y-78640147D01*
X145773216Y-78541544D01*
X145937188Y-78473624D01*
X146086488Y-78443927D01*
X146111258Y-78439000D01*
X146288742Y-78439000D01*
X146313512Y-78443927D01*
G37*
G36*
X180068228Y-77721703D02*
G01*
X180223100Y-77785853D01*
X180362481Y-77878985D01*
X180481015Y-77997519D01*
X180574147Y-78136900D01*
X180638297Y-78291772D01*
X180671000Y-78456184D01*
X180671000Y-78623816D01*
X180638297Y-78788228D01*
X180574147Y-78943100D01*
X180481015Y-79082481D01*
X180362481Y-79201015D01*
X180223100Y-79294147D01*
X180068228Y-79358297D01*
X179903816Y-79391000D01*
X179736184Y-79391000D01*
X179571772Y-79358297D01*
X179416900Y-79294147D01*
X179277519Y-79201015D01*
X179158985Y-79082481D01*
X179065853Y-78943100D01*
X179001703Y-78788228D01*
X178969000Y-78623816D01*
X178969000Y-78456184D01*
X179001703Y-78291772D01*
X179065853Y-78136900D01*
X179158985Y-77997519D01*
X179277519Y-77878985D01*
X179416900Y-77785853D01*
X179571772Y-77721703D01*
X179736184Y-77689000D01*
X179903816Y-77689000D01*
X180068228Y-77721703D01*
G37*
G36*
X172448228Y-77721703D02*
G01*
X172603100Y-77785853D01*
X172742481Y-77878985D01*
X172861015Y-77997519D01*
X172954147Y-78136900D01*
X173018297Y-78291772D01*
X173051000Y-78456184D01*
X173051000Y-78623816D01*
X173018297Y-78788228D01*
X172954147Y-78943100D01*
X172861015Y-79082481D01*
X172742481Y-79201015D01*
X172603100Y-79294147D01*
X172448228Y-79358297D01*
X172283816Y-79391000D01*
X172116184Y-79391000D01*
X171951772Y-79358297D01*
X171796900Y-79294147D01*
X171657519Y-79201015D01*
X171538985Y-79082481D01*
X171445853Y-78943100D01*
X171381703Y-78788228D01*
X171349000Y-78623816D01*
X171349000Y-78456184D01*
X171381703Y-78291772D01*
X171445853Y-78136900D01*
X171538985Y-77997519D01*
X171657519Y-77878985D01*
X171796900Y-77785853D01*
X171951772Y-77721703D01*
X172116184Y-77689000D01*
X172283816Y-77689000D01*
X172448228Y-77721703D01*
G37*
G36*
X131848228Y-77581703D02*
G01*
X132003100Y-77645853D01*
X132142481Y-77738985D01*
X132261015Y-77857519D01*
X132354147Y-77996900D01*
X132418297Y-78151772D01*
X132451000Y-78316184D01*
X132451000Y-78483816D01*
X132418297Y-78648228D01*
X132354147Y-78803100D01*
X132261015Y-78942481D01*
X132142481Y-79061015D01*
X132003100Y-79154147D01*
X131848228Y-79218297D01*
X131683816Y-79251000D01*
X131516184Y-79251000D01*
X131351772Y-79218297D01*
X131196900Y-79154147D01*
X131057519Y-79061015D01*
X130938985Y-78942481D01*
X130845853Y-78803100D01*
X130781703Y-78648228D01*
X130749000Y-78483816D01*
X130749000Y-78316184D01*
X130781703Y-78151772D01*
X130845853Y-77996900D01*
X130938985Y-77857519D01*
X131057519Y-77738985D01*
X131196900Y-77645853D01*
X131351772Y-77581703D01*
X131516184Y-77549000D01*
X131683816Y-77549000D01*
X131848228Y-77581703D01*
G37*
G36*
X197548228Y-76681703D02*
G01*
X197703100Y-76745853D01*
X197842481Y-76838985D01*
X197961015Y-76957519D01*
X198054147Y-77096900D01*
X198118297Y-77251772D01*
X198151000Y-77416184D01*
X198151000Y-77583816D01*
X198118297Y-77748228D01*
X198054147Y-77903100D01*
X197961015Y-78042481D01*
X197842481Y-78161015D01*
X197703100Y-78254147D01*
X197548228Y-78318297D01*
X197383816Y-78351000D01*
X197216184Y-78351000D01*
X197051772Y-78318297D01*
X196896900Y-78254147D01*
X196757519Y-78161015D01*
X196638985Y-78042481D01*
X196545853Y-77903100D01*
X196481703Y-77748228D01*
X196449000Y-77583816D01*
X196449000Y-77416184D01*
X196481703Y-77251772D01*
X196545853Y-77096900D01*
X196638985Y-76957519D01*
X196757519Y-76838985D01*
X196896900Y-76745853D01*
X197051772Y-76681703D01*
X197216184Y-76649000D01*
X197383816Y-76649000D01*
X197548228Y-76681703D01*
G37*
G36*
X195048228Y-76681703D02*
G01*
X195203100Y-76745853D01*
X195342481Y-76838985D01*
X195461015Y-76957519D01*
X195554147Y-77096900D01*
X195618297Y-77251772D01*
X195651000Y-77416184D01*
X195651000Y-77583816D01*
X195618297Y-77748228D01*
X195554147Y-77903100D01*
X195461015Y-78042481D01*
X195342481Y-78161015D01*
X195203100Y-78254147D01*
X195048228Y-78318297D01*
X194883816Y-78351000D01*
X194716184Y-78351000D01*
X194551772Y-78318297D01*
X194396900Y-78254147D01*
X194257519Y-78161015D01*
X194138985Y-78042481D01*
X194045853Y-77903100D01*
X193981703Y-77748228D01*
X193949000Y-77583816D01*
X193949000Y-77416184D01*
X193981703Y-77251772D01*
X194045853Y-77096900D01*
X194138985Y-76957519D01*
X194257519Y-76838985D01*
X194396900Y-76745853D01*
X194551772Y-76681703D01*
X194716184Y-76649000D01*
X194883816Y-76649000D01*
X195048228Y-76681703D01*
G37*
G36*
X147101000Y-77701000D02*
G01*
X145299000Y-77701000D01*
X145299000Y-75899000D01*
X147101000Y-75899000D01*
X147101000Y-77701000D01*
G37*
G36*
X159648228Y-75981703D02*
G01*
X159803100Y-76045853D01*
X159942481Y-76138985D01*
X160061015Y-76257519D01*
X160154147Y-76396900D01*
X160218297Y-76551772D01*
X160251000Y-76716184D01*
X160251000Y-76883816D01*
X160218297Y-77048228D01*
X160154147Y-77203100D01*
X160061015Y-77342481D01*
X159942481Y-77461015D01*
X159803100Y-77554147D01*
X159648228Y-77618297D01*
X159483816Y-77651000D01*
X159316184Y-77651000D01*
X159151772Y-77618297D01*
X158996900Y-77554147D01*
X158857519Y-77461015D01*
X158738985Y-77342481D01*
X158645853Y-77203100D01*
X158581703Y-77048228D01*
X158549000Y-76883816D01*
X158549000Y-76716184D01*
X158581703Y-76551772D01*
X158645853Y-76396900D01*
X158738985Y-76257519D01*
X158857519Y-76138985D01*
X158996900Y-76045853D01*
X159151772Y-75981703D01*
X159316184Y-75949000D01*
X159483816Y-75949000D01*
X159648228Y-75981703D01*
G37*
G36*
X135548228Y-75581703D02*
G01*
X135703100Y-75645853D01*
X135842481Y-75738985D01*
X135961015Y-75857519D01*
X136054147Y-75996900D01*
X136118297Y-76151772D01*
X136151000Y-76316184D01*
X136151000Y-76483816D01*
X136118297Y-76648228D01*
X136054147Y-76803100D01*
X135961015Y-76942481D01*
X135842481Y-77061015D01*
X135703100Y-77154147D01*
X135548228Y-77218297D01*
X135383816Y-77251000D01*
X135216184Y-77251000D01*
X135051772Y-77218297D01*
X134896900Y-77154147D01*
X134757519Y-77061015D01*
X134638985Y-76942481D01*
X134545853Y-76803100D01*
X134481703Y-76648228D01*
X134449000Y-76483816D01*
X134449000Y-76316184D01*
X134481703Y-76151772D01*
X134545853Y-75996900D01*
X134638985Y-75857519D01*
X134757519Y-75738985D01*
X134896900Y-75645853D01*
X135051772Y-75581703D01*
X135216184Y-75549000D01*
X135383816Y-75549000D01*
X135548228Y-75581703D01*
G37*
G36*
X204348228Y-75481703D02*
G01*
X204503100Y-75545853D01*
X204642481Y-75638985D01*
X204761015Y-75757519D01*
X204854147Y-75896900D01*
X204918297Y-76051772D01*
X204951000Y-76216184D01*
X204951000Y-76383816D01*
X204918297Y-76548228D01*
X204854147Y-76703100D01*
X204761015Y-76842481D01*
X204642481Y-76961015D01*
X204503100Y-77054147D01*
X204348228Y-77118297D01*
X204183816Y-77151000D01*
X204016184Y-77151000D01*
X203851772Y-77118297D01*
X203696900Y-77054147D01*
X203557519Y-76961015D01*
X203438985Y-76842481D01*
X203345853Y-76703100D01*
X203281703Y-76548228D01*
X203249000Y-76383816D01*
X203249000Y-76216184D01*
X203281703Y-76051772D01*
X203345853Y-75896900D01*
X203438985Y-75757519D01*
X203557519Y-75638985D01*
X203696900Y-75545853D01*
X203851772Y-75481703D01*
X204016184Y-75449000D01*
X204183816Y-75449000D01*
X204348228Y-75481703D01*
G37*
G36*
X211968228Y-75481703D02*
G01*
X212123100Y-75545853D01*
X212262481Y-75638985D01*
X212381015Y-75757519D01*
X212474147Y-75896900D01*
X212538297Y-76051772D01*
X212571000Y-76216184D01*
X212571000Y-76383816D01*
X212538297Y-76548228D01*
X212474147Y-76703100D01*
X212381015Y-76842481D01*
X212262481Y-76961015D01*
X212123100Y-77054147D01*
X211968228Y-77118297D01*
X211803816Y-77151000D01*
X211636184Y-77151000D01*
X211471772Y-77118297D01*
X211316900Y-77054147D01*
X211177519Y-76961015D01*
X211058985Y-76842481D01*
X210965853Y-76703100D01*
X210901703Y-76548228D01*
X210869000Y-76383816D01*
X210869000Y-76216184D01*
X210901703Y-76051772D01*
X210965853Y-75896900D01*
X211058985Y-75757519D01*
X211177519Y-75638985D01*
X211316900Y-75545853D01*
X211471772Y-75481703D01*
X211636184Y-75449000D01*
X211803816Y-75449000D01*
X211968228Y-75481703D01*
G37*
G36*
X180068228Y-75181703D02*
G01*
X180223100Y-75245853D01*
X180362481Y-75338985D01*
X180481015Y-75457519D01*
X180574147Y-75596900D01*
X180638297Y-75751772D01*
X180671000Y-75916184D01*
X180671000Y-76083816D01*
X180638297Y-76248228D01*
X180574147Y-76403100D01*
X180481015Y-76542481D01*
X180362481Y-76661015D01*
X180223100Y-76754147D01*
X180068228Y-76818297D01*
X179903816Y-76851000D01*
X179736184Y-76851000D01*
X179571772Y-76818297D01*
X179416900Y-76754147D01*
X179277519Y-76661015D01*
X179158985Y-76542481D01*
X179065853Y-76403100D01*
X179001703Y-76248228D01*
X178969000Y-76083816D01*
X178969000Y-75916184D01*
X179001703Y-75751772D01*
X179065853Y-75596900D01*
X179158985Y-75457519D01*
X179277519Y-75338985D01*
X179416900Y-75245853D01*
X179571772Y-75181703D01*
X179736184Y-75149000D01*
X179903816Y-75149000D01*
X180068228Y-75181703D01*
G37*
G36*
X172448228Y-75181703D02*
G01*
X172603100Y-75245853D01*
X172742481Y-75338985D01*
X172861015Y-75457519D01*
X172954147Y-75596900D01*
X173018297Y-75751772D01*
X173051000Y-75916184D01*
X173051000Y-76083816D01*
X173018297Y-76248228D01*
X172954147Y-76403100D01*
X172861015Y-76542481D01*
X172742481Y-76661015D01*
X172603100Y-76754147D01*
X172448228Y-76818297D01*
X172283816Y-76851000D01*
X172116184Y-76851000D01*
X171951772Y-76818297D01*
X171796900Y-76754147D01*
X171657519Y-76661015D01*
X171538985Y-76542481D01*
X171445853Y-76403100D01*
X171381703Y-76248228D01*
X171349000Y-76083816D01*
X171349000Y-75916184D01*
X171381703Y-75751772D01*
X171445853Y-75596900D01*
X171538985Y-75457519D01*
X171657519Y-75338985D01*
X171796900Y-75245853D01*
X171951772Y-75181703D01*
X172116184Y-75149000D01*
X172283816Y-75149000D01*
X172448228Y-75181703D01*
G37*
G36*
X159648228Y-73481703D02*
G01*
X159803100Y-73545853D01*
X159942481Y-73638985D01*
X160061015Y-73757519D01*
X160154147Y-73896900D01*
X160218297Y-74051772D01*
X160251000Y-74216184D01*
X160251000Y-74383816D01*
X160218297Y-74548228D01*
X160154147Y-74703100D01*
X160061015Y-74842481D01*
X159942481Y-74961015D01*
X159803100Y-75054147D01*
X159648228Y-75118297D01*
X159483816Y-75151000D01*
X159316184Y-75151000D01*
X159151772Y-75118297D01*
X158996900Y-75054147D01*
X158857519Y-74961015D01*
X158738985Y-74842481D01*
X158645853Y-74703100D01*
X158581703Y-74548228D01*
X158549000Y-74383816D01*
X158549000Y-74216184D01*
X158581703Y-74051772D01*
X158645853Y-73896900D01*
X158738985Y-73757519D01*
X158857519Y-73638985D01*
X158996900Y-73545853D01*
X159151772Y-73481703D01*
X159316184Y-73449000D01*
X159483816Y-73449000D01*
X159648228Y-73481703D01*
G37*
G36*
X165233642Y-73509781D02*
G01*
X165379414Y-73570162D01*
X165379416Y-73570163D01*
X165510608Y-73657822D01*
X165622178Y-73769392D01*
X165684789Y-73863097D01*
X165709838Y-73900586D01*
X165770219Y-74046358D01*
X165801000Y-74201107D01*
X165801000Y-74358893D01*
X165770219Y-74513642D01*
X165709838Y-74659414D01*
X165709837Y-74659416D01*
X165622178Y-74790608D01*
X165510608Y-74902178D01*
X165379416Y-74989837D01*
X165379415Y-74989838D01*
X165379414Y-74989838D01*
X165233642Y-75050219D01*
X165078893Y-75081000D01*
X164921107Y-75081000D01*
X164766358Y-75050219D01*
X164620586Y-74989838D01*
X164620585Y-74989838D01*
X164620584Y-74989837D01*
X164489392Y-74902178D01*
X164377822Y-74790608D01*
X164290163Y-74659416D01*
X164290162Y-74659414D01*
X164229781Y-74513642D01*
X164199000Y-74358893D01*
X164199000Y-74201107D01*
X164229781Y-74046358D01*
X164290162Y-73900586D01*
X164315211Y-73863097D01*
X164377822Y-73769392D01*
X164489392Y-73657822D01*
X164620584Y-73570163D01*
X164620586Y-73570162D01*
X164766358Y-73509781D01*
X164921107Y-73479000D01*
X165078893Y-73479000D01*
X165233642Y-73509781D01*
G37*
G36*
X201298228Y-72681703D02*
G01*
X201453100Y-72745853D01*
X201592481Y-72838985D01*
X201711015Y-72957519D01*
X201804147Y-73096900D01*
X201868297Y-73251772D01*
X201901000Y-73416184D01*
X201901000Y-73583816D01*
X201868297Y-73748228D01*
X201804147Y-73903100D01*
X201711015Y-74042481D01*
X201592481Y-74161015D01*
X201453100Y-74254147D01*
X201298228Y-74318297D01*
X201133816Y-74351000D01*
X200966184Y-74351000D01*
X200801772Y-74318297D01*
X200646900Y-74254147D01*
X200507519Y-74161015D01*
X200388985Y-74042481D01*
X200295853Y-73903100D01*
X200231703Y-73748228D01*
X200199000Y-73583816D01*
X200199000Y-73416184D01*
X200231703Y-73251772D01*
X200295853Y-73096900D01*
X200388985Y-72957519D01*
X200507519Y-72838985D01*
X200646900Y-72745853D01*
X200801772Y-72681703D01*
X200966184Y-72649000D01*
X201133816Y-72649000D01*
X201298228Y-72681703D01*
G37*
G36*
X172448228Y-72641703D02*
G01*
X172603100Y-72705853D01*
X172742481Y-72798985D01*
X172861015Y-72917519D01*
X172954147Y-73056900D01*
X173018297Y-73211772D01*
X173051000Y-73376184D01*
X173051000Y-73543816D01*
X173018297Y-73708228D01*
X172954147Y-73863100D01*
X172861015Y-74002481D01*
X172742481Y-74121015D01*
X172603100Y-74214147D01*
X172448228Y-74278297D01*
X172283816Y-74311000D01*
X172116184Y-74311000D01*
X171951772Y-74278297D01*
X171796900Y-74214147D01*
X171657519Y-74121015D01*
X171538985Y-74002481D01*
X171445853Y-73863100D01*
X171381703Y-73708228D01*
X171349000Y-73543816D01*
X171349000Y-73376184D01*
X171381703Y-73211772D01*
X171445853Y-73056900D01*
X171538985Y-72917519D01*
X171657519Y-72798985D01*
X171796900Y-72705853D01*
X171951772Y-72641703D01*
X172116184Y-72609000D01*
X172283816Y-72609000D01*
X172448228Y-72641703D01*
G37*
G36*
X180068228Y-72641703D02*
G01*
X180223100Y-72705853D01*
X180362481Y-72798985D01*
X180481015Y-72917519D01*
X180574147Y-73056900D01*
X180638297Y-73211772D01*
X180671000Y-73376184D01*
X180671000Y-73543816D01*
X180638297Y-73708228D01*
X180574147Y-73863100D01*
X180481015Y-74002481D01*
X180362481Y-74121015D01*
X180223100Y-74214147D01*
X180068228Y-74278297D01*
X179903816Y-74311000D01*
X179736184Y-74311000D01*
X179571772Y-74278297D01*
X179416900Y-74214147D01*
X179277519Y-74121015D01*
X179158985Y-74002481D01*
X179065853Y-73863100D01*
X179001703Y-73708228D01*
X178969000Y-73543816D01*
X178969000Y-73376184D01*
X179001703Y-73211772D01*
X179065853Y-73056900D01*
X179158985Y-72917519D01*
X179277519Y-72798985D01*
X179416900Y-72705853D01*
X179571772Y-72641703D01*
X179736184Y-72609000D01*
X179903816Y-72609000D01*
X180068228Y-72641703D01*
G37*
G36*
X142601000Y-73601000D02*
G01*
X140899000Y-73601000D01*
X140899000Y-71899000D01*
X142601000Y-71899000D01*
X142601000Y-73601000D01*
G37*
G36*
X136101000Y-73601000D02*
G01*
X134399000Y-73601000D01*
X134399000Y-71899000D01*
X136101000Y-71899000D01*
X136101000Y-73601000D01*
G37*
G36*
X190648228Y-70831703D02*
G01*
X190803100Y-70895853D01*
X190942481Y-70988985D01*
X191061015Y-71107519D01*
X191154147Y-71246900D01*
X191218297Y-71401772D01*
X191251000Y-71566184D01*
X191251000Y-71733816D01*
X191218297Y-71898228D01*
X191154147Y-72053100D01*
X191061015Y-72192481D01*
X190942481Y-72311015D01*
X190803100Y-72404147D01*
X190648228Y-72468297D01*
X190483816Y-72501000D01*
X190316184Y-72501000D01*
X190151772Y-72468297D01*
X189996900Y-72404147D01*
X189857519Y-72311015D01*
X189738985Y-72192481D01*
X189645853Y-72053100D01*
X189581703Y-71898228D01*
X189549000Y-71733816D01*
X189549000Y-71566184D01*
X189581703Y-71401772D01*
X189645853Y-71246900D01*
X189738985Y-71107519D01*
X189857519Y-70988985D01*
X189996900Y-70895853D01*
X190151772Y-70831703D01*
X190316184Y-70799000D01*
X190483816Y-70799000D01*
X190648228Y-70831703D01*
G37*
G36*
X215173241Y-69414760D02*
G01*
X215437305Y-69524139D01*
X215674958Y-69682934D01*
X215877066Y-69885042D01*
X216035861Y-70122695D01*
X216145240Y-70386759D01*
X216201000Y-70667088D01*
X216201000Y-70952912D01*
X216145240Y-71233241D01*
X216035861Y-71497305D01*
X215877066Y-71734958D01*
X215674958Y-71937066D01*
X215437305Y-72095861D01*
X215173241Y-72205240D01*
X214892912Y-72261000D01*
X214607088Y-72261000D01*
X214326759Y-72205240D01*
X214062695Y-72095861D01*
X213825042Y-71937066D01*
X213622934Y-71734958D01*
X213464139Y-71497305D01*
X213354760Y-71233241D01*
X213299000Y-70952912D01*
X213299000Y-70667088D01*
X213354760Y-70386759D01*
X213464139Y-70122695D01*
X213622934Y-69885042D01*
X213825042Y-69682934D01*
X214062695Y-69524139D01*
X214326759Y-69414760D01*
X214607088Y-69359000D01*
X214892912Y-69359000D01*
X215173241Y-69414760D01*
G37*
G36*
X180068228Y-70101703D02*
G01*
X180223100Y-70165853D01*
X180362481Y-70258985D01*
X180481015Y-70377519D01*
X180574147Y-70516900D01*
X180638297Y-70671772D01*
X180671000Y-70836184D01*
X180671000Y-71003816D01*
X180638297Y-71168228D01*
X180574147Y-71323100D01*
X180481015Y-71462481D01*
X180362481Y-71581015D01*
X180223100Y-71674147D01*
X180068228Y-71738297D01*
X179903816Y-71771000D01*
X179736184Y-71771000D01*
X179571772Y-71738297D01*
X179416900Y-71674147D01*
X179277519Y-71581015D01*
X179158985Y-71462481D01*
X179065853Y-71323100D01*
X179001703Y-71168228D01*
X178969000Y-71003816D01*
X178969000Y-70836184D01*
X179001703Y-70671772D01*
X179065853Y-70516900D01*
X179158985Y-70377519D01*
X179277519Y-70258985D01*
X179416900Y-70165853D01*
X179571772Y-70101703D01*
X179736184Y-70069000D01*
X179903816Y-70069000D01*
X180068228Y-70101703D01*
G37*
G36*
X172448228Y-70101703D02*
G01*
X172603100Y-70165853D01*
X172742481Y-70258985D01*
X172861015Y-70377519D01*
X172954147Y-70516900D01*
X173018297Y-70671772D01*
X173051000Y-70836184D01*
X173051000Y-71003816D01*
X173018297Y-71168228D01*
X172954147Y-71323100D01*
X172861015Y-71462481D01*
X172742481Y-71581015D01*
X172603100Y-71674147D01*
X172448228Y-71738297D01*
X172283816Y-71771000D01*
X172116184Y-71771000D01*
X171951772Y-71738297D01*
X171796900Y-71674147D01*
X171657519Y-71581015D01*
X171538985Y-71462481D01*
X171445853Y-71323100D01*
X171381703Y-71168228D01*
X171349000Y-71003816D01*
X171349000Y-70836184D01*
X171381703Y-70671772D01*
X171445853Y-70516900D01*
X171538985Y-70377519D01*
X171657519Y-70258985D01*
X171796900Y-70165853D01*
X171951772Y-70101703D01*
X172116184Y-70069000D01*
X172283816Y-70069000D01*
X172448228Y-70101703D01*
G37*
G36*
X194406564Y-69689389D02*
G01*
X194557170Y-69751772D01*
X194597835Y-69768616D01*
X194769973Y-69883635D01*
X194916365Y-70030027D01*
X195030606Y-70201000D01*
X195031385Y-70202167D01*
X195110611Y-70393436D01*
X195151000Y-70596484D01*
X195151000Y-70803516D01*
X195110611Y-71006564D01*
X195043648Y-71168228D01*
X195031384Y-71197835D01*
X194916365Y-71369973D01*
X194769973Y-71516365D01*
X194597835Y-71631384D01*
X194597834Y-71631385D01*
X194597833Y-71631385D01*
X194406564Y-71710611D01*
X194203516Y-71751000D01*
X193996484Y-71751000D01*
X193793436Y-71710611D01*
X193602167Y-71631385D01*
X193602166Y-71631385D01*
X193602165Y-71631384D01*
X193430027Y-71516365D01*
X193283635Y-71369973D01*
X193168616Y-71197835D01*
X193156352Y-71168228D01*
X193089389Y-71006564D01*
X193049000Y-70803516D01*
X193049000Y-70596484D01*
X193089389Y-70393436D01*
X193168615Y-70202167D01*
X193169395Y-70201000D01*
X193283635Y-70030027D01*
X193430027Y-69883635D01*
X193602165Y-69768616D01*
X193642830Y-69751772D01*
X193793436Y-69689389D01*
X193996484Y-69649000D01*
X194203516Y-69649000D01*
X194406564Y-69689389D01*
G37*
G36*
X198406564Y-69689389D02*
G01*
X198557170Y-69751772D01*
X198597835Y-69768616D01*
X198769973Y-69883635D01*
X198916365Y-70030027D01*
X199030606Y-70201000D01*
X199031385Y-70202167D01*
X199110611Y-70393436D01*
X199151000Y-70596484D01*
X199151000Y-70803516D01*
X199110611Y-71006564D01*
X199043648Y-71168228D01*
X199031384Y-71197835D01*
X198916365Y-71369973D01*
X198769973Y-71516365D01*
X198597835Y-71631384D01*
X198597834Y-71631385D01*
X198597833Y-71631385D01*
X198406564Y-71710611D01*
X198203516Y-71751000D01*
X197996484Y-71751000D01*
X197793436Y-71710611D01*
X197602167Y-71631385D01*
X197602166Y-71631385D01*
X197602165Y-71631384D01*
X197430027Y-71516365D01*
X197283635Y-71369973D01*
X197168616Y-71197835D01*
X197156352Y-71168228D01*
X197089389Y-71006564D01*
X197049000Y-70803516D01*
X197049000Y-70596484D01*
X197089389Y-70393436D01*
X197168615Y-70202167D01*
X197169395Y-70201000D01*
X197283635Y-70030027D01*
X197430027Y-69883635D01*
X197602165Y-69768616D01*
X197642830Y-69751772D01*
X197793436Y-69689389D01*
X197996484Y-69649000D01*
X198203516Y-69649000D01*
X198406564Y-69689389D01*
G37*
G36*
X150248228Y-69431703D02*
G01*
X150403100Y-69495853D01*
X150542481Y-69588985D01*
X150661015Y-69707519D01*
X150754147Y-69846900D01*
X150818297Y-70001772D01*
X150851000Y-70166184D01*
X150851000Y-70333816D01*
X150818297Y-70498228D01*
X150754147Y-70653100D01*
X150661015Y-70792481D01*
X150542481Y-70911015D01*
X150403100Y-71004147D01*
X150248228Y-71068297D01*
X150083816Y-71101000D01*
X149916184Y-71101000D01*
X149751772Y-71068297D01*
X149596900Y-71004147D01*
X149457519Y-70911015D01*
X149338985Y-70792481D01*
X149245853Y-70653100D01*
X149181703Y-70498228D01*
X149149000Y-70333816D01*
X149149000Y-70166184D01*
X149181703Y-70001772D01*
X149245853Y-69846900D01*
X149338985Y-69707519D01*
X149457519Y-69588985D01*
X149596900Y-69495853D01*
X149751772Y-69431703D01*
X149916184Y-69399000D01*
X150083816Y-69399000D01*
X150248228Y-69431703D01*
G37*
G36*
X135498228Y-69431703D02*
G01*
X135653100Y-69495853D01*
X135792481Y-69588985D01*
X135911015Y-69707519D01*
X136004147Y-69846900D01*
X136068297Y-70001772D01*
X136101000Y-70166184D01*
X136101000Y-70333816D01*
X136068297Y-70498228D01*
X136004147Y-70653100D01*
X135911015Y-70792481D01*
X135792481Y-70911015D01*
X135653100Y-71004147D01*
X135498228Y-71068297D01*
X135333816Y-71101000D01*
X135166184Y-71101000D01*
X135001772Y-71068297D01*
X134846900Y-71004147D01*
X134707519Y-70911015D01*
X134588985Y-70792481D01*
X134495853Y-70653100D01*
X134431703Y-70498228D01*
X134399000Y-70333816D01*
X134399000Y-70166184D01*
X134431703Y-70001772D01*
X134495853Y-69846900D01*
X134588985Y-69707519D01*
X134707519Y-69588985D01*
X134846900Y-69495853D01*
X135001772Y-69431703D01*
X135166184Y-69399000D01*
X135333816Y-69399000D01*
X135498228Y-69431703D01*
G37*
G36*
X141998228Y-69431703D02*
G01*
X142153100Y-69495853D01*
X142292481Y-69588985D01*
X142411015Y-69707519D01*
X142504147Y-69846900D01*
X142568297Y-70001772D01*
X142601000Y-70166184D01*
X142601000Y-70333816D01*
X142568297Y-70498228D01*
X142504147Y-70653100D01*
X142411015Y-70792481D01*
X142292481Y-70911015D01*
X142153100Y-71004147D01*
X141998228Y-71068297D01*
X141833816Y-71101000D01*
X141666184Y-71101000D01*
X141501772Y-71068297D01*
X141346900Y-71004147D01*
X141207519Y-70911015D01*
X141088985Y-70792481D01*
X140995853Y-70653100D01*
X140931703Y-70498228D01*
X140899000Y-70333816D01*
X140899000Y-70166184D01*
X140931703Y-70001772D01*
X140995853Y-69846900D01*
X141088985Y-69707519D01*
X141207519Y-69588985D01*
X141346900Y-69495853D01*
X141501772Y-69431703D01*
X141666184Y-69399000D01*
X141833816Y-69399000D01*
X141998228Y-69431703D01*
G37*
G36*
X131848228Y-69181703D02*
G01*
X132003100Y-69245853D01*
X132142481Y-69338985D01*
X132261015Y-69457519D01*
X132354147Y-69596900D01*
X132418297Y-69751772D01*
X132451000Y-69916184D01*
X132451000Y-70083816D01*
X132418297Y-70248228D01*
X132354147Y-70403100D01*
X132261015Y-70542481D01*
X132142481Y-70661015D01*
X132003100Y-70754147D01*
X131848228Y-70818297D01*
X131683816Y-70851000D01*
X131516184Y-70851000D01*
X131351772Y-70818297D01*
X131196900Y-70754147D01*
X131057519Y-70661015D01*
X130938985Y-70542481D01*
X130845853Y-70403100D01*
X130781703Y-70248228D01*
X130749000Y-70083816D01*
X130749000Y-69916184D01*
X130781703Y-69751772D01*
X130845853Y-69596900D01*
X130938985Y-69457519D01*
X131057519Y-69338985D01*
X131196900Y-69245853D01*
X131351772Y-69181703D01*
X131516184Y-69149000D01*
X131683816Y-69149000D01*
X131848228Y-69181703D01*
G37*
G36*
X165233642Y-68629781D02*
G01*
X165379414Y-68690162D01*
X165379416Y-68690163D01*
X165510608Y-68777822D01*
X165622178Y-68889392D01*
X165709837Y-69020584D01*
X165709838Y-69020586D01*
X165770219Y-69166358D01*
X165801000Y-69321107D01*
X165801000Y-69478893D01*
X165770219Y-69633642D01*
X165709838Y-69779414D01*
X165709837Y-69779416D01*
X165622178Y-69910608D01*
X165510608Y-70022178D01*
X165379416Y-70109837D01*
X165379415Y-70109838D01*
X165379414Y-70109838D01*
X165233642Y-70170219D01*
X165078893Y-70201000D01*
X164921107Y-70201000D01*
X164766358Y-70170219D01*
X164620586Y-70109838D01*
X164620585Y-70109838D01*
X164620584Y-70109837D01*
X164489392Y-70022178D01*
X164377822Y-69910608D01*
X164290163Y-69779416D01*
X164290162Y-69779414D01*
X164229781Y-69633642D01*
X164199000Y-69478893D01*
X164199000Y-69321107D01*
X164229781Y-69166358D01*
X164290162Y-69020586D01*
X164290163Y-69020584D01*
X164377822Y-68889392D01*
X164489392Y-68777822D01*
X164620584Y-68690163D01*
X164620586Y-68690162D01*
X164766358Y-68629781D01*
X164921107Y-68599000D01*
X165078893Y-68599000D01*
X165233642Y-68629781D01*
G37*
G36*
X159648228Y-68481703D02*
G01*
X159803100Y-68545853D01*
X159942481Y-68638985D01*
X160061015Y-68757519D01*
X160154147Y-68896900D01*
X160218297Y-69051772D01*
X160251000Y-69216184D01*
X160251000Y-69383816D01*
X160218297Y-69548228D01*
X160154147Y-69703100D01*
X160061015Y-69842481D01*
X159942481Y-69961015D01*
X159803100Y-70054147D01*
X159648228Y-70118297D01*
X159483816Y-70151000D01*
X159316184Y-70151000D01*
X159151772Y-70118297D01*
X158996900Y-70054147D01*
X158857519Y-69961015D01*
X158738985Y-69842481D01*
X158645853Y-69703100D01*
X158581703Y-69548228D01*
X158549000Y-69383816D01*
X158549000Y-69216184D01*
X158581703Y-69051772D01*
X158645853Y-68896900D01*
X158738985Y-68757519D01*
X158857519Y-68638985D01*
X158996900Y-68545853D01*
X159151772Y-68481703D01*
X159316184Y-68449000D01*
X159483816Y-68449000D01*
X159648228Y-68481703D01*
G37*
G36*
X190648228Y-68331703D02*
G01*
X190803100Y-68395853D01*
X190942481Y-68488985D01*
X191061015Y-68607519D01*
X191154147Y-68746900D01*
X191218297Y-68901772D01*
X191251000Y-69066184D01*
X191251000Y-69233816D01*
X191218297Y-69398228D01*
X191154147Y-69553100D01*
X191061015Y-69692481D01*
X190942481Y-69811015D01*
X190803100Y-69904147D01*
X190648228Y-69968297D01*
X190483816Y-70001000D01*
X190316184Y-70001000D01*
X190151772Y-69968297D01*
X189996900Y-69904147D01*
X189857519Y-69811015D01*
X189738985Y-69692481D01*
X189645853Y-69553100D01*
X189581703Y-69398228D01*
X189549000Y-69233816D01*
X189549000Y-69066184D01*
X189581703Y-68901772D01*
X189645853Y-68746900D01*
X189738985Y-68607519D01*
X189857519Y-68488985D01*
X189996900Y-68395853D01*
X190151772Y-68331703D01*
X190316184Y-68299000D01*
X190483816Y-68299000D01*
X190648228Y-68331703D01*
G37*
G36*
X184248228Y-67581703D02*
G01*
X184403100Y-67645853D01*
X184542481Y-67738985D01*
X184661015Y-67857519D01*
X184754147Y-67996900D01*
X184818297Y-68151772D01*
X184851000Y-68316184D01*
X184851000Y-68483816D01*
X184818297Y-68648228D01*
X184754147Y-68803100D01*
X184661015Y-68942481D01*
X184542481Y-69061015D01*
X184403100Y-69154147D01*
X184248228Y-69218297D01*
X184083816Y-69251000D01*
X183916184Y-69251000D01*
X183751772Y-69218297D01*
X183596900Y-69154147D01*
X183457519Y-69061015D01*
X183338985Y-68942481D01*
X183245853Y-68803100D01*
X183181703Y-68648228D01*
X183149000Y-68483816D01*
X183149000Y-68316184D01*
X183181703Y-68151772D01*
X183245853Y-67996900D01*
X183338985Y-67857519D01*
X183457519Y-67738985D01*
X183596900Y-67645853D01*
X183751772Y-67581703D01*
X183916184Y-67549000D01*
X184083816Y-67549000D01*
X184248228Y-67581703D01*
G37*
G36*
X186748228Y-67581703D02*
G01*
X186903100Y-67645853D01*
X187042481Y-67738985D01*
X187161015Y-67857519D01*
X187254147Y-67996900D01*
X187318297Y-68151772D01*
X187351000Y-68316184D01*
X187351000Y-68483816D01*
X187318297Y-68648228D01*
X187254147Y-68803100D01*
X187161015Y-68942481D01*
X187042481Y-69061015D01*
X186903100Y-69154147D01*
X186748228Y-69218297D01*
X186583816Y-69251000D01*
X186416184Y-69251000D01*
X186251772Y-69218297D01*
X186096900Y-69154147D01*
X185957519Y-69061015D01*
X185838985Y-68942481D01*
X185745853Y-68803100D01*
X185681703Y-68648228D01*
X185649000Y-68483816D01*
X185649000Y-68316184D01*
X185681703Y-68151772D01*
X185745853Y-67996900D01*
X185838985Y-67857519D01*
X185957519Y-67738985D01*
X186096900Y-67645853D01*
X186251772Y-67581703D01*
X186416184Y-67549000D01*
X186583816Y-67549000D01*
X186748228Y-67581703D01*
G37*
G36*
X180068228Y-67561703D02*
G01*
X180223100Y-67625853D01*
X180362481Y-67718985D01*
X180481015Y-67837519D01*
X180574147Y-67976900D01*
X180638297Y-68131772D01*
X180671000Y-68296184D01*
X180671000Y-68463816D01*
X180638297Y-68628228D01*
X180574147Y-68783100D01*
X180481015Y-68922481D01*
X180362481Y-69041015D01*
X180223100Y-69134147D01*
X180068228Y-69198297D01*
X179903816Y-69231000D01*
X179736184Y-69231000D01*
X179571772Y-69198297D01*
X179416900Y-69134147D01*
X179277519Y-69041015D01*
X179158985Y-68922481D01*
X179065853Y-68783100D01*
X179001703Y-68628228D01*
X178969000Y-68463816D01*
X178969000Y-68296184D01*
X179001703Y-68131772D01*
X179065853Y-67976900D01*
X179158985Y-67837519D01*
X179277519Y-67718985D01*
X179416900Y-67625853D01*
X179571772Y-67561703D01*
X179736184Y-67529000D01*
X179903816Y-67529000D01*
X180068228Y-67561703D01*
G37*
G36*
X172448228Y-67561703D02*
G01*
X172603100Y-67625853D01*
X172742481Y-67718985D01*
X172861015Y-67837519D01*
X172954147Y-67976900D01*
X173018297Y-68131772D01*
X173051000Y-68296184D01*
X173051000Y-68463816D01*
X173018297Y-68628228D01*
X172954147Y-68783100D01*
X172861015Y-68922481D01*
X172742481Y-69041015D01*
X172603100Y-69134147D01*
X172448228Y-69198297D01*
X172283816Y-69231000D01*
X172116184Y-69231000D01*
X171951772Y-69198297D01*
X171796900Y-69134147D01*
X171657519Y-69041015D01*
X171538985Y-68922481D01*
X171445853Y-68783100D01*
X171381703Y-68628228D01*
X171349000Y-68463816D01*
X171349000Y-68296184D01*
X171381703Y-68131772D01*
X171445853Y-67976900D01*
X171538985Y-67837519D01*
X171657519Y-67718985D01*
X171796900Y-67625853D01*
X171951772Y-67561703D01*
X172116184Y-67529000D01*
X172283816Y-67529000D01*
X172448228Y-67561703D01*
G37*
G36*
X201298228Y-66781703D02*
G01*
X201453100Y-66845853D01*
X201592481Y-66938985D01*
X201711015Y-67057519D01*
X201804147Y-67196900D01*
X201868297Y-67351772D01*
X201901000Y-67516184D01*
X201901000Y-67683816D01*
X201868297Y-67848228D01*
X201804147Y-68003100D01*
X201711015Y-68142481D01*
X201592481Y-68261015D01*
X201453100Y-68354147D01*
X201298228Y-68418297D01*
X201133816Y-68451000D01*
X200966184Y-68451000D01*
X200801772Y-68418297D01*
X200646900Y-68354147D01*
X200507519Y-68261015D01*
X200388985Y-68142481D01*
X200295853Y-68003100D01*
X200231703Y-67848228D01*
X200199000Y-67683816D01*
X200199000Y-67516184D01*
X200231703Y-67351772D01*
X200295853Y-67196900D01*
X200388985Y-67057519D01*
X200507519Y-66938985D01*
X200646900Y-66845853D01*
X200801772Y-66781703D01*
X200966184Y-66749000D01*
X201133816Y-66749000D01*
X201298228Y-66781703D01*
G37*
G36*
X159648228Y-65981703D02*
G01*
X159803100Y-66045853D01*
X159942481Y-66138985D01*
X160061015Y-66257519D01*
X160154147Y-66396900D01*
X160218297Y-66551772D01*
X160251000Y-66716184D01*
X160251000Y-66883816D01*
X160218297Y-67048228D01*
X160154147Y-67203100D01*
X160061015Y-67342481D01*
X159942481Y-67461015D01*
X159803100Y-67554147D01*
X159648228Y-67618297D01*
X159483816Y-67651000D01*
X159316184Y-67651000D01*
X159151772Y-67618297D01*
X158996900Y-67554147D01*
X158857519Y-67461015D01*
X158738985Y-67342481D01*
X158645853Y-67203100D01*
X158581703Y-67048228D01*
X158549000Y-66883816D01*
X158549000Y-66716184D01*
X158581703Y-66551772D01*
X158645853Y-66396900D01*
X158738985Y-66257519D01*
X158857519Y-66138985D01*
X158996900Y-66045853D01*
X159151772Y-65981703D01*
X159316184Y-65949000D01*
X159483816Y-65949000D01*
X159648228Y-65981703D01*
G37*
G36*
X180068228Y-65021703D02*
G01*
X180223100Y-65085853D01*
X180362481Y-65178985D01*
X180481015Y-65297519D01*
X180574147Y-65436900D01*
X180638297Y-65591772D01*
X180671000Y-65756184D01*
X180671000Y-65923816D01*
X180638297Y-66088228D01*
X180574147Y-66243100D01*
X180481015Y-66382481D01*
X180362481Y-66501015D01*
X180223100Y-66594147D01*
X180068228Y-66658297D01*
X179903816Y-66691000D01*
X179736184Y-66691000D01*
X179571772Y-66658297D01*
X179416900Y-66594147D01*
X179277519Y-66501015D01*
X179158985Y-66382481D01*
X179065853Y-66243100D01*
X179001703Y-66088228D01*
X178969000Y-65923816D01*
X178969000Y-65756184D01*
X179001703Y-65591772D01*
X179065853Y-65436900D01*
X179158985Y-65297519D01*
X179277519Y-65178985D01*
X179416900Y-65085853D01*
X179571772Y-65021703D01*
X179736184Y-64989000D01*
X179903816Y-64989000D01*
X180068228Y-65021703D01*
G37*
G36*
X172448228Y-65021703D02*
G01*
X172603100Y-65085853D01*
X172742481Y-65178985D01*
X172861015Y-65297519D01*
X172954147Y-65436900D01*
X173018297Y-65591772D01*
X173051000Y-65756184D01*
X173051000Y-65923816D01*
X173018297Y-66088228D01*
X172954147Y-66243100D01*
X172861015Y-66382481D01*
X172742481Y-66501015D01*
X172603100Y-66594147D01*
X172448228Y-66658297D01*
X172283816Y-66691000D01*
X172116184Y-66691000D01*
X171951772Y-66658297D01*
X171796900Y-66594147D01*
X171657519Y-66501015D01*
X171538985Y-66382481D01*
X171445853Y-66243100D01*
X171381703Y-66088228D01*
X171349000Y-65923816D01*
X171349000Y-65756184D01*
X171381703Y-65591772D01*
X171445853Y-65436900D01*
X171538985Y-65297519D01*
X171657519Y-65178985D01*
X171796900Y-65085853D01*
X171951772Y-65021703D01*
X172116184Y-64989000D01*
X172283816Y-64989000D01*
X172448228Y-65021703D01*
G37*
G36*
X138611766Y-65101899D02*
G01*
X138743888Y-65156626D01*
X138743890Y-65156627D01*
X138862798Y-65236079D01*
X138963921Y-65337202D01*
X138963922Y-65337204D01*
X139043374Y-65456112D01*
X139098101Y-65588234D01*
X139126000Y-65728494D01*
X139126000Y-65871506D01*
X139098101Y-66011766D01*
X139045405Y-66138985D01*
X139043373Y-66143890D01*
X138963921Y-66262798D01*
X138862798Y-66363921D01*
X138743890Y-66443373D01*
X138743889Y-66443374D01*
X138743888Y-66443374D01*
X138611766Y-66498101D01*
X138471506Y-66526000D01*
X138328494Y-66526000D01*
X138188234Y-66498101D01*
X138056112Y-66443374D01*
X138056111Y-66443374D01*
X138056110Y-66443373D01*
X137937202Y-66363921D01*
X137836079Y-66262798D01*
X137756627Y-66143890D01*
X137754595Y-66138985D01*
X137701899Y-66011766D01*
X137674000Y-65871506D01*
X137674000Y-65728494D01*
X137701899Y-65588234D01*
X137756626Y-65456112D01*
X137836078Y-65337204D01*
X137836079Y-65337202D01*
X137937202Y-65236079D01*
X138056110Y-65156627D01*
X138056112Y-65156626D01*
X138188234Y-65101899D01*
X138328494Y-65074000D01*
X138471506Y-65074000D01*
X138611766Y-65101899D01*
G37*
G36*
X134611766Y-65101899D02*
G01*
X134743888Y-65156626D01*
X134743890Y-65156627D01*
X134862798Y-65236079D01*
X134963921Y-65337202D01*
X134963922Y-65337204D01*
X135043374Y-65456112D01*
X135098101Y-65588234D01*
X135126000Y-65728494D01*
X135126000Y-65871506D01*
X135098101Y-66011766D01*
X135045405Y-66138985D01*
X135043373Y-66143890D01*
X134963921Y-66262798D01*
X134862798Y-66363921D01*
X134743890Y-66443373D01*
X134743889Y-66443374D01*
X134743888Y-66443374D01*
X134611766Y-66498101D01*
X134471506Y-66526000D01*
X134328494Y-66526000D01*
X134188234Y-66498101D01*
X134056112Y-66443374D01*
X134056111Y-66443374D01*
X134056110Y-66443373D01*
X133937202Y-66363921D01*
X133836079Y-66262798D01*
X133756627Y-66143890D01*
X133754595Y-66138985D01*
X133701899Y-66011766D01*
X133674000Y-65871506D01*
X133674000Y-65728494D01*
X133701899Y-65588234D01*
X133756626Y-65456112D01*
X133836078Y-65337204D01*
X133836079Y-65337202D01*
X133937202Y-65236079D01*
X134056110Y-65156627D01*
X134056112Y-65156626D01*
X134188234Y-65101899D01*
X134328494Y-65074000D01*
X134471506Y-65074000D01*
X134611766Y-65101899D01*
G37*
G36*
X140611766Y-65101899D02*
G01*
X140743888Y-65156626D01*
X140743890Y-65156627D01*
X140862798Y-65236079D01*
X140963921Y-65337202D01*
X140963922Y-65337204D01*
X141043374Y-65456112D01*
X141098101Y-65588234D01*
X141126000Y-65728494D01*
X141126000Y-65871506D01*
X141098101Y-66011766D01*
X141045405Y-66138985D01*
X141043373Y-66143890D01*
X140963921Y-66262798D01*
X140862798Y-66363921D01*
X140743890Y-66443373D01*
X140743889Y-66443374D01*
X140743888Y-66443374D01*
X140611766Y-66498101D01*
X140471506Y-66526000D01*
X140328494Y-66526000D01*
X140188234Y-66498101D01*
X140056112Y-66443374D01*
X140056111Y-66443374D01*
X140056110Y-66443373D01*
X139937202Y-66363921D01*
X139836079Y-66262798D01*
X139756627Y-66143890D01*
X139754595Y-66138985D01*
X139701899Y-66011766D01*
X139674000Y-65871506D01*
X139674000Y-65728494D01*
X139701899Y-65588234D01*
X139756626Y-65456112D01*
X139836078Y-65337204D01*
X139836079Y-65337202D01*
X139937202Y-65236079D01*
X140056110Y-65156627D01*
X140056112Y-65156626D01*
X140188234Y-65101899D01*
X140328494Y-65074000D01*
X140471506Y-65074000D01*
X140611766Y-65101899D01*
G37*
G36*
X136611766Y-65101899D02*
G01*
X136743888Y-65156626D01*
X136743890Y-65156627D01*
X136862798Y-65236079D01*
X136963921Y-65337202D01*
X136963922Y-65337204D01*
X137043374Y-65456112D01*
X137098101Y-65588234D01*
X137126000Y-65728494D01*
X137126000Y-65871506D01*
X137098101Y-66011766D01*
X137045405Y-66138985D01*
X137043373Y-66143890D01*
X136963921Y-66262798D01*
X136862798Y-66363921D01*
X136743890Y-66443373D01*
X136743889Y-66443374D01*
X136743888Y-66443374D01*
X136611766Y-66498101D01*
X136471506Y-66526000D01*
X136328494Y-66526000D01*
X136188234Y-66498101D01*
X136056112Y-66443374D01*
X136056111Y-66443374D01*
X136056110Y-66443373D01*
X135937202Y-66363921D01*
X135836079Y-66262798D01*
X135756627Y-66143890D01*
X135754595Y-66138985D01*
X135701899Y-66011766D01*
X135674000Y-65871506D01*
X135674000Y-65728494D01*
X135701899Y-65588234D01*
X135756626Y-65456112D01*
X135836078Y-65337204D01*
X135836079Y-65337202D01*
X135937202Y-65236079D01*
X136056110Y-65156627D01*
X136056112Y-65156626D01*
X136188234Y-65101899D01*
X136328494Y-65074000D01*
X136471506Y-65074000D01*
X136611766Y-65101899D01*
G37*
G36*
X142611766Y-65101899D02*
G01*
X142743888Y-65156626D01*
X142743890Y-65156627D01*
X142862798Y-65236079D01*
X142963921Y-65337202D01*
X142963922Y-65337204D01*
X143043374Y-65456112D01*
X143098101Y-65588234D01*
X143126000Y-65728494D01*
X143126000Y-65871506D01*
X143098101Y-66011766D01*
X143045405Y-66138985D01*
X143043373Y-66143890D01*
X142963921Y-66262798D01*
X142862798Y-66363921D01*
X142743890Y-66443373D01*
X142743889Y-66443374D01*
X142743888Y-66443374D01*
X142611766Y-66498101D01*
X142471506Y-66526000D01*
X142328494Y-66526000D01*
X142188234Y-66498101D01*
X142056112Y-66443374D01*
X142056111Y-66443374D01*
X142056110Y-66443373D01*
X141937202Y-66363921D01*
X141836079Y-66262798D01*
X141756627Y-66143890D01*
X141754595Y-66138985D01*
X141701899Y-66011766D01*
X141674000Y-65871506D01*
X141674000Y-65728494D01*
X141701899Y-65588234D01*
X141756626Y-65456112D01*
X141836078Y-65337204D01*
X141836079Y-65337202D01*
X141937202Y-65236079D01*
X142056110Y-65156627D01*
X142056112Y-65156626D01*
X142188234Y-65101899D01*
X142328494Y-65074000D01*
X142471506Y-65074000D01*
X142611766Y-65101899D01*
G37*
G36*
X130611766Y-65101899D02*
G01*
X130743888Y-65156626D01*
X130743890Y-65156627D01*
X130862798Y-65236079D01*
X130963921Y-65337202D01*
X130963922Y-65337204D01*
X131043374Y-65456112D01*
X131098101Y-65588234D01*
X131126000Y-65728494D01*
X131126000Y-65871506D01*
X131098101Y-66011766D01*
X131045405Y-66138985D01*
X131043373Y-66143890D01*
X130963921Y-66262798D01*
X130862798Y-66363921D01*
X130743890Y-66443373D01*
X130743889Y-66443374D01*
X130743888Y-66443374D01*
X130611766Y-66498101D01*
X130471506Y-66526000D01*
X130328494Y-66526000D01*
X130188234Y-66498101D01*
X130056112Y-66443374D01*
X130056111Y-66443374D01*
X130056110Y-66443373D01*
X129937202Y-66363921D01*
X129836079Y-66262798D01*
X129756627Y-66143890D01*
X129754595Y-66138985D01*
X129701899Y-66011766D01*
X129674000Y-65871506D01*
X129674000Y-65728494D01*
X129701899Y-65588234D01*
X129756626Y-65456112D01*
X129836078Y-65337204D01*
X129836079Y-65337202D01*
X129937202Y-65236079D01*
X130056110Y-65156627D01*
X130056112Y-65156626D01*
X130188234Y-65101899D01*
X130328494Y-65074000D01*
X130471506Y-65074000D01*
X130611766Y-65101899D01*
G37*
G36*
X128611766Y-65101899D02*
G01*
X128743888Y-65156626D01*
X128743890Y-65156627D01*
X128862798Y-65236079D01*
X128963921Y-65337202D01*
X128963922Y-65337204D01*
X129043374Y-65456112D01*
X129098101Y-65588234D01*
X129126000Y-65728494D01*
X129126000Y-65871506D01*
X129098101Y-66011766D01*
X129045405Y-66138985D01*
X129043373Y-66143890D01*
X128963921Y-66262798D01*
X128862798Y-66363921D01*
X128743890Y-66443373D01*
X128743889Y-66443374D01*
X128743888Y-66443374D01*
X128611766Y-66498101D01*
X128471506Y-66526000D01*
X128328494Y-66526000D01*
X128188234Y-66498101D01*
X128056112Y-66443374D01*
X128056111Y-66443374D01*
X128056110Y-66443373D01*
X127937202Y-66363921D01*
X127836079Y-66262798D01*
X127756627Y-66143890D01*
X127754595Y-66138985D01*
X127701899Y-66011766D01*
X127674000Y-65871506D01*
X127674000Y-65728494D01*
X127701899Y-65588234D01*
X127756626Y-65456112D01*
X127836078Y-65337204D01*
X127836079Y-65337202D01*
X127937202Y-65236079D01*
X128056110Y-65156627D01*
X128056112Y-65156626D01*
X128188234Y-65101899D01*
X128328494Y-65074000D01*
X128471506Y-65074000D01*
X128611766Y-65101899D01*
G37*
G36*
X144611766Y-65101899D02*
G01*
X144743888Y-65156626D01*
X144743890Y-65156627D01*
X144862798Y-65236079D01*
X144963921Y-65337202D01*
X144963922Y-65337204D01*
X145043374Y-65456112D01*
X145098101Y-65588234D01*
X145126000Y-65728494D01*
X145126000Y-65871506D01*
X145098101Y-66011766D01*
X145045405Y-66138985D01*
X145043373Y-66143890D01*
X144963921Y-66262798D01*
X144862798Y-66363921D01*
X144743890Y-66443373D01*
X144743889Y-66443374D01*
X144743888Y-66443374D01*
X144611766Y-66498101D01*
X144471506Y-66526000D01*
X144328494Y-66526000D01*
X144188234Y-66498101D01*
X144056112Y-66443374D01*
X144056111Y-66443374D01*
X144056110Y-66443373D01*
X143937202Y-66363921D01*
X143836079Y-66262798D01*
X143756627Y-66143890D01*
X143754595Y-66138985D01*
X143701899Y-66011766D01*
X143674000Y-65871506D01*
X143674000Y-65728494D01*
X143701899Y-65588234D01*
X143756626Y-65456112D01*
X143836078Y-65337204D01*
X143836079Y-65337202D01*
X143937202Y-65236079D01*
X144056110Y-65156627D01*
X144056112Y-65156626D01*
X144188234Y-65101899D01*
X144328494Y-65074000D01*
X144471506Y-65074000D01*
X144611766Y-65101899D01*
G37*
G36*
X146611766Y-65101899D02*
G01*
X146743888Y-65156626D01*
X146743890Y-65156627D01*
X146862798Y-65236079D01*
X146963921Y-65337202D01*
X146963922Y-65337204D01*
X147043374Y-65456112D01*
X147098101Y-65588234D01*
X147126000Y-65728494D01*
X147126000Y-65871506D01*
X147098101Y-66011766D01*
X147045405Y-66138985D01*
X147043373Y-66143890D01*
X146963921Y-66262798D01*
X146862798Y-66363921D01*
X146743890Y-66443373D01*
X146743889Y-66443374D01*
X146743888Y-66443374D01*
X146611766Y-66498101D01*
X146471506Y-66526000D01*
X146328494Y-66526000D01*
X146188234Y-66498101D01*
X146056112Y-66443374D01*
X146056111Y-66443374D01*
X146056110Y-66443373D01*
X145937202Y-66363921D01*
X145836079Y-66262798D01*
X145756627Y-66143890D01*
X145754595Y-66138985D01*
X145701899Y-66011766D01*
X145674000Y-65871506D01*
X145674000Y-65728494D01*
X145701899Y-65588234D01*
X145756626Y-65456112D01*
X145836078Y-65337204D01*
X145836079Y-65337202D01*
X145937202Y-65236079D01*
X146056110Y-65156627D01*
X146056112Y-65156626D01*
X146188234Y-65101899D01*
X146328494Y-65074000D01*
X146471506Y-65074000D01*
X146611766Y-65101899D01*
G37*
G36*
X132611766Y-65101899D02*
G01*
X132743888Y-65156626D01*
X132743890Y-65156627D01*
X132862798Y-65236079D01*
X132963921Y-65337202D01*
X132963922Y-65337204D01*
X133043374Y-65456112D01*
X133098101Y-65588234D01*
X133126000Y-65728494D01*
X133126000Y-65871506D01*
X133098101Y-66011766D01*
X133045405Y-66138985D01*
X133043373Y-66143890D01*
X132963921Y-66262798D01*
X132862798Y-66363921D01*
X132743890Y-66443373D01*
X132743889Y-66443374D01*
X132743888Y-66443374D01*
X132611766Y-66498101D01*
X132471506Y-66526000D01*
X132328494Y-66526000D01*
X132188234Y-66498101D01*
X132056112Y-66443374D01*
X132056111Y-66443374D01*
X132056110Y-66443373D01*
X131937202Y-66363921D01*
X131836079Y-66262798D01*
X131756627Y-66143890D01*
X131754595Y-66138985D01*
X131701899Y-66011766D01*
X131674000Y-65871506D01*
X131674000Y-65728494D01*
X131701899Y-65588234D01*
X131756626Y-65456112D01*
X131836078Y-65337204D01*
X131836079Y-65337202D01*
X131937202Y-65236079D01*
X132056110Y-65156627D01*
X132056112Y-65156626D01*
X132188234Y-65101899D01*
X132328494Y-65074000D01*
X132471506Y-65074000D01*
X132611766Y-65101899D01*
G37*
G36*
X138611766Y-63101899D02*
G01*
X138743888Y-63156626D01*
X138743890Y-63156627D01*
X138862798Y-63236079D01*
X138963921Y-63337202D01*
X139043373Y-63456110D01*
X139043374Y-63456112D01*
X139098101Y-63588234D01*
X139126000Y-63728494D01*
X139126000Y-63871506D01*
X139098101Y-64011766D01*
X139053975Y-64118295D01*
X139043373Y-64143890D01*
X138963921Y-64262798D01*
X138862798Y-64363921D01*
X138743890Y-64443373D01*
X138743889Y-64443374D01*
X138743888Y-64443374D01*
X138611766Y-64498101D01*
X138471506Y-64526000D01*
X138328494Y-64526000D01*
X138188234Y-64498101D01*
X138056112Y-64443374D01*
X138056111Y-64443374D01*
X138056110Y-64443373D01*
X137937202Y-64363921D01*
X137836079Y-64262798D01*
X137756627Y-64143890D01*
X137746025Y-64118295D01*
X137701899Y-64011766D01*
X137674000Y-63871506D01*
X137674000Y-63728494D01*
X137701899Y-63588234D01*
X137756626Y-63456112D01*
X137756627Y-63456110D01*
X137836079Y-63337202D01*
X137937202Y-63236079D01*
X138056110Y-63156627D01*
X138056112Y-63156626D01*
X138188234Y-63101899D01*
X138328494Y-63074000D01*
X138471506Y-63074000D01*
X138611766Y-63101899D01*
G37*
G36*
X130611766Y-63101899D02*
G01*
X130743888Y-63156626D01*
X130743890Y-63156627D01*
X130862798Y-63236079D01*
X130963921Y-63337202D01*
X131043373Y-63456110D01*
X131043374Y-63456112D01*
X131098101Y-63588234D01*
X131126000Y-63728494D01*
X131126000Y-63871506D01*
X131098101Y-64011766D01*
X131053975Y-64118295D01*
X131043373Y-64143890D01*
X130963921Y-64262798D01*
X130862798Y-64363921D01*
X130743890Y-64443373D01*
X130743889Y-64443374D01*
X130743888Y-64443374D01*
X130611766Y-64498101D01*
X130471506Y-64526000D01*
X130328494Y-64526000D01*
X130188234Y-64498101D01*
X130056112Y-64443374D01*
X130056111Y-64443374D01*
X130056110Y-64443373D01*
X129937202Y-64363921D01*
X129836079Y-64262798D01*
X129756627Y-64143890D01*
X129746025Y-64118295D01*
X129701899Y-64011766D01*
X129674000Y-63871506D01*
X129674000Y-63728494D01*
X129701899Y-63588234D01*
X129756626Y-63456112D01*
X129756627Y-63456110D01*
X129836079Y-63337202D01*
X129937202Y-63236079D01*
X130056110Y-63156627D01*
X130056112Y-63156626D01*
X130188234Y-63101899D01*
X130328494Y-63074000D01*
X130471506Y-63074000D01*
X130611766Y-63101899D01*
G37*
G36*
X140611766Y-63101899D02*
G01*
X140743888Y-63156626D01*
X140743890Y-63156627D01*
X140862798Y-63236079D01*
X140963921Y-63337202D01*
X141043373Y-63456110D01*
X141043374Y-63456112D01*
X141098101Y-63588234D01*
X141126000Y-63728494D01*
X141126000Y-63871506D01*
X141098101Y-64011766D01*
X141053975Y-64118295D01*
X141043373Y-64143890D01*
X140963921Y-64262798D01*
X140862798Y-64363921D01*
X140743890Y-64443373D01*
X140743889Y-64443374D01*
X140743888Y-64443374D01*
X140611766Y-64498101D01*
X140471506Y-64526000D01*
X140328494Y-64526000D01*
X140188234Y-64498101D01*
X140056112Y-64443374D01*
X140056111Y-64443374D01*
X140056110Y-64443373D01*
X139937202Y-64363921D01*
X139836079Y-64262798D01*
X139756627Y-64143890D01*
X139746025Y-64118295D01*
X139701899Y-64011766D01*
X139674000Y-63871506D01*
X139674000Y-63728494D01*
X139701899Y-63588234D01*
X139756626Y-63456112D01*
X139756627Y-63456110D01*
X139836079Y-63337202D01*
X139937202Y-63236079D01*
X140056110Y-63156627D01*
X140056112Y-63156626D01*
X140188234Y-63101899D01*
X140328494Y-63074000D01*
X140471506Y-63074000D01*
X140611766Y-63101899D01*
G37*
G36*
X132611766Y-63101899D02*
G01*
X132743888Y-63156626D01*
X132743890Y-63156627D01*
X132862798Y-63236079D01*
X132963921Y-63337202D01*
X133043373Y-63456110D01*
X133043374Y-63456112D01*
X133098101Y-63588234D01*
X133126000Y-63728494D01*
X133126000Y-63871506D01*
X133098101Y-64011766D01*
X133053975Y-64118295D01*
X133043373Y-64143890D01*
X132963921Y-64262798D01*
X132862798Y-64363921D01*
X132743890Y-64443373D01*
X132743889Y-64443374D01*
X132743888Y-64443374D01*
X132611766Y-64498101D01*
X132471506Y-64526000D01*
X132328494Y-64526000D01*
X132188234Y-64498101D01*
X132056112Y-64443374D01*
X132056111Y-64443374D01*
X132056110Y-64443373D01*
X131937202Y-64363921D01*
X131836079Y-64262798D01*
X131756627Y-64143890D01*
X131746025Y-64118295D01*
X131701899Y-64011766D01*
X131674000Y-63871506D01*
X131674000Y-63728494D01*
X131701899Y-63588234D01*
X131756626Y-63456112D01*
X131756627Y-63456110D01*
X131836079Y-63337202D01*
X131937202Y-63236079D01*
X132056110Y-63156627D01*
X132056112Y-63156626D01*
X132188234Y-63101899D01*
X132328494Y-63074000D01*
X132471506Y-63074000D01*
X132611766Y-63101899D01*
G37*
G36*
X136611766Y-63101899D02*
G01*
X136743888Y-63156626D01*
X136743890Y-63156627D01*
X136862798Y-63236079D01*
X136963921Y-63337202D01*
X137043373Y-63456110D01*
X137043374Y-63456112D01*
X137098101Y-63588234D01*
X137126000Y-63728494D01*
X137126000Y-63871506D01*
X137098101Y-64011766D01*
X137053975Y-64118295D01*
X137043373Y-64143890D01*
X136963921Y-64262798D01*
X136862798Y-64363921D01*
X136743890Y-64443373D01*
X136743889Y-64443374D01*
X136743888Y-64443374D01*
X136611766Y-64498101D01*
X136471506Y-64526000D01*
X136328494Y-64526000D01*
X136188234Y-64498101D01*
X136056112Y-64443374D01*
X136056111Y-64443374D01*
X136056110Y-64443373D01*
X135937202Y-64363921D01*
X135836079Y-64262798D01*
X135756627Y-64143890D01*
X135746025Y-64118295D01*
X135701899Y-64011766D01*
X135674000Y-63871506D01*
X135674000Y-63728494D01*
X135701899Y-63588234D01*
X135756626Y-63456112D01*
X135756627Y-63456110D01*
X135836079Y-63337202D01*
X135937202Y-63236079D01*
X136056110Y-63156627D01*
X136056112Y-63156626D01*
X136188234Y-63101899D01*
X136328494Y-63074000D01*
X136471506Y-63074000D01*
X136611766Y-63101899D01*
G37*
G36*
X134611766Y-63101899D02*
G01*
X134743888Y-63156626D01*
X134743890Y-63156627D01*
X134862798Y-63236079D01*
X134963921Y-63337202D01*
X135043373Y-63456110D01*
X135043374Y-63456112D01*
X135098101Y-63588234D01*
X135126000Y-63728494D01*
X135126000Y-63871506D01*
X135098101Y-64011766D01*
X135053975Y-64118295D01*
X135043373Y-64143890D01*
X134963921Y-64262798D01*
X134862798Y-64363921D01*
X134743890Y-64443373D01*
X134743889Y-64443374D01*
X134743888Y-64443374D01*
X134611766Y-64498101D01*
X134471506Y-64526000D01*
X134328494Y-64526000D01*
X134188234Y-64498101D01*
X134056112Y-64443374D01*
X134056111Y-64443374D01*
X134056110Y-64443373D01*
X133937202Y-64363921D01*
X133836079Y-64262798D01*
X133756627Y-64143890D01*
X133746025Y-64118295D01*
X133701899Y-64011766D01*
X133674000Y-63871506D01*
X133674000Y-63728494D01*
X133701899Y-63588234D01*
X133756626Y-63456112D01*
X133756627Y-63456110D01*
X133836079Y-63337202D01*
X133937202Y-63236079D01*
X134056110Y-63156627D01*
X134056112Y-63156626D01*
X134188234Y-63101899D01*
X134328494Y-63074000D01*
X134471506Y-63074000D01*
X134611766Y-63101899D01*
G37*
G36*
X129126000Y-64526000D02*
G01*
X127674000Y-64526000D01*
X127674000Y-63074000D01*
X129126000Y-63074000D01*
X129126000Y-64526000D01*
G37*
G36*
X146611766Y-63101899D02*
G01*
X146743888Y-63156626D01*
X146743890Y-63156627D01*
X146862798Y-63236079D01*
X146963921Y-63337202D01*
X147043373Y-63456110D01*
X147043374Y-63456112D01*
X147098101Y-63588234D01*
X147126000Y-63728494D01*
X147126000Y-63871506D01*
X147098101Y-64011766D01*
X147053975Y-64118295D01*
X147043373Y-64143890D01*
X146963921Y-64262798D01*
X146862798Y-64363921D01*
X146743890Y-64443373D01*
X146743889Y-64443374D01*
X146743888Y-64443374D01*
X146611766Y-64498101D01*
X146471506Y-64526000D01*
X146328494Y-64526000D01*
X146188234Y-64498101D01*
X146056112Y-64443374D01*
X146056111Y-64443374D01*
X146056110Y-64443373D01*
X145937202Y-64363921D01*
X145836079Y-64262798D01*
X145756627Y-64143890D01*
X145746025Y-64118295D01*
X145701899Y-64011766D01*
X145674000Y-63871506D01*
X145674000Y-63728494D01*
X145701899Y-63588234D01*
X145756626Y-63456112D01*
X145756627Y-63456110D01*
X145836079Y-63337202D01*
X145937202Y-63236079D01*
X146056110Y-63156627D01*
X146056112Y-63156626D01*
X146188234Y-63101899D01*
X146328494Y-63074000D01*
X146471506Y-63074000D01*
X146611766Y-63101899D01*
G37*
G36*
X144611766Y-63101899D02*
G01*
X144743888Y-63156626D01*
X144743890Y-63156627D01*
X144862798Y-63236079D01*
X144963921Y-63337202D01*
X145043373Y-63456110D01*
X145043374Y-63456112D01*
X145098101Y-63588234D01*
X145126000Y-63728494D01*
X145126000Y-63871506D01*
X145098101Y-64011766D01*
X145053975Y-64118295D01*
X145043373Y-64143890D01*
X144963921Y-64262798D01*
X144862798Y-64363921D01*
X144743890Y-64443373D01*
X144743889Y-64443374D01*
X144743888Y-64443374D01*
X144611766Y-64498101D01*
X144471506Y-64526000D01*
X144328494Y-64526000D01*
X144188234Y-64498101D01*
X144056112Y-64443374D01*
X144056111Y-64443374D01*
X144056110Y-64443373D01*
X143937202Y-64363921D01*
X143836079Y-64262798D01*
X143756627Y-64143890D01*
X143746025Y-64118295D01*
X143701899Y-64011766D01*
X143674000Y-63871506D01*
X143674000Y-63728494D01*
X143701899Y-63588234D01*
X143756626Y-63456112D01*
X143756627Y-63456110D01*
X143836079Y-63337202D01*
X143937202Y-63236079D01*
X144056110Y-63156627D01*
X144056112Y-63156626D01*
X144188234Y-63101899D01*
X144328494Y-63074000D01*
X144471506Y-63074000D01*
X144611766Y-63101899D01*
G37*
G36*
X142611766Y-63101899D02*
G01*
X142743888Y-63156626D01*
X142743890Y-63156627D01*
X142862798Y-63236079D01*
X142963921Y-63337202D01*
X143043373Y-63456110D01*
X143043374Y-63456112D01*
X143098101Y-63588234D01*
X143126000Y-63728494D01*
X143126000Y-63871506D01*
X143098101Y-64011766D01*
X143053975Y-64118295D01*
X143043373Y-64143890D01*
X142963921Y-64262798D01*
X142862798Y-64363921D01*
X142743890Y-64443373D01*
X142743889Y-64443374D01*
X142743888Y-64443374D01*
X142611766Y-64498101D01*
X142471506Y-64526000D01*
X142328494Y-64526000D01*
X142188234Y-64498101D01*
X142056112Y-64443374D01*
X142056111Y-64443374D01*
X142056110Y-64443373D01*
X141937202Y-64363921D01*
X141836079Y-64262798D01*
X141756627Y-64143890D01*
X141746025Y-64118295D01*
X141701899Y-64011766D01*
X141674000Y-63871506D01*
X141674000Y-63728494D01*
X141701899Y-63588234D01*
X141756626Y-63456112D01*
X141756627Y-63456110D01*
X141836079Y-63337202D01*
X141937202Y-63236079D01*
X142056110Y-63156627D01*
X142056112Y-63156626D01*
X142188234Y-63101899D01*
X142328494Y-63074000D01*
X142471506Y-63074000D01*
X142611766Y-63101899D01*
G37*
G36*
X180068228Y-62481703D02*
G01*
X180223100Y-62545853D01*
X180362481Y-62638985D01*
X180481015Y-62757519D01*
X180574147Y-62896900D01*
X180638297Y-63051772D01*
X180671000Y-63216184D01*
X180671000Y-63383816D01*
X180638297Y-63548228D01*
X180574147Y-63703100D01*
X180481015Y-63842481D01*
X180362481Y-63961015D01*
X180223100Y-64054147D01*
X180068228Y-64118297D01*
X179903816Y-64151000D01*
X179736184Y-64151000D01*
X179571772Y-64118297D01*
X179416900Y-64054147D01*
X179277519Y-63961015D01*
X179158985Y-63842481D01*
X179065853Y-63703100D01*
X179001703Y-63548228D01*
X178969000Y-63383816D01*
X178969000Y-63216184D01*
X179001703Y-63051772D01*
X179065853Y-62896900D01*
X179158985Y-62757519D01*
X179277519Y-62638985D01*
X179416900Y-62545853D01*
X179571772Y-62481703D01*
X179736184Y-62449000D01*
X179903816Y-62449000D01*
X180068228Y-62481703D01*
G37*
G36*
X172448228Y-62481703D02*
G01*
X172603100Y-62545853D01*
X172742481Y-62638985D01*
X172861015Y-62757519D01*
X172954147Y-62896900D01*
X173018297Y-63051772D01*
X173051000Y-63216184D01*
X173051000Y-63383816D01*
X173018297Y-63548228D01*
X172954147Y-63703100D01*
X172861015Y-63842481D01*
X172742481Y-63961015D01*
X172603100Y-64054147D01*
X172448228Y-64118297D01*
X172283816Y-64151000D01*
X172116184Y-64151000D01*
X171951772Y-64118297D01*
X171796900Y-64054147D01*
X171657519Y-63961015D01*
X171538985Y-63842481D01*
X171445853Y-63703100D01*
X171381703Y-63548228D01*
X171349000Y-63383816D01*
X171349000Y-63216184D01*
X171381703Y-63051772D01*
X171445853Y-62896900D01*
X171538985Y-62757519D01*
X171657519Y-62638985D01*
X171796900Y-62545853D01*
X171951772Y-62481703D01*
X172116184Y-62449000D01*
X172283816Y-62449000D01*
X172448228Y-62481703D01*
G37*
G36*
X216201000Y-62101000D02*
G01*
X213299000Y-62101000D01*
X213299000Y-59199000D01*
X216201000Y-59199000D01*
X216201000Y-62101000D01*
G37*
G36*
X180068228Y-59941703D02*
G01*
X180223100Y-60005853D01*
X180362481Y-60098985D01*
X180481015Y-60217519D01*
X180574147Y-60356900D01*
X180638297Y-60511772D01*
X180671000Y-60676184D01*
X180671000Y-60843816D01*
X180638297Y-61008228D01*
X180574147Y-61163100D01*
X180481015Y-61302481D01*
X180362481Y-61421015D01*
X180223100Y-61514147D01*
X180068228Y-61578297D01*
X179903816Y-61611000D01*
X179736184Y-61611000D01*
X179571772Y-61578297D01*
X179416900Y-61514147D01*
X179277519Y-61421015D01*
X179158985Y-61302481D01*
X179065853Y-61163100D01*
X179001703Y-61008228D01*
X178969000Y-60843816D01*
X178969000Y-60676184D01*
X179001703Y-60511772D01*
X179065853Y-60356900D01*
X179158985Y-60217519D01*
X179277519Y-60098985D01*
X179416900Y-60005853D01*
X179571772Y-59941703D01*
X179736184Y-59909000D01*
X179903816Y-59909000D01*
X180068228Y-59941703D01*
G37*
G36*
X172448228Y-59941703D02*
G01*
X172603100Y-60005853D01*
X172742481Y-60098985D01*
X172861015Y-60217519D01*
X172954147Y-60356900D01*
X173018297Y-60511772D01*
X173051000Y-60676184D01*
X173051000Y-60843816D01*
X173018297Y-61008228D01*
X172954147Y-61163100D01*
X172861015Y-61302481D01*
X172742481Y-61421015D01*
X172603100Y-61514147D01*
X172448228Y-61578297D01*
X172283816Y-61611000D01*
X172116184Y-61611000D01*
X171951772Y-61578297D01*
X171796900Y-61514147D01*
X171657519Y-61421015D01*
X171538985Y-61302481D01*
X171445853Y-61163100D01*
X171381703Y-61008228D01*
X171349000Y-60843816D01*
X171349000Y-60676184D01*
X171381703Y-60511772D01*
X171445853Y-60356900D01*
X171538985Y-60217519D01*
X171657519Y-60098985D01*
X171796900Y-60005853D01*
X171951772Y-59941703D01*
X172116184Y-59909000D01*
X172283816Y-59909000D01*
X172448228Y-59941703D01*
G37*
G36*
X153023228Y-59206703D02*
G01*
X153178100Y-59270853D01*
X153317481Y-59363985D01*
X153436015Y-59482519D01*
X153529147Y-59621900D01*
X153593297Y-59776772D01*
X153626000Y-59941184D01*
X153626000Y-60108816D01*
X153593297Y-60273228D01*
X153529147Y-60428100D01*
X153436015Y-60567481D01*
X153317481Y-60686015D01*
X153178100Y-60779147D01*
X153023228Y-60843297D01*
X152858816Y-60876000D01*
X152691184Y-60876000D01*
X152526772Y-60843297D01*
X152371900Y-60779147D01*
X152232519Y-60686015D01*
X152113985Y-60567481D01*
X152020853Y-60428100D01*
X151956703Y-60273228D01*
X151924000Y-60108816D01*
X151924000Y-59941184D01*
X151956703Y-59776772D01*
X152020853Y-59621900D01*
X152113985Y-59482519D01*
X152232519Y-59363985D01*
X152371900Y-59270853D01*
X152526772Y-59206703D01*
X152691184Y-59174000D01*
X152858816Y-59174000D01*
X153023228Y-59206703D01*
G37*
G36*
X172448228Y-57401703D02*
G01*
X172603100Y-57465853D01*
X172742481Y-57558985D01*
X172861015Y-57677519D01*
X172954147Y-57816900D01*
X173018297Y-57971772D01*
X173051000Y-58136184D01*
X173051000Y-58303816D01*
X173018297Y-58468228D01*
X172954147Y-58623100D01*
X172861015Y-58762481D01*
X172742481Y-58881015D01*
X172603100Y-58974147D01*
X172448228Y-59038297D01*
X172283816Y-59071000D01*
X172116184Y-59071000D01*
X171951772Y-59038297D01*
X171796900Y-58974147D01*
X171657519Y-58881015D01*
X171538985Y-58762481D01*
X171445853Y-58623100D01*
X171381703Y-58468228D01*
X171349000Y-58303816D01*
X171349000Y-58136184D01*
X171381703Y-57971772D01*
X171445853Y-57816900D01*
X171538985Y-57677519D01*
X171657519Y-57558985D01*
X171796900Y-57465853D01*
X171951772Y-57401703D01*
X172116184Y-57369000D01*
X172283816Y-57369000D01*
X172448228Y-57401703D01*
G37*
G36*
X180068228Y-57401703D02*
G01*
X180223100Y-57465853D01*
X180362481Y-57558985D01*
X180481015Y-57677519D01*
X180574147Y-57816900D01*
X180638297Y-57971772D01*
X180671000Y-58136184D01*
X180671000Y-58303816D01*
X180638297Y-58468228D01*
X180574147Y-58623100D01*
X180481015Y-58762481D01*
X180362481Y-58881015D01*
X180223100Y-58974147D01*
X180068228Y-59038297D01*
X179903816Y-59071000D01*
X179736184Y-59071000D01*
X179571772Y-59038297D01*
X179416900Y-58974147D01*
X179277519Y-58881015D01*
X179158985Y-58762481D01*
X179065853Y-58623100D01*
X179001703Y-58468228D01*
X178969000Y-58303816D01*
X178969000Y-58136184D01*
X179001703Y-57971772D01*
X179065853Y-57816900D01*
X179158985Y-57677519D01*
X179277519Y-57558985D01*
X179416900Y-57465853D01*
X179571772Y-57401703D01*
X179736184Y-57369000D01*
X179903816Y-57369000D01*
X180068228Y-57401703D01*
G37*
G36*
X202551000Y-59051000D02*
G01*
X200649000Y-59051000D01*
X200649000Y-57149000D01*
X202551000Y-57149000D01*
X202551000Y-59051000D01*
G37*
G36*
X209051000Y-58951000D02*
G01*
X207149000Y-58951000D01*
X207149000Y-57049000D01*
X209051000Y-57049000D01*
X209051000Y-58951000D01*
G37*
G36*
X188148228Y-56381703D02*
G01*
X188303100Y-56445853D01*
X188442481Y-56538985D01*
X188561015Y-56657519D01*
X188654147Y-56796900D01*
X188718297Y-56951772D01*
X188751000Y-57116184D01*
X188751000Y-57283816D01*
X188718297Y-57448228D01*
X188654147Y-57603100D01*
X188561015Y-57742481D01*
X188442481Y-57861015D01*
X188303100Y-57954147D01*
X188148228Y-58018297D01*
X187983816Y-58051000D01*
X187816184Y-58051000D01*
X187651772Y-58018297D01*
X187496900Y-57954147D01*
X187357519Y-57861015D01*
X187238985Y-57742481D01*
X187145853Y-57603100D01*
X187081703Y-57448228D01*
X187049000Y-57283816D01*
X187049000Y-57116184D01*
X187081703Y-56951772D01*
X187145853Y-56796900D01*
X187238985Y-56657519D01*
X187357519Y-56538985D01*
X187496900Y-56445853D01*
X187651772Y-56381703D01*
X187816184Y-56349000D01*
X187983816Y-56349000D01*
X188148228Y-56381703D01*
G37*
G36*
X195768228Y-56381703D02*
G01*
X195923100Y-56445853D01*
X196062481Y-56538985D01*
X196181015Y-56657519D01*
X196274147Y-56796900D01*
X196338297Y-56951772D01*
X196371000Y-57116184D01*
X196371000Y-57283816D01*
X196338297Y-57448228D01*
X196274147Y-57603100D01*
X196181015Y-57742481D01*
X196062481Y-57861015D01*
X195923100Y-57954147D01*
X195768228Y-58018297D01*
X195603816Y-58051000D01*
X195436184Y-58051000D01*
X195271772Y-58018297D01*
X195116900Y-57954147D01*
X194977519Y-57861015D01*
X194858985Y-57742481D01*
X194765853Y-57603100D01*
X194701703Y-57448228D01*
X194669000Y-57283816D01*
X194669000Y-57116184D01*
X194701703Y-56951772D01*
X194765853Y-56796900D01*
X194858985Y-56657519D01*
X194977519Y-56538985D01*
X195116900Y-56445853D01*
X195271772Y-56381703D01*
X195436184Y-56349000D01*
X195603816Y-56349000D01*
X195768228Y-56381703D01*
G37*
G36*
X172448228Y-54861703D02*
G01*
X172603100Y-54925853D01*
X172742481Y-55018985D01*
X172861015Y-55137519D01*
X172954147Y-55276900D01*
X173018297Y-55431772D01*
X173051000Y-55596184D01*
X173051000Y-55763816D01*
X173018297Y-55928228D01*
X172954147Y-56083100D01*
X172861015Y-56222481D01*
X172742481Y-56341015D01*
X172603100Y-56434147D01*
X172448228Y-56498297D01*
X172283816Y-56531000D01*
X172116184Y-56531000D01*
X171951772Y-56498297D01*
X171796900Y-56434147D01*
X171657519Y-56341015D01*
X171538985Y-56222481D01*
X171445853Y-56083100D01*
X171381703Y-55928228D01*
X171349000Y-55763816D01*
X171349000Y-55596184D01*
X171381703Y-55431772D01*
X171445853Y-55276900D01*
X171538985Y-55137519D01*
X171657519Y-55018985D01*
X171796900Y-54925853D01*
X171951772Y-54861703D01*
X172116184Y-54829000D01*
X172283816Y-54829000D01*
X172448228Y-54861703D01*
G37*
G36*
X180068228Y-54861703D02*
G01*
X180223100Y-54925853D01*
X180362481Y-55018985D01*
X180481015Y-55137519D01*
X180574147Y-55276900D01*
X180638297Y-55431772D01*
X180671000Y-55596184D01*
X180671000Y-55763816D01*
X180638297Y-55928228D01*
X180574147Y-56083100D01*
X180481015Y-56222481D01*
X180362481Y-56341015D01*
X180223100Y-56434147D01*
X180068228Y-56498297D01*
X179903816Y-56531000D01*
X179736184Y-56531000D01*
X179571772Y-56498297D01*
X179416900Y-56434147D01*
X179277519Y-56341015D01*
X179158985Y-56222481D01*
X179065853Y-56083100D01*
X179001703Y-55928228D01*
X178969000Y-55763816D01*
X178969000Y-55596184D01*
X179001703Y-55431772D01*
X179065853Y-55276900D01*
X179158985Y-55137519D01*
X179277519Y-55018985D01*
X179416900Y-54925853D01*
X179571772Y-54861703D01*
X179736184Y-54829000D01*
X179903816Y-54829000D01*
X180068228Y-54861703D01*
G37*
G36*
X201877395Y-54645546D02*
G01*
X202050466Y-54717234D01*
X202056566Y-54721310D01*
X202206227Y-54821310D01*
X202338690Y-54953773D01*
X202338691Y-54953775D01*
X202442766Y-55109534D01*
X202514454Y-55282605D01*
X202551000Y-55466333D01*
X202551000Y-55653667D01*
X202514454Y-55837395D01*
X202442766Y-56010466D01*
X202442765Y-56010467D01*
X202338690Y-56166227D01*
X202206227Y-56298690D01*
X202142883Y-56341015D01*
X202050466Y-56402766D01*
X201877395Y-56474454D01*
X201693667Y-56511000D01*
X201506333Y-56511000D01*
X201322605Y-56474454D01*
X201149534Y-56402766D01*
X201057117Y-56341015D01*
X200993773Y-56298690D01*
X200861310Y-56166227D01*
X200757235Y-56010467D01*
X200757234Y-56010466D01*
X200685546Y-55837395D01*
X200649000Y-55653667D01*
X200649000Y-55466333D01*
X200685546Y-55282605D01*
X200757234Y-55109534D01*
X200861309Y-54953775D01*
X200861310Y-54953773D01*
X200993773Y-54821310D01*
X201143434Y-54721310D01*
X201149534Y-54717234D01*
X201322605Y-54645546D01*
X201506333Y-54609000D01*
X201693667Y-54609000D01*
X201877395Y-54645546D01*
G37*
G36*
X208377395Y-54545546D02*
G01*
X208550466Y-54617234D01*
X208550467Y-54617235D01*
X208706227Y-54721310D01*
X208838690Y-54853773D01*
X208843990Y-54861705D01*
X208942766Y-55009534D01*
X209014454Y-55182605D01*
X209051000Y-55366333D01*
X209051000Y-55553667D01*
X209014454Y-55737395D01*
X208942766Y-55910466D01*
X208942765Y-55910467D01*
X208838690Y-56066227D01*
X208706227Y-56198690D01*
X208670621Y-56222481D01*
X208550466Y-56302766D01*
X208377395Y-56374454D01*
X208193667Y-56411000D01*
X208006333Y-56411000D01*
X207822605Y-56374454D01*
X207649534Y-56302766D01*
X207529379Y-56222481D01*
X207493773Y-56198690D01*
X207361310Y-56066227D01*
X207257235Y-55910467D01*
X207257234Y-55910466D01*
X207185546Y-55737395D01*
X207149000Y-55553667D01*
X207149000Y-55366333D01*
X207185546Y-55182605D01*
X207257234Y-55009534D01*
X207356010Y-54861705D01*
X207361310Y-54853773D01*
X207493773Y-54721310D01*
X207649533Y-54617235D01*
X207649534Y-54617234D01*
X207822605Y-54545546D01*
X208006333Y-54509000D01*
X208193667Y-54509000D01*
X208377395Y-54545546D01*
G37*
G36*
X180068228Y-52321703D02*
G01*
X180223100Y-52385853D01*
X180362481Y-52478985D01*
X180481015Y-52597519D01*
X180574147Y-52736900D01*
X180638297Y-52891772D01*
X180671000Y-53056184D01*
X180671000Y-53223816D01*
X180638297Y-53388228D01*
X180574147Y-53543100D01*
X180481015Y-53682481D01*
X180362481Y-53801015D01*
X180223100Y-53894147D01*
X180068228Y-53958297D01*
X179903816Y-53991000D01*
X179736184Y-53991000D01*
X179571772Y-53958297D01*
X179416900Y-53894147D01*
X179277519Y-53801015D01*
X179158985Y-53682481D01*
X179065853Y-53543100D01*
X179001703Y-53388228D01*
X178969000Y-53223816D01*
X178969000Y-53056184D01*
X179001703Y-52891772D01*
X179065853Y-52736900D01*
X179158985Y-52597519D01*
X179277519Y-52478985D01*
X179416900Y-52385853D01*
X179571772Y-52321703D01*
X179736184Y-52289000D01*
X179903816Y-52289000D01*
X180068228Y-52321703D01*
G37*
G36*
X172448228Y-52321703D02*
G01*
X172603100Y-52385853D01*
X172742481Y-52478985D01*
X172861015Y-52597519D01*
X172954147Y-52736900D01*
X173018297Y-52891772D01*
X173051000Y-53056184D01*
X173051000Y-53223816D01*
X173018297Y-53388228D01*
X172954147Y-53543100D01*
X172861015Y-53682481D01*
X172742481Y-53801015D01*
X172603100Y-53894147D01*
X172448228Y-53958297D01*
X172283816Y-53991000D01*
X172116184Y-53991000D01*
X171951772Y-53958297D01*
X171796900Y-53894147D01*
X171657519Y-53801015D01*
X171538985Y-53682481D01*
X171445853Y-53543100D01*
X171381703Y-53388228D01*
X171349000Y-53223816D01*
X171349000Y-53056184D01*
X171381703Y-52891772D01*
X171445853Y-52736900D01*
X171538985Y-52597519D01*
X171657519Y-52478985D01*
X171796900Y-52385853D01*
X171951772Y-52321703D01*
X172116184Y-52289000D01*
X172283816Y-52289000D01*
X172448228Y-52321703D01*
G37*
G36*
X195768228Y-51181703D02*
G01*
X195923100Y-51245853D01*
X196062481Y-51338985D01*
X196181015Y-51457519D01*
X196274147Y-51596900D01*
X196338297Y-51751772D01*
X196371000Y-51916184D01*
X196371000Y-52083816D01*
X196338297Y-52248228D01*
X196274147Y-52403100D01*
X196181015Y-52542481D01*
X196062481Y-52661015D01*
X195923100Y-52754147D01*
X195768228Y-52818297D01*
X195603816Y-52851000D01*
X195436184Y-52851000D01*
X195271772Y-52818297D01*
X195116900Y-52754147D01*
X194977519Y-52661015D01*
X194858985Y-52542481D01*
X194765853Y-52403100D01*
X194701703Y-52248228D01*
X194669000Y-52083816D01*
X194669000Y-51916184D01*
X194701703Y-51751772D01*
X194765853Y-51596900D01*
X194858985Y-51457519D01*
X194977519Y-51338985D01*
X195116900Y-51245853D01*
X195271772Y-51181703D01*
X195436184Y-51149000D01*
X195603816Y-51149000D01*
X195768228Y-51181703D01*
G37*
G36*
X188148228Y-51181703D02*
G01*
X188303100Y-51245853D01*
X188442481Y-51338985D01*
X188561015Y-51457519D01*
X188654147Y-51596900D01*
X188718297Y-51751772D01*
X188751000Y-51916184D01*
X188751000Y-52083816D01*
X188718297Y-52248228D01*
X188654147Y-52403100D01*
X188561015Y-52542481D01*
X188442481Y-52661015D01*
X188303100Y-52754147D01*
X188148228Y-52818297D01*
X187983816Y-52851000D01*
X187816184Y-52851000D01*
X187651772Y-52818297D01*
X187496900Y-52754147D01*
X187357519Y-52661015D01*
X187238985Y-52542481D01*
X187145853Y-52403100D01*
X187081703Y-52248228D01*
X187049000Y-52083816D01*
X187049000Y-51916184D01*
X187081703Y-51751772D01*
X187145853Y-51596900D01*
X187238985Y-51457519D01*
X187357519Y-51338985D01*
X187496900Y-51245853D01*
X187651772Y-51181703D01*
X187816184Y-51149000D01*
X187983816Y-51149000D01*
X188148228Y-51181703D01*
G37*
G36*
X208348228Y-50401703D02*
G01*
X208503100Y-50465853D01*
X208642481Y-50558985D01*
X208761015Y-50677519D01*
X208854147Y-50816900D01*
X208918297Y-50971772D01*
X208951000Y-51136184D01*
X208951000Y-51303816D01*
X208918297Y-51468228D01*
X208854147Y-51623100D01*
X208761015Y-51762481D01*
X208642481Y-51881015D01*
X208503100Y-51974147D01*
X208348228Y-52038297D01*
X208183816Y-52071000D01*
X208016184Y-52071000D01*
X207851772Y-52038297D01*
X207696900Y-51974147D01*
X207557519Y-51881015D01*
X207438985Y-51762481D01*
X207345853Y-51623100D01*
X207281703Y-51468228D01*
X207249000Y-51303816D01*
X207249000Y-51136184D01*
X207281703Y-50971772D01*
X207345853Y-50816900D01*
X207438985Y-50677519D01*
X207557519Y-50558985D01*
X207696900Y-50465853D01*
X207851772Y-50401703D01*
X208016184Y-50369000D01*
X208183816Y-50369000D01*
X208348228Y-50401703D01*
G37*
G36*
X201848228Y-50301703D02*
G01*
X202003100Y-50365853D01*
X202142481Y-50458985D01*
X202261015Y-50577519D01*
X202354147Y-50716900D01*
X202418297Y-50871772D01*
X202451000Y-51036184D01*
X202451000Y-51203816D01*
X202418297Y-51368228D01*
X202354147Y-51523100D01*
X202261015Y-51662481D01*
X202142481Y-51781015D01*
X202003100Y-51874147D01*
X201848228Y-51938297D01*
X201683816Y-51971000D01*
X201516184Y-51971000D01*
X201351772Y-51938297D01*
X201196900Y-51874147D01*
X201057519Y-51781015D01*
X200938985Y-51662481D01*
X200845853Y-51523100D01*
X200781703Y-51368228D01*
X200749000Y-51203816D01*
X200749000Y-51036184D01*
X200781703Y-50871772D01*
X200845853Y-50716900D01*
X200938985Y-50577519D01*
X201057519Y-50458985D01*
X201196900Y-50365853D01*
X201351772Y-50301703D01*
X201516184Y-50269000D01*
X201683816Y-50269000D01*
X201848228Y-50301703D01*
G37*
G36*
X180068228Y-49781703D02*
G01*
X180223100Y-49845853D01*
X180362481Y-49938985D01*
X180481015Y-50057519D01*
X180574147Y-50196900D01*
X180638297Y-50351772D01*
X180671000Y-50516184D01*
X180671000Y-50683816D01*
X180638297Y-50848228D01*
X180574147Y-51003100D01*
X180481015Y-51142481D01*
X180362481Y-51261015D01*
X180223100Y-51354147D01*
X180068228Y-51418297D01*
X179903816Y-51451000D01*
X179736184Y-51451000D01*
X179571772Y-51418297D01*
X179416900Y-51354147D01*
X179277519Y-51261015D01*
X179158985Y-51142481D01*
X179065853Y-51003100D01*
X179001703Y-50848228D01*
X178969000Y-50683816D01*
X178969000Y-50516184D01*
X179001703Y-50351772D01*
X179065853Y-50196900D01*
X179158985Y-50057519D01*
X179277519Y-49938985D01*
X179416900Y-49845853D01*
X179571772Y-49781703D01*
X179736184Y-49749000D01*
X179903816Y-49749000D01*
X180068228Y-49781703D01*
G37*
G36*
X164213512Y-49653927D02*
G01*
X164362812Y-49683624D01*
X164526784Y-49751544D01*
X164674354Y-49850147D01*
X164799853Y-49975646D01*
X164898456Y-50123216D01*
X164966376Y-50287188D01*
X165001000Y-50461259D01*
X165001000Y-50638741D01*
X164966376Y-50812812D01*
X164898456Y-50976784D01*
X164799853Y-51124354D01*
X164674354Y-51249853D01*
X164526784Y-51348456D01*
X164362812Y-51416376D01*
X164213512Y-51446073D01*
X164188742Y-51451000D01*
X164011258Y-51451000D01*
X163986488Y-51446073D01*
X163837188Y-51416376D01*
X163673216Y-51348456D01*
X163525646Y-51249853D01*
X163400147Y-51124354D01*
X163301544Y-50976784D01*
X163233624Y-50812812D01*
X163199000Y-50638741D01*
X163199000Y-50461259D01*
X163233624Y-50287188D01*
X163301544Y-50123216D01*
X163400147Y-49975646D01*
X163525646Y-49850147D01*
X163673216Y-49751544D01*
X163837188Y-49683624D01*
X163986488Y-49653927D01*
X164011258Y-49649000D01*
X164188742Y-49649000D01*
X164213512Y-49653927D01*
G37*
G36*
X173051000Y-51451000D02*
G01*
X171349000Y-51451000D01*
X171349000Y-49749000D01*
X173051000Y-49749000D01*
X173051000Y-51451000D01*
G37*
G36*
X168713512Y-49653927D02*
G01*
X168862812Y-49683624D01*
X169026784Y-49751544D01*
X169174354Y-49850147D01*
X169299853Y-49975646D01*
X169398456Y-50123216D01*
X169466376Y-50287188D01*
X169501000Y-50461259D01*
X169501000Y-50638741D01*
X169466376Y-50812812D01*
X169398456Y-50976784D01*
X169299853Y-51124354D01*
X169174354Y-51249853D01*
X169026784Y-51348456D01*
X168862812Y-51416376D01*
X168713512Y-51446073D01*
X168688742Y-51451000D01*
X168511258Y-51451000D01*
X168486488Y-51446073D01*
X168337188Y-51416376D01*
X168173216Y-51348456D01*
X168025646Y-51249853D01*
X167900147Y-51124354D01*
X167801544Y-50976784D01*
X167733624Y-50812812D01*
X167699000Y-50638741D01*
X167699000Y-50461259D01*
X167733624Y-50287188D01*
X167801544Y-50123216D01*
X167900147Y-49975646D01*
X168025646Y-49850147D01*
X168173216Y-49751544D01*
X168337188Y-49683624D01*
X168486488Y-49653927D01*
X168511258Y-49649000D01*
X168688742Y-49649000D01*
X168713512Y-49653927D01*
G37*
G36*
X192239315Y-46424166D02*
G01*
X192283847Y-46437675D01*
X192315077Y-46454368D01*
X192329680Y-46460417D01*
X192340744Y-46472624D01*
X192360864Y-46489136D01*
X192390385Y-46525108D01*
X192412326Y-46566157D01*
X192425834Y-46610685D01*
X192431000Y-46663140D01*
X192431000Y-48076860D01*
X192425834Y-48129315D01*
X192412326Y-48173843D01*
X192390385Y-48214892D01*
X192360864Y-48250864D01*
X192324892Y-48280385D01*
X192283843Y-48302326D01*
X192239315Y-48315834D01*
X192186860Y-48321000D01*
X191473140Y-48321000D01*
X191420685Y-48315834D01*
X191376157Y-48302326D01*
X191335108Y-48280385D01*
X191299136Y-48250864D01*
X191269615Y-48214892D01*
X191247674Y-48173843D01*
X191234166Y-48129315D01*
X191229000Y-48076860D01*
X191229000Y-46663140D01*
X191234166Y-46610685D01*
X191247674Y-46566157D01*
X191269615Y-46525108D01*
X191299136Y-46489136D01*
X191335108Y-46459615D01*
X191376157Y-46437674D01*
X191420685Y-46424166D01*
X191473140Y-46419000D01*
X192186860Y-46419000D01*
X192239315Y-46424166D01*
G37*
G36*
X193701000Y-46251000D02*
G01*
X192499000Y-46251000D01*
X192499000Y-44349000D01*
X193701000Y-44349000D01*
X193701000Y-46251000D01*
G37*
G36*
X190969315Y-44354166D02*
G01*
X191013843Y-44367674D01*
X191054892Y-44389615D01*
X191090864Y-44419136D01*
X191120385Y-44455108D01*
X191142326Y-44496157D01*
X191155834Y-44540685D01*
X191161000Y-44593140D01*
X191161000Y-46006860D01*
X191155834Y-46059315D01*
X191142326Y-46103843D01*
X191120385Y-46144892D01*
X191090864Y-46180864D01*
X191054892Y-46210385D01*
X191013843Y-46232326D01*
X190969315Y-46245834D01*
X190916860Y-46251000D01*
X190203140Y-46251000D01*
X190150685Y-46245834D01*
X190106157Y-46232326D01*
X190065108Y-46210385D01*
X190029136Y-46180864D01*
X189999615Y-46144892D01*
X189977674Y-46103843D01*
X189964166Y-46059315D01*
X189959000Y-46006860D01*
X189959000Y-44593140D01*
X189964166Y-44540685D01*
X189977674Y-44496157D01*
X189999615Y-44455108D01*
X190029136Y-44419136D01*
X190065108Y-44389615D01*
X190106157Y-44367674D01*
X190150685Y-44354166D01*
X190203140Y-44349000D01*
X190916860Y-44349000D01*
X190969315Y-44354166D01*
G37*
G36*
X164213512Y-43153927D02*
G01*
X164362812Y-43183624D01*
X164526784Y-43251544D01*
X164674354Y-43350147D01*
X164799853Y-43475646D01*
X164898456Y-43623216D01*
X164966376Y-43787188D01*
X165001000Y-43961259D01*
X165001000Y-44138741D01*
X164966376Y-44312812D01*
X164898456Y-44476784D01*
X164799853Y-44624354D01*
X164674354Y-44749853D01*
X164526784Y-44848456D01*
X164362812Y-44916376D01*
X164213512Y-44946073D01*
X164188742Y-44951000D01*
X164011258Y-44951000D01*
X163986488Y-44946073D01*
X163837188Y-44916376D01*
X163673216Y-44848456D01*
X163525646Y-44749853D01*
X163400147Y-44624354D01*
X163301544Y-44476784D01*
X163233624Y-44312812D01*
X163199000Y-44138741D01*
X163199000Y-43961259D01*
X163233624Y-43787188D01*
X163301544Y-43623216D01*
X163400147Y-43475646D01*
X163525646Y-43350147D01*
X163673216Y-43251544D01*
X163837188Y-43183624D01*
X163986488Y-43153927D01*
X164011258Y-43149000D01*
X164188742Y-43149000D01*
X164213512Y-43153927D01*
G37*
G36*
X168713512Y-43153927D02*
G01*
X168862812Y-43183624D01*
X169026784Y-43251544D01*
X169174354Y-43350147D01*
X169299853Y-43475646D01*
X169398456Y-43623216D01*
X169466376Y-43787188D01*
X169501000Y-43961259D01*
X169501000Y-44138741D01*
X169466376Y-44312812D01*
X169398456Y-44476784D01*
X169299853Y-44624354D01*
X169174354Y-44749853D01*
X169026784Y-44848456D01*
X168862812Y-44916376D01*
X168713512Y-44946073D01*
X168688742Y-44951000D01*
X168511258Y-44951000D01*
X168486488Y-44946073D01*
X168337188Y-44916376D01*
X168173216Y-44848456D01*
X168025646Y-44749853D01*
X167900147Y-44624354D01*
X167801544Y-44476784D01*
X167733624Y-44312812D01*
X167699000Y-44138741D01*
X167699000Y-43961259D01*
X167733624Y-43787188D01*
X167801544Y-43623216D01*
X167900147Y-43475646D01*
X168025646Y-43350147D01*
X168173216Y-43251544D01*
X168337188Y-43183624D01*
X168486488Y-43153927D01*
X168511258Y-43149000D01*
X168688742Y-43149000D01*
X168713512Y-43153927D01*
G37*
G36*
X208348228Y-42781703D02*
G01*
X208503100Y-42845853D01*
X208642481Y-42938985D01*
X208761015Y-43057519D01*
X208854147Y-43196900D01*
X208918297Y-43351772D01*
X208951000Y-43516184D01*
X208951000Y-43683816D01*
X208918297Y-43848228D01*
X208854147Y-44003100D01*
X208761015Y-44142481D01*
X208642481Y-44261015D01*
X208503100Y-44354147D01*
X208348228Y-44418297D01*
X208183816Y-44451000D01*
X208016184Y-44451000D01*
X207851772Y-44418297D01*
X207696900Y-44354147D01*
X207557519Y-44261015D01*
X207438985Y-44142481D01*
X207345853Y-44003100D01*
X207281703Y-43848228D01*
X207249000Y-43683816D01*
X207249000Y-43516184D01*
X207281703Y-43351772D01*
X207345853Y-43196900D01*
X207438985Y-43057519D01*
X207557519Y-42938985D01*
X207696900Y-42845853D01*
X207851772Y-42781703D01*
X208016184Y-42749000D01*
X208183816Y-42749000D01*
X208348228Y-42781703D01*
G37*
G36*
X201848228Y-42681703D02*
G01*
X202003100Y-42745853D01*
X202142481Y-42838985D01*
X202261015Y-42957519D01*
X202354147Y-43096900D01*
X202418297Y-43251772D01*
X202451000Y-43416184D01*
X202451000Y-43583816D01*
X202418297Y-43748228D01*
X202354147Y-43903100D01*
X202261015Y-44042481D01*
X202142481Y-44161015D01*
X202003100Y-44254147D01*
X201848228Y-44318297D01*
X201683816Y-44351000D01*
X201516184Y-44351000D01*
X201351772Y-44318297D01*
X201196900Y-44254147D01*
X201057519Y-44161015D01*
X200938985Y-44042481D01*
X200845853Y-43903100D01*
X200781703Y-43748228D01*
X200749000Y-43583816D01*
X200749000Y-43416184D01*
X200781703Y-43251772D01*
X200845853Y-43096900D01*
X200938985Y-42957519D01*
X201057519Y-42838985D01*
X201196900Y-42745853D01*
X201351772Y-42681703D01*
X201516184Y-42649000D01*
X201683816Y-42649000D01*
X201848228Y-42681703D01*
G37*
G36*
X144611766Y-41101899D02*
G01*
X144732169Y-41151772D01*
X144743890Y-41156627D01*
X144862798Y-41236079D01*
X144963921Y-41337202D01*
X144963922Y-41337204D01*
X145043374Y-41456112D01*
X145098101Y-41588234D01*
X145126000Y-41728494D01*
X145126000Y-41871506D01*
X145098101Y-42011766D01*
X145043374Y-42143888D01*
X145043373Y-42143890D01*
X144963921Y-42262798D01*
X144862798Y-42363921D01*
X144743890Y-42443373D01*
X144743889Y-42443374D01*
X144743888Y-42443374D01*
X144611766Y-42498101D01*
X144471506Y-42526000D01*
X144328494Y-42526000D01*
X144188234Y-42498101D01*
X144056112Y-42443374D01*
X144056111Y-42443374D01*
X144056110Y-42443373D01*
X143937202Y-42363921D01*
X143836079Y-42262798D01*
X143756627Y-42143890D01*
X143756626Y-42143888D01*
X143701899Y-42011766D01*
X143674000Y-41871506D01*
X143674000Y-41728494D01*
X143701899Y-41588234D01*
X143756626Y-41456112D01*
X143836078Y-41337204D01*
X143836079Y-41337202D01*
X143937202Y-41236079D01*
X144056110Y-41156627D01*
X144067831Y-41151772D01*
X144188234Y-41101899D01*
X144328494Y-41074000D01*
X144471506Y-41074000D01*
X144611766Y-41101899D01*
G37*
G36*
X130611766Y-41101899D02*
G01*
X130732169Y-41151772D01*
X130743890Y-41156627D01*
X130862798Y-41236079D01*
X130963921Y-41337202D01*
X130963922Y-41337204D01*
X131043374Y-41456112D01*
X131098101Y-41588234D01*
X131126000Y-41728494D01*
X131126000Y-41871506D01*
X131098101Y-42011766D01*
X131043374Y-42143888D01*
X131043373Y-42143890D01*
X130963921Y-42262798D01*
X130862798Y-42363921D01*
X130743890Y-42443373D01*
X130743889Y-42443374D01*
X130743888Y-42443374D01*
X130611766Y-42498101D01*
X130471506Y-42526000D01*
X130328494Y-42526000D01*
X130188234Y-42498101D01*
X130056112Y-42443374D01*
X130056111Y-42443374D01*
X130056110Y-42443373D01*
X129937202Y-42363921D01*
X129836079Y-42262798D01*
X129756627Y-42143890D01*
X129756626Y-42143888D01*
X129701899Y-42011766D01*
X129674000Y-41871506D01*
X129674000Y-41728494D01*
X129701899Y-41588234D01*
X129756626Y-41456112D01*
X129836078Y-41337204D01*
X129836079Y-41337202D01*
X129937202Y-41236079D01*
X130056110Y-41156627D01*
X130067831Y-41151772D01*
X130188234Y-41101899D01*
X130328494Y-41074000D01*
X130471506Y-41074000D01*
X130611766Y-41101899D01*
G37*
G36*
X132611766Y-41101899D02*
G01*
X132732169Y-41151772D01*
X132743890Y-41156627D01*
X132862798Y-41236079D01*
X132963921Y-41337202D01*
X132963922Y-41337204D01*
X133043374Y-41456112D01*
X133098101Y-41588234D01*
X133126000Y-41728494D01*
X133126000Y-41871506D01*
X133098101Y-42011766D01*
X133043374Y-42143888D01*
X133043373Y-42143890D01*
X132963921Y-42262798D01*
X132862798Y-42363921D01*
X132743890Y-42443373D01*
X132743889Y-42443374D01*
X132743888Y-42443374D01*
X132611766Y-42498101D01*
X132471506Y-42526000D01*
X132328494Y-42526000D01*
X132188234Y-42498101D01*
X132056112Y-42443374D01*
X132056111Y-42443374D01*
X132056110Y-42443373D01*
X131937202Y-42363921D01*
X131836079Y-42262798D01*
X131756627Y-42143890D01*
X131756626Y-42143888D01*
X131701899Y-42011766D01*
X131674000Y-41871506D01*
X131674000Y-41728494D01*
X131701899Y-41588234D01*
X131756626Y-41456112D01*
X131836078Y-41337204D01*
X131836079Y-41337202D01*
X131937202Y-41236079D01*
X132056110Y-41156627D01*
X132067831Y-41151772D01*
X132188234Y-41101899D01*
X132328494Y-41074000D01*
X132471506Y-41074000D01*
X132611766Y-41101899D01*
G37*
G36*
X134611766Y-41101899D02*
G01*
X134732169Y-41151772D01*
X134743890Y-41156627D01*
X134862798Y-41236079D01*
X134963921Y-41337202D01*
X134963922Y-41337204D01*
X135043374Y-41456112D01*
X135098101Y-41588234D01*
X135126000Y-41728494D01*
X135126000Y-41871506D01*
X135098101Y-42011766D01*
X135043374Y-42143888D01*
X135043373Y-42143890D01*
X134963921Y-42262798D01*
X134862798Y-42363921D01*
X134743890Y-42443373D01*
X134743889Y-42443374D01*
X134743888Y-42443374D01*
X134611766Y-42498101D01*
X134471506Y-42526000D01*
X134328494Y-42526000D01*
X134188234Y-42498101D01*
X134056112Y-42443374D01*
X134056111Y-42443374D01*
X134056110Y-42443373D01*
X133937202Y-42363921D01*
X133836079Y-42262798D01*
X133756627Y-42143890D01*
X133756626Y-42143888D01*
X133701899Y-42011766D01*
X133674000Y-41871506D01*
X133674000Y-41728494D01*
X133701899Y-41588234D01*
X133756626Y-41456112D01*
X133836078Y-41337204D01*
X133836079Y-41337202D01*
X133937202Y-41236079D01*
X134056110Y-41156627D01*
X134067831Y-41151772D01*
X134188234Y-41101899D01*
X134328494Y-41074000D01*
X134471506Y-41074000D01*
X134611766Y-41101899D01*
G37*
G36*
X136611766Y-41101899D02*
G01*
X136732169Y-41151772D01*
X136743890Y-41156627D01*
X136862798Y-41236079D01*
X136963921Y-41337202D01*
X136963922Y-41337204D01*
X137043374Y-41456112D01*
X137098101Y-41588234D01*
X137126000Y-41728494D01*
X137126000Y-41871506D01*
X137098101Y-42011766D01*
X137043374Y-42143888D01*
X137043373Y-42143890D01*
X136963921Y-42262798D01*
X136862798Y-42363921D01*
X136743890Y-42443373D01*
X136743889Y-42443374D01*
X136743888Y-42443374D01*
X136611766Y-42498101D01*
X136471506Y-42526000D01*
X136328494Y-42526000D01*
X136188234Y-42498101D01*
X136056112Y-42443374D01*
X136056111Y-42443374D01*
X136056110Y-42443373D01*
X135937202Y-42363921D01*
X135836079Y-42262798D01*
X135756627Y-42143890D01*
X135756626Y-42143888D01*
X135701899Y-42011766D01*
X135674000Y-41871506D01*
X135674000Y-41728494D01*
X135701899Y-41588234D01*
X135756626Y-41456112D01*
X135836078Y-41337204D01*
X135836079Y-41337202D01*
X135937202Y-41236079D01*
X136056110Y-41156627D01*
X136067831Y-41151772D01*
X136188234Y-41101899D01*
X136328494Y-41074000D01*
X136471506Y-41074000D01*
X136611766Y-41101899D01*
G37*
G36*
X146611766Y-41101899D02*
G01*
X146732169Y-41151772D01*
X146743890Y-41156627D01*
X146862798Y-41236079D01*
X146963921Y-41337202D01*
X146963922Y-41337204D01*
X147043374Y-41456112D01*
X147098101Y-41588234D01*
X147126000Y-41728494D01*
X147126000Y-41871506D01*
X147098101Y-42011766D01*
X147043374Y-42143888D01*
X147043373Y-42143890D01*
X146963921Y-42262798D01*
X146862798Y-42363921D01*
X146743890Y-42443373D01*
X146743889Y-42443374D01*
X146743888Y-42443374D01*
X146611766Y-42498101D01*
X146471506Y-42526000D01*
X146328494Y-42526000D01*
X146188234Y-42498101D01*
X146056112Y-42443374D01*
X146056111Y-42443374D01*
X146056110Y-42443373D01*
X145937202Y-42363921D01*
X145836079Y-42262798D01*
X145756627Y-42143890D01*
X145756626Y-42143888D01*
X145701899Y-42011766D01*
X145674000Y-41871506D01*
X145674000Y-41728494D01*
X145701899Y-41588234D01*
X145756626Y-41456112D01*
X145836078Y-41337204D01*
X145836079Y-41337202D01*
X145937202Y-41236079D01*
X146056110Y-41156627D01*
X146067831Y-41151772D01*
X146188234Y-41101899D01*
X146328494Y-41074000D01*
X146471506Y-41074000D01*
X146611766Y-41101899D01*
G37*
G36*
X142611766Y-41101899D02*
G01*
X142732169Y-41151772D01*
X142743890Y-41156627D01*
X142862798Y-41236079D01*
X142963921Y-41337202D01*
X142963922Y-41337204D01*
X143043374Y-41456112D01*
X143098101Y-41588234D01*
X143126000Y-41728494D01*
X143126000Y-41871506D01*
X143098101Y-42011766D01*
X143043374Y-42143888D01*
X143043373Y-42143890D01*
X142963921Y-42262798D01*
X142862798Y-42363921D01*
X142743890Y-42443373D01*
X142743889Y-42443374D01*
X142743888Y-42443374D01*
X142611766Y-42498101D01*
X142471506Y-42526000D01*
X142328494Y-42526000D01*
X142188234Y-42498101D01*
X142056112Y-42443374D01*
X142056111Y-42443374D01*
X142056110Y-42443373D01*
X141937202Y-42363921D01*
X141836079Y-42262798D01*
X141756627Y-42143890D01*
X141756626Y-42143888D01*
X141701899Y-42011766D01*
X141674000Y-41871506D01*
X141674000Y-41728494D01*
X141701899Y-41588234D01*
X141756626Y-41456112D01*
X141836078Y-41337204D01*
X141836079Y-41337202D01*
X141937202Y-41236079D01*
X142056110Y-41156627D01*
X142067831Y-41151772D01*
X142188234Y-41101899D01*
X142328494Y-41074000D01*
X142471506Y-41074000D01*
X142611766Y-41101899D01*
G37*
G36*
X140611766Y-41101899D02*
G01*
X140732169Y-41151772D01*
X140743890Y-41156627D01*
X140862798Y-41236079D01*
X140963921Y-41337202D01*
X140963922Y-41337204D01*
X141043374Y-41456112D01*
X141098101Y-41588234D01*
X141126000Y-41728494D01*
X141126000Y-41871506D01*
X141098101Y-42011766D01*
X141043374Y-42143888D01*
X141043373Y-42143890D01*
X140963921Y-42262798D01*
X140862798Y-42363921D01*
X140743890Y-42443373D01*
X140743889Y-42443374D01*
X140743888Y-42443374D01*
X140611766Y-42498101D01*
X140471506Y-42526000D01*
X140328494Y-42526000D01*
X140188234Y-42498101D01*
X140056112Y-42443374D01*
X140056111Y-42443374D01*
X140056110Y-42443373D01*
X139937202Y-42363921D01*
X139836079Y-42262798D01*
X139756627Y-42143890D01*
X139756626Y-42143888D01*
X139701899Y-42011766D01*
X139674000Y-41871506D01*
X139674000Y-41728494D01*
X139701899Y-41588234D01*
X139756626Y-41456112D01*
X139836078Y-41337204D01*
X139836079Y-41337202D01*
X139937202Y-41236079D01*
X140056110Y-41156627D01*
X140067831Y-41151772D01*
X140188234Y-41101899D01*
X140328494Y-41074000D01*
X140471506Y-41074000D01*
X140611766Y-41101899D01*
G37*
G36*
X128611766Y-41101899D02*
G01*
X128732169Y-41151772D01*
X128743890Y-41156627D01*
X128862798Y-41236079D01*
X128963921Y-41337202D01*
X128963922Y-41337204D01*
X129043374Y-41456112D01*
X129098101Y-41588234D01*
X129126000Y-41728494D01*
X129126000Y-41871506D01*
X129098101Y-42011766D01*
X129043374Y-42143888D01*
X129043373Y-42143890D01*
X128963921Y-42262798D01*
X128862798Y-42363921D01*
X128743890Y-42443373D01*
X128743889Y-42443374D01*
X128743888Y-42443374D01*
X128611766Y-42498101D01*
X128471506Y-42526000D01*
X128328494Y-42526000D01*
X128188234Y-42498101D01*
X128056112Y-42443374D01*
X128056111Y-42443374D01*
X128056110Y-42443373D01*
X127937202Y-42363921D01*
X127836079Y-42262798D01*
X127756627Y-42143890D01*
X127756626Y-42143888D01*
X127701899Y-42011766D01*
X127674000Y-41871506D01*
X127674000Y-41728494D01*
X127701899Y-41588234D01*
X127756626Y-41456112D01*
X127836078Y-41337204D01*
X127836079Y-41337202D01*
X127937202Y-41236079D01*
X128056110Y-41156627D01*
X128067831Y-41151772D01*
X128188234Y-41101899D01*
X128328494Y-41074000D01*
X128471506Y-41074000D01*
X128611766Y-41101899D01*
G37*
G36*
X138611766Y-41101899D02*
G01*
X138732169Y-41151772D01*
X138743890Y-41156627D01*
X138862798Y-41236079D01*
X138963921Y-41337202D01*
X138963922Y-41337204D01*
X139043374Y-41456112D01*
X139098101Y-41588234D01*
X139126000Y-41728494D01*
X139126000Y-41871506D01*
X139098101Y-42011766D01*
X139043374Y-42143888D01*
X139043373Y-42143890D01*
X138963921Y-42262798D01*
X138862798Y-42363921D01*
X138743890Y-42443373D01*
X138743889Y-42443374D01*
X138743888Y-42443374D01*
X138611766Y-42498101D01*
X138471506Y-42526000D01*
X138328494Y-42526000D01*
X138188234Y-42498101D01*
X138056112Y-42443374D01*
X138056111Y-42443374D01*
X138056110Y-42443373D01*
X137937202Y-42363921D01*
X137836079Y-42262798D01*
X137756627Y-42143890D01*
X137756626Y-42143888D01*
X137701899Y-42011766D01*
X137674000Y-41871506D01*
X137674000Y-41728494D01*
X137701899Y-41588234D01*
X137756626Y-41456112D01*
X137836078Y-41337204D01*
X137836079Y-41337202D01*
X137937202Y-41236079D01*
X138056110Y-41156627D01*
X138067831Y-41151772D01*
X138188234Y-41101899D01*
X138328494Y-41074000D01*
X138471506Y-41074000D01*
X138611766Y-41101899D01*
G37*
G36*
X169348228Y-40631703D02*
G01*
X169503100Y-40695853D01*
X169642481Y-40788985D01*
X169761015Y-40907519D01*
X169854147Y-41046900D01*
X169918297Y-41201772D01*
X169951000Y-41366184D01*
X169951000Y-41533816D01*
X169918297Y-41698228D01*
X169854147Y-41853100D01*
X169761015Y-41992481D01*
X169642481Y-42111015D01*
X169503100Y-42204147D01*
X169348228Y-42268297D01*
X169183816Y-42301000D01*
X169016184Y-42301000D01*
X168851772Y-42268297D01*
X168696900Y-42204147D01*
X168557519Y-42111015D01*
X168438985Y-41992481D01*
X168345853Y-41853100D01*
X168281703Y-41698228D01*
X168249000Y-41533816D01*
X168249000Y-41366184D01*
X168281703Y-41201772D01*
X168345853Y-41046900D01*
X168438985Y-40907519D01*
X168557519Y-40788985D01*
X168696900Y-40695853D01*
X168851772Y-40631703D01*
X169016184Y-40599000D01*
X169183816Y-40599000D01*
X169348228Y-40631703D01*
G37*
G36*
X211848228Y-40581703D02*
G01*
X212003100Y-40645853D01*
X212142481Y-40738985D01*
X212261015Y-40857519D01*
X212354147Y-40996900D01*
X212418297Y-41151772D01*
X212451000Y-41316184D01*
X212451000Y-41483816D01*
X212418297Y-41648228D01*
X212354147Y-41803100D01*
X212261015Y-41942481D01*
X212142481Y-42061015D01*
X212003100Y-42154147D01*
X211848228Y-42218297D01*
X211683816Y-42251000D01*
X211516184Y-42251000D01*
X211351772Y-42218297D01*
X211196900Y-42154147D01*
X211057519Y-42061015D01*
X210938985Y-41942481D01*
X210845853Y-41803100D01*
X210781703Y-41648228D01*
X210749000Y-41483816D01*
X210749000Y-41316184D01*
X210781703Y-41151772D01*
X210845853Y-40996900D01*
X210938985Y-40857519D01*
X211057519Y-40738985D01*
X211196900Y-40645853D01*
X211351772Y-40581703D01*
X211516184Y-40549000D01*
X211683816Y-40549000D01*
X211848228Y-40581703D01*
G37*
G36*
X134611766Y-39101899D02*
G01*
X134743888Y-39156626D01*
X134743890Y-39156627D01*
X134862798Y-39236079D01*
X134963921Y-39337202D01*
X135039192Y-39449853D01*
X135043374Y-39456112D01*
X135098101Y-39588234D01*
X135126000Y-39728494D01*
X135126000Y-39871506D01*
X135098101Y-40011766D01*
X135043374Y-40143888D01*
X135043373Y-40143890D01*
X134963921Y-40262798D01*
X134862798Y-40363921D01*
X134743890Y-40443373D01*
X134743889Y-40443374D01*
X134743888Y-40443374D01*
X134611766Y-40498101D01*
X134471506Y-40526000D01*
X134328494Y-40526000D01*
X134188234Y-40498101D01*
X134056112Y-40443374D01*
X134056111Y-40443374D01*
X134056110Y-40443373D01*
X133937202Y-40363921D01*
X133836079Y-40262798D01*
X133756627Y-40143890D01*
X133756626Y-40143888D01*
X133701899Y-40011766D01*
X133674000Y-39871506D01*
X133674000Y-39728494D01*
X133701899Y-39588234D01*
X133756626Y-39456112D01*
X133760808Y-39449853D01*
X133836079Y-39337202D01*
X133937202Y-39236079D01*
X134056110Y-39156627D01*
X134056112Y-39156626D01*
X134188234Y-39101899D01*
X134328494Y-39074000D01*
X134471506Y-39074000D01*
X134611766Y-39101899D01*
G37*
G36*
X129126000Y-40526000D02*
G01*
X127674000Y-40526000D01*
X127674000Y-39074000D01*
X129126000Y-39074000D01*
X129126000Y-40526000D01*
G37*
G36*
X130611766Y-39101899D02*
G01*
X130743888Y-39156626D01*
X130743890Y-39156627D01*
X130862798Y-39236079D01*
X130963921Y-39337202D01*
X131039192Y-39449853D01*
X131043374Y-39456112D01*
X131098101Y-39588234D01*
X131126000Y-39728494D01*
X131126000Y-39871506D01*
X131098101Y-40011766D01*
X131043374Y-40143888D01*
X131043373Y-40143890D01*
X130963921Y-40262798D01*
X130862798Y-40363921D01*
X130743890Y-40443373D01*
X130743889Y-40443374D01*
X130743888Y-40443374D01*
X130611766Y-40498101D01*
X130471506Y-40526000D01*
X130328494Y-40526000D01*
X130188234Y-40498101D01*
X130056112Y-40443374D01*
X130056111Y-40443374D01*
X130056110Y-40443373D01*
X129937202Y-40363921D01*
X129836079Y-40262798D01*
X129756627Y-40143890D01*
X129756626Y-40143888D01*
X129701899Y-40011766D01*
X129674000Y-39871506D01*
X129674000Y-39728494D01*
X129701899Y-39588234D01*
X129756626Y-39456112D01*
X129760808Y-39449853D01*
X129836079Y-39337202D01*
X129937202Y-39236079D01*
X130056110Y-39156627D01*
X130056112Y-39156626D01*
X130188234Y-39101899D01*
X130328494Y-39074000D01*
X130471506Y-39074000D01*
X130611766Y-39101899D01*
G37*
G36*
X132611766Y-39101899D02*
G01*
X132743888Y-39156626D01*
X132743890Y-39156627D01*
X132862798Y-39236079D01*
X132963921Y-39337202D01*
X133039192Y-39449853D01*
X133043374Y-39456112D01*
X133098101Y-39588234D01*
X133126000Y-39728494D01*
X133126000Y-39871506D01*
X133098101Y-40011766D01*
X133043374Y-40143888D01*
X133043373Y-40143890D01*
X132963921Y-40262798D01*
X132862798Y-40363921D01*
X132743890Y-40443373D01*
X132743889Y-40443374D01*
X132743888Y-40443374D01*
X132611766Y-40498101D01*
X132471506Y-40526000D01*
X132328494Y-40526000D01*
X132188234Y-40498101D01*
X132056112Y-40443374D01*
X132056111Y-40443374D01*
X132056110Y-40443373D01*
X131937202Y-40363921D01*
X131836079Y-40262798D01*
X131756627Y-40143890D01*
X131756626Y-40143888D01*
X131701899Y-40011766D01*
X131674000Y-39871506D01*
X131674000Y-39728494D01*
X131701899Y-39588234D01*
X131756626Y-39456112D01*
X131760808Y-39449853D01*
X131836079Y-39337202D01*
X131937202Y-39236079D01*
X132056110Y-39156627D01*
X132056112Y-39156626D01*
X132188234Y-39101899D01*
X132328494Y-39074000D01*
X132471506Y-39074000D01*
X132611766Y-39101899D01*
G37*
G36*
X136611766Y-39101899D02*
G01*
X136743888Y-39156626D01*
X136743890Y-39156627D01*
X136862798Y-39236079D01*
X136963921Y-39337202D01*
X137039192Y-39449853D01*
X137043374Y-39456112D01*
X137098101Y-39588234D01*
X137126000Y-39728494D01*
X137126000Y-39871506D01*
X137098101Y-40011766D01*
X137043374Y-40143888D01*
X137043373Y-40143890D01*
X136963921Y-40262798D01*
X136862798Y-40363921D01*
X136743890Y-40443373D01*
X136743889Y-40443374D01*
X136743888Y-40443374D01*
X136611766Y-40498101D01*
X136471506Y-40526000D01*
X136328494Y-40526000D01*
X136188234Y-40498101D01*
X136056112Y-40443374D01*
X136056111Y-40443374D01*
X136056110Y-40443373D01*
X135937202Y-40363921D01*
X135836079Y-40262798D01*
X135756627Y-40143890D01*
X135756626Y-40143888D01*
X135701899Y-40011766D01*
X135674000Y-39871506D01*
X135674000Y-39728494D01*
X135701899Y-39588234D01*
X135756626Y-39456112D01*
X135760808Y-39449853D01*
X135836079Y-39337202D01*
X135937202Y-39236079D01*
X136056110Y-39156627D01*
X136056112Y-39156626D01*
X136188234Y-39101899D01*
X136328494Y-39074000D01*
X136471506Y-39074000D01*
X136611766Y-39101899D01*
G37*
G36*
X138611766Y-39101899D02*
G01*
X138743888Y-39156626D01*
X138743890Y-39156627D01*
X138862798Y-39236079D01*
X138963921Y-39337202D01*
X139039192Y-39449853D01*
X139043374Y-39456112D01*
X139098101Y-39588234D01*
X139126000Y-39728494D01*
X139126000Y-39871506D01*
X139098101Y-40011766D01*
X139043374Y-40143888D01*
X139043373Y-40143890D01*
X138963921Y-40262798D01*
X138862798Y-40363921D01*
X138743890Y-40443373D01*
X138743889Y-40443374D01*
X138743888Y-40443374D01*
X138611766Y-40498101D01*
X138471506Y-40526000D01*
X138328494Y-40526000D01*
X138188234Y-40498101D01*
X138056112Y-40443374D01*
X138056111Y-40443374D01*
X138056110Y-40443373D01*
X137937202Y-40363921D01*
X137836079Y-40262798D01*
X137756627Y-40143890D01*
X137756626Y-40143888D01*
X137701899Y-40011766D01*
X137674000Y-39871506D01*
X137674000Y-39728494D01*
X137701899Y-39588234D01*
X137756626Y-39456112D01*
X137760808Y-39449853D01*
X137836079Y-39337202D01*
X137937202Y-39236079D01*
X138056110Y-39156627D01*
X138056112Y-39156626D01*
X138188234Y-39101899D01*
X138328494Y-39074000D01*
X138471506Y-39074000D01*
X138611766Y-39101899D01*
G37*
G36*
X140611766Y-39101899D02*
G01*
X140743888Y-39156626D01*
X140743890Y-39156627D01*
X140862798Y-39236079D01*
X140963921Y-39337202D01*
X141039192Y-39449853D01*
X141043374Y-39456112D01*
X141098101Y-39588234D01*
X141126000Y-39728494D01*
X141126000Y-39871506D01*
X141098101Y-40011766D01*
X141043374Y-40143888D01*
X141043373Y-40143890D01*
X140963921Y-40262798D01*
X140862798Y-40363921D01*
X140743890Y-40443373D01*
X140743889Y-40443374D01*
X140743888Y-40443374D01*
X140611766Y-40498101D01*
X140471506Y-40526000D01*
X140328494Y-40526000D01*
X140188234Y-40498101D01*
X140056112Y-40443374D01*
X140056111Y-40443374D01*
X140056110Y-40443373D01*
X139937202Y-40363921D01*
X139836079Y-40262798D01*
X139756627Y-40143890D01*
X139756626Y-40143888D01*
X139701899Y-40011766D01*
X139674000Y-39871506D01*
X139674000Y-39728494D01*
X139701899Y-39588234D01*
X139756626Y-39456112D01*
X139760808Y-39449853D01*
X139836079Y-39337202D01*
X139937202Y-39236079D01*
X140056110Y-39156627D01*
X140056112Y-39156626D01*
X140188234Y-39101899D01*
X140328494Y-39074000D01*
X140471506Y-39074000D01*
X140611766Y-39101899D01*
G37*
G36*
X142611766Y-39101899D02*
G01*
X142743888Y-39156626D01*
X142743890Y-39156627D01*
X142862798Y-39236079D01*
X142963921Y-39337202D01*
X143039192Y-39449853D01*
X143043374Y-39456112D01*
X143098101Y-39588234D01*
X143126000Y-39728494D01*
X143126000Y-39871506D01*
X143098101Y-40011766D01*
X143043374Y-40143888D01*
X143043373Y-40143890D01*
X142963921Y-40262798D01*
X142862798Y-40363921D01*
X142743890Y-40443373D01*
X142743889Y-40443374D01*
X142743888Y-40443374D01*
X142611766Y-40498101D01*
X142471506Y-40526000D01*
X142328494Y-40526000D01*
X142188234Y-40498101D01*
X142056112Y-40443374D01*
X142056111Y-40443374D01*
X142056110Y-40443373D01*
X141937202Y-40363921D01*
X141836079Y-40262798D01*
X141756627Y-40143890D01*
X141756626Y-40143888D01*
X141701899Y-40011766D01*
X141674000Y-39871506D01*
X141674000Y-39728494D01*
X141701899Y-39588234D01*
X141756626Y-39456112D01*
X141760808Y-39449853D01*
X141836079Y-39337202D01*
X141937202Y-39236079D01*
X142056110Y-39156627D01*
X142056112Y-39156626D01*
X142188234Y-39101899D01*
X142328494Y-39074000D01*
X142471506Y-39074000D01*
X142611766Y-39101899D01*
G37*
G36*
X144611766Y-39101899D02*
G01*
X144743888Y-39156626D01*
X144743890Y-39156627D01*
X144862798Y-39236079D01*
X144963921Y-39337202D01*
X145039192Y-39449853D01*
X145043374Y-39456112D01*
X145098101Y-39588234D01*
X145126000Y-39728494D01*
X145126000Y-39871506D01*
X145098101Y-40011766D01*
X145043374Y-40143888D01*
X145043373Y-40143890D01*
X144963921Y-40262798D01*
X144862798Y-40363921D01*
X144743890Y-40443373D01*
X144743889Y-40443374D01*
X144743888Y-40443374D01*
X144611766Y-40498101D01*
X144471506Y-40526000D01*
X144328494Y-40526000D01*
X144188234Y-40498101D01*
X144056112Y-40443374D01*
X144056111Y-40443374D01*
X144056110Y-40443373D01*
X143937202Y-40363921D01*
X143836079Y-40262798D01*
X143756627Y-40143890D01*
X143756626Y-40143888D01*
X143701899Y-40011766D01*
X143674000Y-39871506D01*
X143674000Y-39728494D01*
X143701899Y-39588234D01*
X143756626Y-39456112D01*
X143760808Y-39449853D01*
X143836079Y-39337202D01*
X143937202Y-39236079D01*
X144056110Y-39156627D01*
X144056112Y-39156626D01*
X144188234Y-39101899D01*
X144328494Y-39074000D01*
X144471506Y-39074000D01*
X144611766Y-39101899D01*
G37*
G36*
X146611766Y-39101899D02*
G01*
X146743888Y-39156626D01*
X146743890Y-39156627D01*
X146862798Y-39236079D01*
X146963921Y-39337202D01*
X147039192Y-39449853D01*
X147043374Y-39456112D01*
X147098101Y-39588234D01*
X147126000Y-39728494D01*
X147126000Y-39871506D01*
X147098101Y-40011766D01*
X147043374Y-40143888D01*
X147043373Y-40143890D01*
X146963921Y-40262798D01*
X146862798Y-40363921D01*
X146743890Y-40443373D01*
X146743889Y-40443374D01*
X146743888Y-40443374D01*
X146611766Y-40498101D01*
X146471506Y-40526000D01*
X146328494Y-40526000D01*
X146188234Y-40498101D01*
X146056112Y-40443374D01*
X146056111Y-40443374D01*
X146056110Y-40443373D01*
X145937202Y-40363921D01*
X145836079Y-40262798D01*
X145756627Y-40143890D01*
X145756626Y-40143888D01*
X145701899Y-40011766D01*
X145674000Y-39871506D01*
X145674000Y-39728494D01*
X145701899Y-39588234D01*
X145756626Y-39456112D01*
X145760808Y-39449853D01*
X145836079Y-39337202D01*
X145937202Y-39236079D01*
X146056110Y-39156627D01*
X146056112Y-39156626D01*
X146188234Y-39101899D01*
X146328494Y-39074000D01*
X146471506Y-39074000D01*
X146611766Y-39101899D01*
G37*
G36*
X215244098Y-35147033D02*
G01*
X215708350Y-35339332D01*
X215708352Y-35339333D01*
X216126168Y-35618509D01*
X216481491Y-35973832D01*
X216660440Y-36241648D01*
X216760668Y-36391650D01*
X216952967Y-36855902D01*
X217051000Y-37348747D01*
X217051000Y-37851253D01*
X216952967Y-38344098D01*
X216800884Y-38711259D01*
X216760667Y-38808352D01*
X216481491Y-39226168D01*
X216126168Y-39581491D01*
X215708352Y-39860667D01*
X215708351Y-39860668D01*
X215708350Y-39860668D01*
X215244098Y-40052967D01*
X214751253Y-40151000D01*
X214248747Y-40151000D01*
X213755902Y-40052967D01*
X213291650Y-39860668D01*
X213291649Y-39860668D01*
X213291648Y-39860667D01*
X212873832Y-39581491D01*
X212518509Y-39226168D01*
X212239333Y-38808352D01*
X212199116Y-38711259D01*
X212047033Y-38344098D01*
X211949000Y-37851253D01*
X211949000Y-37348747D01*
X212047033Y-36855902D01*
X212239332Y-36391650D01*
X212339560Y-36241648D01*
X212518509Y-35973832D01*
X212873832Y-35618509D01*
X213291648Y-35339333D01*
X213291650Y-35339332D01*
X213755902Y-35147033D01*
X214248747Y-35049000D01*
X214751253Y-35049000D01*
X215244098Y-35147033D01*
G37*
G36*
X156594098Y-34997033D02*
G01*
X156956233Y-35147034D01*
X157058352Y-35189333D01*
X157476168Y-35468509D01*
X157831491Y-35823832D01*
X158110667Y-36241648D01*
X158110668Y-36241650D01*
X158302967Y-36705902D01*
X158401000Y-37198747D01*
X158401000Y-37701253D01*
X158302967Y-38194098D01*
X158228774Y-38373216D01*
X158110667Y-38658352D01*
X157831491Y-39076168D01*
X157476168Y-39431491D01*
X157058352Y-39710667D01*
X157058351Y-39710668D01*
X157058350Y-39710668D01*
X156594098Y-39902967D01*
X156101253Y-40001000D01*
X155598747Y-40001000D01*
X155105902Y-39902967D01*
X154641650Y-39710668D01*
X154641649Y-39710668D01*
X154641648Y-39710667D01*
X154223832Y-39431491D01*
X153868509Y-39076168D01*
X153589333Y-38658352D01*
X153471226Y-38373216D01*
X153397033Y-38194098D01*
X153299000Y-37701253D01*
X153299000Y-37198747D01*
X153397033Y-36705902D01*
X153589332Y-36241650D01*
X153589333Y-36241648D01*
X153868509Y-35823832D01*
X154223832Y-35468509D01*
X154641648Y-35189333D01*
X154743767Y-35147034D01*
X155105902Y-34997033D01*
X155598747Y-34899000D01*
X156101253Y-34899000D01*
X156594098Y-34997033D01*
G37*
G36*
X190061000Y-39701000D02*
G01*
X188259000Y-39701000D01*
X188259000Y-37899000D01*
X190061000Y-37899000D01*
X190061000Y-39701000D01*
G37*
G36*
X191813512Y-37903927D02*
G01*
X191962812Y-37933624D01*
X192126784Y-38001544D01*
X192274354Y-38100147D01*
X192399853Y-38225646D01*
X192498456Y-38373216D01*
X192566376Y-38537188D01*
X192601000Y-38711259D01*
X192601000Y-38888741D01*
X192566376Y-39062812D01*
X192498456Y-39226784D01*
X192399853Y-39374354D01*
X192274354Y-39499853D01*
X192126784Y-39598456D01*
X191962812Y-39666376D01*
X191813512Y-39696073D01*
X191788742Y-39701000D01*
X191611258Y-39701000D01*
X191586488Y-39696073D01*
X191437188Y-39666376D01*
X191273216Y-39598456D01*
X191125646Y-39499853D01*
X191000147Y-39374354D01*
X190901544Y-39226784D01*
X190833624Y-39062812D01*
X190799000Y-38888741D01*
X190799000Y-38711259D01*
X190833624Y-38537188D01*
X190901544Y-38373216D01*
X191000147Y-38225646D01*
X191125646Y-38100147D01*
X191273216Y-38001544D01*
X191437188Y-37933624D01*
X191586488Y-37903927D01*
X191611258Y-37899000D01*
X191788742Y-37899000D01*
X191813512Y-37903927D01*
G37*
G36*
X194353512Y-37903927D02*
G01*
X194502812Y-37933624D01*
X194666784Y-38001544D01*
X194814354Y-38100147D01*
X194939853Y-38225646D01*
X195038456Y-38373216D01*
X195106376Y-38537188D01*
X195141000Y-38711259D01*
X195141000Y-38888741D01*
X195106376Y-39062812D01*
X195038456Y-39226784D01*
X194939853Y-39374354D01*
X194814354Y-39499853D01*
X194666784Y-39598456D01*
X194502812Y-39666376D01*
X194353512Y-39696073D01*
X194328742Y-39701000D01*
X194151258Y-39701000D01*
X194126488Y-39696073D01*
X193977188Y-39666376D01*
X193813216Y-39598456D01*
X193665646Y-39499853D01*
X193540147Y-39374354D01*
X193441544Y-39226784D01*
X193373624Y-39062812D01*
X193339000Y-38888741D01*
X193339000Y-38711259D01*
X193373624Y-38537188D01*
X193441544Y-38373216D01*
X193540147Y-38225646D01*
X193665646Y-38100147D01*
X193813216Y-38001544D01*
X193977188Y-37933624D01*
X194126488Y-37903927D01*
X194151258Y-37899000D01*
X194328742Y-37899000D01*
X194353512Y-37903927D01*
G37*
G36*
X181850063Y-37851252D02*
G01*
X182012812Y-37883624D01*
X182176784Y-37951544D01*
X182324354Y-38050147D01*
X182449853Y-38175646D01*
X182548456Y-38323216D01*
X182616376Y-38487188D01*
X182646073Y-38636488D01*
X182650422Y-38658350D01*
X182651000Y-38661259D01*
X182651000Y-38838741D01*
X182616376Y-39012812D01*
X182548456Y-39176784D01*
X182449853Y-39324354D01*
X182324354Y-39449853D01*
X182176784Y-39548456D01*
X182012812Y-39616376D01*
X181863512Y-39646073D01*
X181838742Y-39651000D01*
X181661258Y-39651000D01*
X181636488Y-39646073D01*
X181487188Y-39616376D01*
X181323216Y-39548456D01*
X181175646Y-39449853D01*
X181050147Y-39324354D01*
X180951544Y-39176784D01*
X180883624Y-39012812D01*
X180849000Y-38838741D01*
X180849000Y-38661259D01*
X180849579Y-38658350D01*
X180853927Y-38636488D01*
X180883624Y-38487188D01*
X180951544Y-38323216D01*
X181050147Y-38175646D01*
X181175646Y-38050147D01*
X181323216Y-37951544D01*
X181487188Y-37883624D01*
X181649937Y-37851252D01*
X181661258Y-37849000D01*
X181838742Y-37849000D01*
X181850063Y-37851252D01*
G37*
G36*
X179310063Y-37851252D02*
G01*
X179472812Y-37883624D01*
X179636784Y-37951544D01*
X179784354Y-38050147D01*
X179909853Y-38175646D01*
X180008456Y-38323216D01*
X180076376Y-38487188D01*
X180106073Y-38636488D01*
X180110422Y-38658350D01*
X180111000Y-38661259D01*
X180111000Y-38838741D01*
X180076376Y-39012812D01*
X180008456Y-39176784D01*
X179909853Y-39324354D01*
X179784354Y-39449853D01*
X179636784Y-39548456D01*
X179472812Y-39616376D01*
X179323512Y-39646073D01*
X179298742Y-39651000D01*
X179121258Y-39651000D01*
X179096488Y-39646073D01*
X178947188Y-39616376D01*
X178783216Y-39548456D01*
X178635646Y-39449853D01*
X178510147Y-39324354D01*
X178411544Y-39176784D01*
X178343624Y-39012812D01*
X178309000Y-38838741D01*
X178309000Y-38661259D01*
X178309579Y-38658350D01*
X178313927Y-38636488D01*
X178343624Y-38487188D01*
X178411544Y-38323216D01*
X178510147Y-38175646D01*
X178635646Y-38050147D01*
X178783216Y-37951544D01*
X178947188Y-37883624D01*
X179109937Y-37851252D01*
X179121258Y-37849000D01*
X179298742Y-37849000D01*
X179310063Y-37851252D01*
G37*
G36*
X169951000Y-39651000D02*
G01*
X168149000Y-39651000D01*
X168149000Y-37849000D01*
X169951000Y-37849000D01*
X169951000Y-39651000D01*
G37*
G36*
X176770063Y-37851252D02*
G01*
X176932812Y-37883624D01*
X177096784Y-37951544D01*
X177244354Y-38050147D01*
X177369853Y-38175646D01*
X177468456Y-38323216D01*
X177536376Y-38487188D01*
X177566073Y-38636488D01*
X177570422Y-38658350D01*
X177571000Y-38661259D01*
X177571000Y-38838741D01*
X177536376Y-39012812D01*
X177468456Y-39176784D01*
X177369853Y-39324354D01*
X177244354Y-39449853D01*
X177096784Y-39548456D01*
X176932812Y-39616376D01*
X176783512Y-39646073D01*
X176758742Y-39651000D01*
X176581258Y-39651000D01*
X176556488Y-39646073D01*
X176407188Y-39616376D01*
X176243216Y-39548456D01*
X176095646Y-39449853D01*
X175970147Y-39324354D01*
X175871544Y-39176784D01*
X175803624Y-39012812D01*
X175769000Y-38838741D01*
X175769000Y-38661259D01*
X175769579Y-38658350D01*
X175773927Y-38636488D01*
X175803624Y-38487188D01*
X175871544Y-38323216D01*
X175970147Y-38175646D01*
X176095646Y-38050147D01*
X176243216Y-37951544D01*
X176407188Y-37883624D01*
X176569937Y-37851252D01*
X176581258Y-37849000D01*
X176758742Y-37849000D01*
X176770063Y-37851252D01*
G37*
G36*
X174230063Y-37851252D02*
G01*
X174392812Y-37883624D01*
X174556784Y-37951544D01*
X174704354Y-38050147D01*
X174829853Y-38175646D01*
X174928456Y-38323216D01*
X174996376Y-38487188D01*
X175026073Y-38636488D01*
X175030422Y-38658350D01*
X175031000Y-38661259D01*
X175031000Y-38838741D01*
X174996376Y-39012812D01*
X174928456Y-39176784D01*
X174829853Y-39324354D01*
X174704354Y-39449853D01*
X174556784Y-39548456D01*
X174392812Y-39616376D01*
X174243512Y-39646073D01*
X174218742Y-39651000D01*
X174041258Y-39651000D01*
X174016488Y-39646073D01*
X173867188Y-39616376D01*
X173703216Y-39548456D01*
X173555646Y-39449853D01*
X173430147Y-39324354D01*
X173331544Y-39176784D01*
X173263624Y-39012812D01*
X173229000Y-38838741D01*
X173229000Y-38661259D01*
X173229579Y-38658350D01*
X173233927Y-38636488D01*
X173263624Y-38487188D01*
X173331544Y-38323216D01*
X173430147Y-38175646D01*
X173555646Y-38050147D01*
X173703216Y-37951544D01*
X173867188Y-37883624D01*
X174029937Y-37851252D01*
X174041258Y-37849000D01*
X174218742Y-37849000D01*
X174230063Y-37851252D01*
G37*
G36*
X171690063Y-37851252D02*
G01*
X171852812Y-37883624D01*
X172016784Y-37951544D01*
X172164354Y-38050147D01*
X172289853Y-38175646D01*
X172388456Y-38323216D01*
X172456376Y-38487188D01*
X172486073Y-38636488D01*
X172490422Y-38658350D01*
X172491000Y-38661259D01*
X172491000Y-38838741D01*
X172456376Y-39012812D01*
X172388456Y-39176784D01*
X172289853Y-39324354D01*
X172164354Y-39449853D01*
X172016784Y-39548456D01*
X171852812Y-39616376D01*
X171703512Y-39646073D01*
X171678742Y-39651000D01*
X171501258Y-39651000D01*
X171476488Y-39646073D01*
X171327188Y-39616376D01*
X171163216Y-39548456D01*
X171015646Y-39449853D01*
X170890147Y-39324354D01*
X170791544Y-39176784D01*
X170723624Y-39012812D01*
X170689000Y-38838741D01*
X170689000Y-38661259D01*
X170689579Y-38658350D01*
X170693927Y-38636488D01*
X170723624Y-38487188D01*
X170791544Y-38323216D01*
X170890147Y-38175646D01*
X171015646Y-38050147D01*
X171163216Y-37951544D01*
X171327188Y-37883624D01*
X171489937Y-37851252D01*
X171501258Y-37849000D01*
X171678742Y-37849000D01*
X171690063Y-37851252D01*
G37*
M02*
