G04 #@! TF.GenerationSoftware,KiCad,Pcbnew,(5.1.5)-3*
G04 #@! TF.CreationDate,2022-01-18T22:05:29-03:00*
G04 #@! TF.ProjectId,Base,42617365-2e6b-4696-9361-645f70636258,rev?*
G04 #@! TF.SameCoordinates,Original*
G04 #@! TF.FileFunction,Copper,L2,Bot*
G04 #@! TF.FilePolarity,Positive*
%FSLAX46Y46*%
G04 Gerber Fmt 4.6, Leading zero omitted, Abs format (unit mm)*
G04 Created by KiCad (PCBNEW (5.1.5)-3) date 2022-01-18 22:05:29*
%MOMM*%
%LPD*%
G04 APERTURE LIST*
%ADD10C,0.375000*%
%ADD11C,0.200000*%
%ADD12C,5.000000*%
%ADD13C,1.600000*%
%ADD14O,1.600000X1.600000*%
%ADD15R,1.727200X1.727200*%
%ADD16O,1.727200X1.727200*%
%ADD17R,1.600000X1.600000*%
%ADD18R,1.700000X1.700000*%
%ADD19O,1.700000X1.700000*%
%ADD20R,1.800000X1.800000*%
%ADD21C,1.800000*%
%ADD22O,1.350000X1.350000*%
%ADD23R,1.350000X1.350000*%
%ADD24C,1.700000*%
%ADD25C,1.500000*%
%ADD26R,2.800000X2.800000*%
%ADD27O,2.800000X2.800000*%
%ADD28C,2.000000*%
%ADD29C,0.100000*%
%ADD30R,1.100000X1.800000*%
%ADD31C,1.000000*%
%ADD32C,0.250000*%
%ADD33C,0.254000*%
G04 APERTURE END LIST*
D10*
X152000000Y-98457142D02*
X151785714Y-98528571D01*
X151428571Y-98528571D01*
X151285714Y-98457142D01*
X151214285Y-98385714D01*
X151142857Y-98242857D01*
X151142857Y-98100000D01*
X151214285Y-97957142D01*
X151285714Y-97885714D01*
X151428571Y-97814285D01*
X151714285Y-97742857D01*
X151857142Y-97671428D01*
X151928571Y-97600000D01*
X152000000Y-97457142D01*
X152000000Y-97314285D01*
X151928571Y-97171428D01*
X151857142Y-97100000D01*
X151714285Y-97028571D01*
X151357142Y-97028571D01*
X151142857Y-97100000D01*
X149928571Y-98457142D02*
X150071428Y-98528571D01*
X150357142Y-98528571D01*
X150500000Y-98457142D01*
X150571428Y-98314285D01*
X150571428Y-97742857D01*
X150500000Y-97600000D01*
X150357142Y-97528571D01*
X150071428Y-97528571D01*
X149928571Y-97600000D01*
X149857142Y-97742857D01*
X149857142Y-97885714D01*
X150571428Y-98028571D01*
X149214285Y-97528571D02*
X149214285Y-98528571D01*
X149214285Y-97671428D02*
X149142857Y-97600000D01*
X149000000Y-97528571D01*
X148785714Y-97528571D01*
X148642857Y-97600000D01*
X148571428Y-97742857D01*
X148571428Y-98528571D01*
X147928571Y-98457142D02*
X147785714Y-98528571D01*
X147500000Y-98528571D01*
X147357142Y-98457142D01*
X147285714Y-98314285D01*
X147285714Y-98242857D01*
X147357142Y-98100000D01*
X147500000Y-98028571D01*
X147714285Y-98028571D01*
X147857142Y-97957142D01*
X147928571Y-97814285D01*
X147928571Y-97742857D01*
X147857142Y-97600000D01*
X147714285Y-97528571D01*
X147500000Y-97528571D01*
X147357142Y-97600000D01*
X146428571Y-98528571D02*
X146571428Y-98457142D01*
X146642857Y-98385714D01*
X146714285Y-98242857D01*
X146714285Y-97814285D01*
X146642857Y-97671428D01*
X146571428Y-97600000D01*
X146428571Y-97528571D01*
X146214285Y-97528571D01*
X146071428Y-97600000D01*
X146000000Y-97671428D01*
X145928571Y-97814285D01*
X145928571Y-98242857D01*
X146000000Y-98385714D01*
X146071428Y-98457142D01*
X146214285Y-98528571D01*
X146428571Y-98528571D01*
X145285714Y-98528571D02*
X145285714Y-97528571D01*
X145285714Y-97814285D02*
X145214285Y-97671428D01*
X145142857Y-97600000D01*
X145000000Y-97528571D01*
X144857142Y-97528571D01*
X143214285Y-98528571D02*
X143214285Y-97028571D01*
X142642857Y-97028571D01*
X142500000Y-97100000D01*
X142428571Y-97171428D01*
X142357142Y-97314285D01*
X142357142Y-97528571D01*
X142428571Y-97671428D01*
X142500000Y-97742857D01*
X142642857Y-97814285D01*
X143214285Y-97814285D01*
X141714285Y-98528571D02*
X141714285Y-97528571D01*
X141714285Y-97814285D02*
X141642857Y-97671428D01*
X141571428Y-97600000D01*
X141428571Y-97528571D01*
X141285714Y-97528571D01*
X140214285Y-98457142D02*
X140357142Y-98528571D01*
X140642857Y-98528571D01*
X140785714Y-98457142D01*
X140857142Y-98314285D01*
X140857142Y-97742857D01*
X140785714Y-97600000D01*
X140642857Y-97528571D01*
X140357142Y-97528571D01*
X140214285Y-97600000D01*
X140142857Y-97742857D01*
X140142857Y-97885714D01*
X140857142Y-98028571D01*
X139571428Y-98457142D02*
X139428571Y-98528571D01*
X139142857Y-98528571D01*
X139000000Y-98457142D01*
X138928571Y-98314285D01*
X138928571Y-98242857D01*
X139000000Y-98100000D01*
X139142857Y-98028571D01*
X139357142Y-98028571D01*
X139500000Y-97957142D01*
X139571428Y-97814285D01*
X139571428Y-97742857D01*
X139500000Y-97600000D01*
X139357142Y-97528571D01*
X139142857Y-97528571D01*
X139000000Y-97600000D01*
X138285714Y-98528571D02*
X138285714Y-97528571D01*
X138285714Y-97028571D02*
X138357142Y-97100000D01*
X138285714Y-97171428D01*
X138214285Y-97100000D01*
X138285714Y-97028571D01*
X138285714Y-97171428D01*
X137357142Y-98528571D02*
X137500000Y-98457142D01*
X137571428Y-98385714D01*
X137642857Y-98242857D01*
X137642857Y-97814285D01*
X137571428Y-97671428D01*
X137500000Y-97600000D01*
X137357142Y-97528571D01*
X137142857Y-97528571D01*
X137000000Y-97600000D01*
X136928571Y-97671428D01*
X136857142Y-97814285D01*
X136857142Y-98242857D01*
X136928571Y-98385714D01*
X137000000Y-98457142D01*
X137142857Y-98528571D01*
X137357142Y-98528571D01*
X137071428Y-96957142D02*
X137285714Y-97171428D01*
X136214285Y-97528571D02*
X136214285Y-98528571D01*
X136214285Y-97671428D02*
X136142857Y-97600000D01*
X136000000Y-97528571D01*
X135785714Y-97528571D01*
X135642857Y-97600000D01*
X135571428Y-97742857D01*
X135571428Y-98528571D01*
D11*
X148242857Y-34242857D02*
X147957142Y-35042857D01*
X147671428Y-34242857D01*
X146585714Y-35042857D02*
X147271428Y-35042857D01*
X146928571Y-35042857D02*
X146928571Y-33842857D01*
X147042857Y-34014285D01*
X147157142Y-34128571D01*
X147271428Y-34185714D01*
X146071428Y-34928571D02*
X146014285Y-34985714D01*
X146071428Y-35042857D01*
X146128571Y-34985714D01*
X146071428Y-34928571D01*
X146071428Y-35042857D01*
X145271428Y-33842857D02*
X145157142Y-33842857D01*
X145042857Y-33900000D01*
X144985714Y-33957142D01*
X144928571Y-34071428D01*
X144871428Y-34300000D01*
X144871428Y-34585714D01*
X144928571Y-34814285D01*
X144985714Y-34928571D01*
X145042857Y-34985714D01*
X145157142Y-35042857D01*
X145271428Y-35042857D01*
X145385714Y-34985714D01*
X145442857Y-34928571D01*
X145500000Y-34814285D01*
X145557142Y-34585714D01*
X145557142Y-34300000D01*
X145500000Y-34071428D01*
X145442857Y-33957142D01*
X145385714Y-33900000D01*
X145271428Y-33842857D01*
X143214285Y-33842857D02*
X143100000Y-33842857D01*
X142985714Y-33900000D01*
X142928571Y-33957142D01*
X142871428Y-34071428D01*
X142814285Y-34300000D01*
X142814285Y-34585714D01*
X142871428Y-34814285D01*
X142928571Y-34928571D01*
X142985714Y-34985714D01*
X143100000Y-35042857D01*
X143214285Y-35042857D01*
X143328571Y-34985714D01*
X143385714Y-34928571D01*
X143442857Y-34814285D01*
X143500000Y-34585714D01*
X143500000Y-34300000D01*
X143442857Y-34071428D01*
X143385714Y-33957142D01*
X143328571Y-33900000D01*
X143214285Y-33842857D01*
X141671428Y-35042857D02*
X142357142Y-35042857D01*
X142014285Y-35042857D02*
X142014285Y-33842857D01*
X142128571Y-34014285D01*
X142242857Y-34128571D01*
X142357142Y-34185714D01*
X141157142Y-34585714D02*
X140242857Y-34585714D01*
X139728571Y-33957142D02*
X139671428Y-33900000D01*
X139557142Y-33842857D01*
X139271428Y-33842857D01*
X139157142Y-33900000D01*
X139100000Y-33957142D01*
X139042857Y-34071428D01*
X139042857Y-34185714D01*
X139100000Y-34357142D01*
X139785714Y-35042857D01*
X139042857Y-35042857D01*
X138300000Y-33842857D02*
X138185714Y-33842857D01*
X138071428Y-33900000D01*
X138014285Y-33957142D01*
X137957142Y-34071428D01*
X137900000Y-34300000D01*
X137900000Y-34585714D01*
X137957142Y-34814285D01*
X138014285Y-34928571D01*
X138071428Y-34985714D01*
X138185714Y-35042857D01*
X138300000Y-35042857D01*
X138414285Y-34985714D01*
X138471428Y-34928571D01*
X138528571Y-34814285D01*
X138585714Y-34585714D01*
X138585714Y-34300000D01*
X138528571Y-34071428D01*
X138471428Y-33957142D01*
X138414285Y-33900000D01*
X138300000Y-33842857D01*
X137442857Y-33957142D02*
X137385714Y-33900000D01*
X137271428Y-33842857D01*
X136985714Y-33842857D01*
X136871428Y-33900000D01*
X136814285Y-33957142D01*
X136757142Y-34071428D01*
X136757142Y-34185714D01*
X136814285Y-34357142D01*
X137500000Y-35042857D01*
X136757142Y-35042857D01*
X136300000Y-33957142D02*
X136242857Y-33900000D01*
X136128571Y-33842857D01*
X135842857Y-33842857D01*
X135728571Y-33900000D01*
X135671428Y-33957142D01*
X135614285Y-34071428D01*
X135614285Y-34185714D01*
X135671428Y-34357142D01*
X136357142Y-35042857D01*
X135614285Y-35042857D01*
D10*
X152050000Y-96157142D02*
X151835714Y-96228571D01*
X151478571Y-96228571D01*
X151335714Y-96157142D01*
X151264285Y-96085714D01*
X151192857Y-95942857D01*
X151192857Y-95800000D01*
X151264285Y-95657142D01*
X151335714Y-95585714D01*
X151478571Y-95514285D01*
X151764285Y-95442857D01*
X151907142Y-95371428D01*
X151978571Y-95300000D01*
X152050000Y-95157142D01*
X152050000Y-95014285D01*
X151978571Y-94871428D01*
X151907142Y-94800000D01*
X151764285Y-94728571D01*
X151407142Y-94728571D01*
X151192857Y-94800000D01*
X149907142Y-95228571D02*
X149907142Y-96228571D01*
X150550000Y-95228571D02*
X150550000Y-96014285D01*
X150478571Y-96157142D01*
X150335714Y-96228571D01*
X150121428Y-96228571D01*
X149978571Y-96157142D01*
X149907142Y-96085714D01*
X149192857Y-96228571D02*
X149192857Y-94728571D01*
X149192857Y-95300000D02*
X149050000Y-95228571D01*
X148764285Y-95228571D01*
X148621428Y-95300000D01*
X148550000Y-95371428D01*
X148478571Y-95514285D01*
X148478571Y-95942857D01*
X148550000Y-96085714D01*
X148621428Y-96157142D01*
X148764285Y-96228571D01*
X149050000Y-96228571D01*
X149192857Y-96157142D01*
X147264285Y-96157142D02*
X147407142Y-96228571D01*
X147692857Y-96228571D01*
X147835714Y-96157142D01*
X147907142Y-96014285D01*
X147907142Y-95442857D01*
X147835714Y-95300000D01*
X147692857Y-95228571D01*
X147407142Y-95228571D01*
X147264285Y-95300000D01*
X147192857Y-95442857D01*
X147192857Y-95585714D01*
X147907142Y-95728571D01*
X146621428Y-96157142D02*
X146478571Y-96228571D01*
X146192857Y-96228571D01*
X146050000Y-96157142D01*
X145978571Y-96014285D01*
X145978571Y-95942857D01*
X146050000Y-95800000D01*
X146192857Y-95728571D01*
X146407142Y-95728571D01*
X146550000Y-95657142D01*
X146621428Y-95514285D01*
X146621428Y-95442857D01*
X146550000Y-95300000D01*
X146407142Y-95228571D01*
X146192857Y-95228571D01*
X146050000Y-95300000D01*
X145550000Y-95228571D02*
X144978571Y-95228571D01*
X145335714Y-94728571D02*
X145335714Y-96014285D01*
X145264285Y-96157142D01*
X145121428Y-96228571D01*
X144978571Y-96228571D01*
X143835714Y-96228571D02*
X143835714Y-95442857D01*
X143907142Y-95300000D01*
X144050000Y-95228571D01*
X144335714Y-95228571D01*
X144478571Y-95300000D01*
X143835714Y-96157142D02*
X143978571Y-96228571D01*
X144335714Y-96228571D01*
X144478571Y-96157142D01*
X144550000Y-96014285D01*
X144550000Y-95871428D01*
X144478571Y-95728571D01*
X144335714Y-95657142D01*
X143978571Y-95657142D01*
X143835714Y-95585714D01*
X142478571Y-96157142D02*
X142621428Y-96228571D01*
X142907142Y-96228571D01*
X143050000Y-96157142D01*
X143121428Y-96085714D01*
X143192857Y-95942857D01*
X143192857Y-95514285D01*
X143121428Y-95371428D01*
X143050000Y-95300000D01*
X142907142Y-95228571D01*
X142621428Y-95228571D01*
X142478571Y-95300000D01*
X141835714Y-96228571D02*
X141835714Y-95228571D01*
X141835714Y-94728571D02*
X141907142Y-94800000D01*
X141835714Y-94871428D01*
X141764285Y-94800000D01*
X141835714Y-94728571D01*
X141835714Y-94871428D01*
X140907142Y-96228571D02*
X141050000Y-96157142D01*
X141121428Y-96085714D01*
X141192857Y-95942857D01*
X141192857Y-95514285D01*
X141121428Y-95371428D01*
X141050000Y-95300000D01*
X140907142Y-95228571D01*
X140692857Y-95228571D01*
X140550000Y-95300000D01*
X140478571Y-95371428D01*
X140407142Y-95514285D01*
X140407142Y-95942857D01*
X140478571Y-96085714D01*
X140550000Y-96157142D01*
X140692857Y-96228571D01*
X140907142Y-96228571D01*
X139764285Y-95228571D02*
X139764285Y-96228571D01*
X139764285Y-95371428D02*
X139692857Y-95300000D01*
X139550000Y-95228571D01*
X139335714Y-95228571D01*
X139192857Y-95300000D01*
X139121428Y-95442857D01*
X139121428Y-96228571D01*
D12*
X215550000Y-83350000D03*
X158100000Y-87050000D03*
X155850000Y-37450000D03*
X214500000Y-37600000D03*
D13*
X201050000Y-67600000D03*
X201050000Y-73500000D03*
X169100000Y-41450000D03*
X211600000Y-41400000D03*
X211650000Y-88700000D03*
X191950000Y-88700000D03*
D14*
X159800000Y-95880000D03*
D13*
X159800000Y-103500000D03*
D15*
X211800000Y-94100000D03*
D16*
X211800000Y-96640000D03*
X209260000Y-94100000D03*
X209260000Y-96640000D03*
X206720000Y-94100000D03*
X206720000Y-96640000D03*
X204180000Y-94100000D03*
X204180000Y-96640000D03*
X201640000Y-94100000D03*
X201640000Y-96640000D03*
D13*
X208100000Y-43600000D03*
D14*
X208100000Y-51220000D03*
X179820000Y-50600000D03*
X172200000Y-83620000D03*
X179820000Y-53140000D03*
X172200000Y-81080000D03*
X179820000Y-55680000D03*
X172200000Y-78540000D03*
X179820000Y-58220000D03*
X172200000Y-76000000D03*
X179820000Y-60760000D03*
X172200000Y-73460000D03*
X179820000Y-63300000D03*
X172200000Y-70920000D03*
X179820000Y-65840000D03*
X172200000Y-68380000D03*
X179820000Y-68380000D03*
X172200000Y-65840000D03*
X179820000Y-70920000D03*
X172200000Y-63300000D03*
X179820000Y-73460000D03*
X172200000Y-60760000D03*
X179820000Y-76000000D03*
X172200000Y-58220000D03*
X179820000Y-78540000D03*
X172200000Y-55680000D03*
X179820000Y-81080000D03*
X172200000Y-53140000D03*
X179820000Y-83620000D03*
D17*
X172200000Y-50600000D03*
D14*
X195520000Y-52000000D03*
D13*
X187900000Y-52000000D03*
X187900000Y-57200000D03*
D14*
X195520000Y-57200000D03*
D18*
X189160000Y-38800000D03*
D19*
X191700000Y-38800000D03*
X194240000Y-38800000D03*
D13*
X135300000Y-76400000D03*
X135300000Y-81400000D03*
X131600000Y-70000000D03*
X131600000Y-78400000D03*
X150000000Y-70250000D03*
X150000000Y-82000000D03*
X152750000Y-84500000D03*
X152775000Y-60025000D03*
X210500000Y-81000000D03*
X205500000Y-81000000D03*
X159400000Y-66800000D03*
X159400000Y-69300000D03*
X159400000Y-74300000D03*
X159400000Y-76800000D03*
D17*
X168600000Y-89200000D03*
D13*
X166100000Y-89200000D03*
X184350000Y-89550000D03*
D17*
X184350000Y-87050000D03*
D20*
X208100000Y-58000000D03*
D21*
X208100000Y-55460000D03*
D20*
X201600000Y-58100000D03*
D21*
X201600000Y-55560000D03*
D22*
X146400000Y-65800000D03*
X146400000Y-63800000D03*
X144400000Y-65800000D03*
X144400000Y-63800000D03*
X142400000Y-65800000D03*
X142400000Y-63800000D03*
X140400000Y-65800000D03*
X140400000Y-63800000D03*
X138400000Y-65800000D03*
X138400000Y-63800000D03*
X136400000Y-65800000D03*
X136400000Y-63800000D03*
X134400000Y-65800000D03*
X134400000Y-63800000D03*
X132400000Y-65800000D03*
X132400000Y-63800000D03*
X130400000Y-65800000D03*
X130400000Y-63800000D03*
X128400000Y-65800000D03*
D23*
X128400000Y-63800000D03*
D18*
X146200000Y-76800000D03*
D19*
X146200000Y-79340000D03*
X146200000Y-81880000D03*
X146200000Y-84420000D03*
X146200000Y-86960000D03*
X146200000Y-89500000D03*
D23*
X128400000Y-39800000D03*
D22*
X128400000Y-41800000D03*
X130400000Y-39800000D03*
X130400000Y-41800000D03*
X132400000Y-39800000D03*
X132400000Y-41800000D03*
X134400000Y-39800000D03*
X134400000Y-41800000D03*
X136400000Y-39800000D03*
X136400000Y-41800000D03*
X138400000Y-39800000D03*
X138400000Y-41800000D03*
X140400000Y-39800000D03*
X140400000Y-41800000D03*
X142400000Y-39800000D03*
X142400000Y-41800000D03*
X144400000Y-39800000D03*
X144400000Y-41800000D03*
X146400000Y-39800000D03*
X146400000Y-41800000D03*
D13*
X204100000Y-76300000D03*
D14*
X211720000Y-76300000D03*
X201600000Y-51120000D03*
D13*
X201600000Y-43500000D03*
X191700000Y-103500000D03*
D14*
X191700000Y-95880000D03*
D24*
X164100000Y-50550000D03*
X164100000Y-44050000D03*
X168600000Y-50550000D03*
X168600000Y-44050000D03*
X170600000Y-98600000D03*
X164100000Y-98600000D03*
X170600000Y-94100000D03*
X164100000Y-94100000D03*
X181050000Y-94050000D03*
X187550000Y-94050000D03*
X181050000Y-98550000D03*
X187550000Y-98550000D03*
D25*
X165000000Y-69400000D03*
X165000000Y-74280000D03*
D17*
X141750000Y-72750000D03*
D13*
X141750000Y-70250000D03*
X135250000Y-70250000D03*
D17*
X135250000Y-72750000D03*
D18*
X169050000Y-38750000D03*
D19*
X171590000Y-38750000D03*
X174130000Y-38750000D03*
X176670000Y-38750000D03*
X179210000Y-38750000D03*
X181750000Y-38750000D03*
D13*
X186500000Y-68400000D03*
X184000000Y-68400000D03*
X197300000Y-77500000D03*
X194800000Y-77500000D03*
X190400000Y-71650000D03*
X190400000Y-69150000D03*
D26*
X214750000Y-60650000D03*
D27*
X214750000Y-70810000D03*
D28*
X198100000Y-70700000D03*
X194100000Y-70700000D03*
G04 #@! TA.AperFunction,ComponentPad*
D29*
G36*
X192131955Y-46471324D02*
G01*
X192158650Y-46475284D01*
X192184828Y-46481841D01*
X192210238Y-46490933D01*
X192234634Y-46502472D01*
X192257782Y-46516346D01*
X192279458Y-46532422D01*
X192299454Y-46550546D01*
X192317578Y-46570542D01*
X192333654Y-46592218D01*
X192347528Y-46615366D01*
X192359067Y-46639762D01*
X192368159Y-46665172D01*
X192374716Y-46691350D01*
X192378676Y-46718045D01*
X192380000Y-46745000D01*
X192380000Y-47995000D01*
X192378676Y-48021955D01*
X192374716Y-48048650D01*
X192368159Y-48074828D01*
X192359067Y-48100238D01*
X192347528Y-48124634D01*
X192333654Y-48147782D01*
X192317578Y-48169458D01*
X192299454Y-48189454D01*
X192279458Y-48207578D01*
X192257782Y-48223654D01*
X192234634Y-48237528D01*
X192210238Y-48249067D01*
X192184828Y-48258159D01*
X192158650Y-48264716D01*
X192131955Y-48268676D01*
X192105000Y-48270000D01*
X191555000Y-48270000D01*
X191528045Y-48268676D01*
X191501350Y-48264716D01*
X191475172Y-48258159D01*
X191449762Y-48249067D01*
X191425366Y-48237528D01*
X191402218Y-48223654D01*
X191380542Y-48207578D01*
X191360546Y-48189454D01*
X191342422Y-48169458D01*
X191326346Y-48147782D01*
X191312472Y-48124634D01*
X191300933Y-48100238D01*
X191291841Y-48074828D01*
X191285284Y-48048650D01*
X191281324Y-48021955D01*
X191280000Y-47995000D01*
X191280000Y-46745000D01*
X191281324Y-46718045D01*
X191285284Y-46691350D01*
X191291841Y-46665172D01*
X191300933Y-46639762D01*
X191312472Y-46615366D01*
X191326346Y-46592218D01*
X191342422Y-46570542D01*
X191360546Y-46550546D01*
X191380542Y-46532422D01*
X191402218Y-46516346D01*
X191425366Y-46502472D01*
X191449762Y-46490933D01*
X191475172Y-46481841D01*
X191501350Y-46475284D01*
X191528045Y-46471324D01*
X191555000Y-46470000D01*
X192105000Y-46470000D01*
X192131955Y-46471324D01*
G37*
G04 #@! TD.AperFunction*
G04 #@! TA.AperFunction,ComponentPad*
G36*
X190861955Y-44401324D02*
G01*
X190888650Y-44405284D01*
X190914828Y-44411841D01*
X190940238Y-44420933D01*
X190964634Y-44432472D01*
X190987782Y-44446346D01*
X191009458Y-44462422D01*
X191029454Y-44480546D01*
X191047578Y-44500542D01*
X191063654Y-44522218D01*
X191077528Y-44545366D01*
X191089067Y-44569762D01*
X191098159Y-44595172D01*
X191104716Y-44621350D01*
X191108676Y-44648045D01*
X191110000Y-44675000D01*
X191110000Y-45925000D01*
X191108676Y-45951955D01*
X191104716Y-45978650D01*
X191098159Y-46004828D01*
X191089067Y-46030238D01*
X191077528Y-46054634D01*
X191063654Y-46077782D01*
X191047578Y-46099458D01*
X191029454Y-46119454D01*
X191009458Y-46137578D01*
X190987782Y-46153654D01*
X190964634Y-46167528D01*
X190940238Y-46179067D01*
X190914828Y-46188159D01*
X190888650Y-46194716D01*
X190861955Y-46198676D01*
X190835000Y-46200000D01*
X190285000Y-46200000D01*
X190258045Y-46198676D01*
X190231350Y-46194716D01*
X190205172Y-46188159D01*
X190179762Y-46179067D01*
X190155366Y-46167528D01*
X190132218Y-46153654D01*
X190110542Y-46137578D01*
X190090546Y-46119454D01*
X190072422Y-46099458D01*
X190056346Y-46077782D01*
X190042472Y-46054634D01*
X190030933Y-46030238D01*
X190021841Y-46004828D01*
X190015284Y-45978650D01*
X190011324Y-45951955D01*
X190010000Y-45925000D01*
X190010000Y-44675000D01*
X190011324Y-44648045D01*
X190015284Y-44621350D01*
X190021841Y-44595172D01*
X190030933Y-44569762D01*
X190042472Y-44545366D01*
X190056346Y-44522218D01*
X190072422Y-44500542D01*
X190090546Y-44480546D01*
X190110542Y-44462422D01*
X190132218Y-44446346D01*
X190155366Y-44432472D01*
X190179762Y-44420933D01*
X190205172Y-44411841D01*
X190231350Y-44405284D01*
X190258045Y-44401324D01*
X190285000Y-44400000D01*
X190835000Y-44400000D01*
X190861955Y-44401324D01*
G37*
G04 #@! TD.AperFunction*
D30*
X193100000Y-45300000D03*
D31*
X170650000Y-98550000D02*
X170600000Y-98600000D01*
D32*
X217320308Y-32883875D02*
X219750000Y-35313567D01*
X121855209Y-32849914D02*
X185500115Y-32883875D01*
X217336346Y-104900086D02*
X215844791Y-104900086D01*
X219750000Y-35313567D02*
X219750000Y-36600000D01*
X219652847Y-102583585D02*
X217336346Y-104900086D01*
X120378305Y-104864738D02*
X118049990Y-102536423D01*
X219652847Y-51397153D02*
X219652847Y-102583585D01*
X118049990Y-35163576D02*
X120363652Y-32849914D01*
X219750000Y-51300000D02*
X219652847Y-51397153D01*
X215844791Y-104900086D02*
X149599993Y-104864738D01*
X219750000Y-36650000D02*
X219750000Y-51300000D01*
X118049990Y-102536423D02*
X118049990Y-35163576D01*
X149599993Y-104864738D02*
X120378305Y-104864738D01*
X185500115Y-32883875D02*
X217320308Y-32883875D01*
X120363652Y-32849914D02*
X121855209Y-32849914D01*
D31*
X170600000Y-50600000D02*
X169400000Y-50600000D01*
X172200000Y-50600000D02*
X170600000Y-50600000D01*
X169400000Y-50600000D02*
X168400000Y-50600000D01*
X211720000Y-79780000D02*
X210500000Y-81000000D01*
X211720000Y-76300000D02*
X211720000Y-79780000D01*
X210500000Y-81000000D02*
X210500000Y-82200000D01*
X206720000Y-88580000D02*
X206720000Y-92878686D01*
X210500000Y-81000000D02*
X210500000Y-84800000D01*
X206720000Y-92878686D02*
X206720000Y-94100000D01*
X210500000Y-84800000D02*
X206720000Y-88580000D01*
X167750001Y-49700001D02*
X167750001Y-48900001D01*
X168600000Y-50550000D02*
X167750001Y-49700001D01*
X167750001Y-48900001D02*
X166200000Y-47350000D01*
X166200000Y-47350000D02*
X161350000Y-47350000D01*
X161350000Y-47350000D02*
X160700000Y-46700000D01*
X160650000Y-45105998D02*
X160650000Y-43400000D01*
X162600000Y-41450000D02*
X169100000Y-41450000D01*
X160650000Y-43400000D02*
X162600000Y-41450000D01*
X160700000Y-45155998D02*
X160650000Y-45105998D01*
X160700000Y-46700000D02*
X160700000Y-45155998D01*
X211600000Y-41700000D02*
X211600000Y-41400000D01*
X218450000Y-67489898D02*
X218450000Y-48550000D01*
X218450000Y-48550000D02*
X211600000Y-41700000D01*
X215179898Y-70760000D02*
X218450000Y-67489898D01*
X214750000Y-73270000D02*
X211720000Y-76300000D01*
X214750000Y-70810000D02*
X214750000Y-73270000D01*
X128400000Y-65800000D02*
X128400000Y-63800000D01*
X128400000Y-63800000D02*
X128400000Y-58600000D01*
X128400000Y-58600000D02*
X136200000Y-50800000D01*
X136200000Y-50800000D02*
X149400000Y-50800000D01*
X146200000Y-76800000D02*
X144350000Y-76800000D01*
X128400000Y-64800000D02*
X128200000Y-64600000D01*
X128400000Y-65800000D02*
X128200000Y-64600000D01*
X128200000Y-64600000D02*
X128400000Y-63200000D01*
X157950000Y-42250000D02*
X149400000Y-50800000D01*
X128400000Y-66754594D02*
X127750000Y-67404594D01*
X128400000Y-65800000D02*
X128400000Y-66754594D01*
X127750000Y-71500000D02*
X130000000Y-73750000D01*
X127750000Y-67404594D02*
X127750000Y-71500000D01*
X134250000Y-73750000D02*
X135250000Y-72750000D01*
X130000000Y-73750000D02*
X134250000Y-73750000D01*
X144000000Y-76800000D02*
X144350000Y-76800000D01*
X141750000Y-74550000D02*
X144000000Y-76800000D01*
X141750000Y-72750000D02*
X141750000Y-74550000D01*
X157950000Y-42250000D02*
X158000000Y-42250000D01*
X169050000Y-38750000D02*
X167200000Y-38750000D01*
X167200000Y-38750000D02*
X165250000Y-36800000D01*
X141750000Y-73650000D02*
X140800000Y-72700000D01*
X141750000Y-74550000D02*
X141750000Y-73650000D01*
X135250000Y-72750000D02*
X140800000Y-72700000D01*
X140800000Y-72700000D02*
X141750000Y-72750000D01*
X163700000Y-36800000D02*
X163600000Y-36700000D01*
X165250000Y-36800000D02*
X163700000Y-36800000D01*
X163600000Y-36700000D02*
X164250000Y-36000000D01*
X135300000Y-72800000D02*
X135250000Y-72750000D01*
X135300000Y-76400000D02*
X135300000Y-72800000D01*
X198100000Y-72114213D02*
X198100000Y-70700000D01*
X197300000Y-77500000D02*
X198099999Y-76700001D01*
X198099999Y-76700001D02*
X198100000Y-72114213D01*
X204100000Y-71900000D02*
X203200000Y-71000000D01*
X204100000Y-76300000D02*
X204100000Y-71900000D01*
X198200000Y-70800000D02*
X198100000Y-70700000D01*
X205100000Y-70800000D02*
X200300000Y-70800000D01*
X200300000Y-70800000D02*
X198200000Y-70800000D01*
X205100000Y-70900000D02*
X204100000Y-71900000D01*
X205100000Y-70800000D02*
X205100000Y-70900000D01*
X152900000Y-76800000D02*
X144000000Y-76800000D01*
X155625000Y-65150000D02*
X155625000Y-74075000D01*
X156675000Y-64100000D02*
X155625000Y-65150000D01*
X171068630Y-65840000D02*
X171028630Y-65800000D01*
X172200000Y-65840000D02*
X171068630Y-65840000D01*
X166775000Y-64100000D02*
X156675000Y-64100000D01*
X171028630Y-65800000D02*
X168475000Y-65800000D01*
X155625000Y-74075000D02*
X152900000Y-76800000D01*
X168475000Y-65800000D02*
X166775000Y-64100000D01*
X201700000Y-43600000D02*
X201600000Y-43500000D01*
X208100000Y-43600000D02*
X201700000Y-43600000D01*
X211800000Y-99200000D02*
X211800000Y-96640000D01*
X211000000Y-100000000D02*
X211800000Y-99200000D01*
X189160000Y-38800000D02*
X187310000Y-38800000D01*
X187310000Y-38800000D02*
X186200000Y-37690000D01*
X201600000Y-37625000D02*
X198025000Y-34050000D01*
X201600000Y-43500000D02*
X201600000Y-37625000D01*
X166650000Y-34050000D02*
X166250000Y-34050000D01*
X158000000Y-42250000D02*
X162750000Y-37550000D01*
X166250000Y-34050000D02*
X162750000Y-37550000D01*
X162750000Y-37550000D02*
X163600000Y-36700000D01*
X186200000Y-35000000D02*
X186200000Y-34950000D01*
X186200000Y-37690000D02*
X186200000Y-35000000D01*
X186200000Y-35000000D02*
X186200000Y-34200000D01*
X186200000Y-34950000D02*
X187000000Y-34150000D01*
X198025000Y-34050000D02*
X187000000Y-34150000D01*
X186200000Y-34950000D02*
X186200000Y-34900000D01*
X187000000Y-34150000D02*
X185450000Y-34150000D01*
X186200000Y-34900000D02*
X185450000Y-34150000D01*
X185450000Y-34150000D02*
X166650000Y-34050000D01*
X159600000Y-103700000D02*
X133249999Y-103700000D01*
X133249999Y-103700000D02*
X133169049Y-103780950D01*
X133169049Y-103780950D02*
X131930289Y-103780289D01*
X127750000Y-99600000D02*
X127750000Y-71500000D01*
X131930289Y-103780289D02*
X127750000Y-99600000D01*
X161131370Y-103700000D02*
X187500000Y-103700000D01*
X160931370Y-103500000D02*
X161131370Y-103700000D01*
X159800000Y-103500000D02*
X160931370Y-103500000D01*
X191500000Y-103700000D02*
X191700000Y-103500000D01*
X187500000Y-103700000D02*
X191500000Y-103700000D01*
X193650000Y-103500000D02*
X197150000Y-100000000D01*
X191700000Y-103500000D02*
X193650000Y-103500000D01*
X197150000Y-100000000D02*
X211000000Y-100000000D01*
X205400000Y-70800000D02*
X200300000Y-70800000D01*
X214750000Y-60650000D02*
X214750000Y-61450000D01*
X214750000Y-61450000D02*
X205400000Y-70800000D01*
X214750000Y-50250000D02*
X214750000Y-60650000D01*
X208100000Y-43600000D02*
X214750000Y-50250000D01*
X172200000Y-83620000D02*
X172200000Y-83320008D01*
X172200000Y-84751370D02*
X172200000Y-83620000D01*
X172200000Y-92500000D02*
X172200000Y-83620000D01*
X170600000Y-94100000D02*
X172200000Y-92500000D01*
X168600000Y-91000000D02*
X168600000Y-89200000D01*
X168000000Y-91600000D02*
X168600000Y-91000000D01*
X161511370Y-91600000D02*
X168000000Y-91600000D01*
X170600000Y-91200000D02*
X168600000Y-89200000D01*
X170600000Y-94100000D02*
X170600000Y-91200000D01*
X159800000Y-93400000D02*
X161650000Y-91550000D01*
X159800000Y-95880000D02*
X159800000Y-93400000D01*
X180000000Y-83800000D02*
X179820000Y-83620000D01*
X186150000Y-87050000D02*
X184350000Y-87050000D01*
X188370000Y-89270000D02*
X186150000Y-87050000D01*
X183250000Y-87050000D02*
X179820000Y-83620000D01*
X184350000Y-87050000D02*
X183250000Y-87050000D01*
X188370000Y-89270000D02*
X188370000Y-89320000D01*
X188370000Y-89320000D02*
X190350000Y-91300000D01*
X190900001Y-91850001D02*
X190350000Y-91300000D01*
X190900001Y-95080001D02*
X190900001Y-91850001D01*
X191700000Y-95880000D02*
X190900001Y-95080001D01*
X189380000Y-95880000D02*
X187550000Y-94050000D01*
X191700000Y-95880000D02*
X189380000Y-95880000D01*
X208100000Y-58700000D02*
X208100000Y-58000000D01*
X179820000Y-63300000D02*
X203500000Y-63300000D01*
X203500000Y-63300000D02*
X208100000Y-58700000D01*
X180951370Y-60760000D02*
X180991370Y-60800000D01*
X179820000Y-60760000D02*
X180951370Y-60760000D01*
X180991370Y-60800000D02*
X199700000Y-60800000D01*
X199700000Y-60800000D02*
X201800000Y-58700000D01*
X144400000Y-65800000D02*
X144400000Y-63800000D01*
X142400000Y-63800000D02*
X142400000Y-65800000D01*
X140400000Y-65800000D02*
X140400000Y-63800000D01*
X138400000Y-63800000D02*
X138400000Y-65800000D01*
X136400000Y-65800000D02*
X136400000Y-63800000D01*
X134400000Y-63800000D02*
X134400000Y-65800000D01*
X130400000Y-65800000D02*
X130400000Y-63800000D01*
X171068630Y-53140000D02*
X172200000Y-53140000D01*
X137639998Y-53140000D02*
X171068630Y-53140000D01*
X130400000Y-60379998D02*
X137639998Y-53140000D01*
X130400000Y-63800000D02*
X130400000Y-60379998D01*
X132400000Y-64800000D02*
X132400000Y-63800000D01*
X132400000Y-65800000D02*
X132400000Y-64800000D01*
X132400000Y-62200000D02*
X132400000Y-63800000D01*
X172200000Y-55680000D02*
X138920000Y-55680000D01*
X138920000Y-55680000D02*
X132400000Y-62200000D01*
X179820000Y-78540000D02*
X181840000Y-78540000D01*
X181840000Y-78540000D02*
X192000000Y-88700000D01*
X211800000Y-88850000D02*
X211650000Y-88700000D01*
X211800000Y-94100000D02*
X211800000Y-88850000D01*
X180951370Y-73460000D02*
X179820000Y-73460000D01*
X184761314Y-73460000D02*
X180951370Y-73460000D01*
X204180000Y-92878686D02*
X184761314Y-73460000D01*
X204180000Y-94100000D02*
X204180000Y-92878686D01*
X183540000Y-76000000D02*
X201640000Y-94100000D01*
X179820000Y-76000000D02*
X183540000Y-76000000D01*
X171068630Y-81080000D02*
X170988630Y-81000000D01*
X172200000Y-81080000D02*
X171068630Y-81080000D01*
X146200000Y-79340000D02*
X155140000Y-79340000D01*
X156880000Y-81080000D02*
X172200000Y-81080000D01*
X155140000Y-79340000D02*
X156880000Y-81080000D01*
X146200000Y-81880000D02*
X150080000Y-81880000D01*
X168800000Y-63300000D02*
X172200000Y-63300000D01*
X167650000Y-62150000D02*
X168800000Y-63300000D01*
X155475000Y-62150000D02*
X167650000Y-62150000D01*
X150000000Y-70250000D02*
X150000000Y-67625000D01*
X150000000Y-67625000D02*
X155475000Y-62150000D01*
X146200000Y-84420000D02*
X152780000Y-84420000D01*
X168985000Y-60760000D02*
X172200000Y-60760000D01*
X152775000Y-60025000D02*
X168250000Y-60025000D01*
X168250000Y-60025000D02*
X168985000Y-60760000D01*
X128400000Y-39800000D02*
X128400000Y-41800000D01*
X130400000Y-41800000D02*
X130400000Y-39800000D01*
X132400000Y-39800000D02*
X132400000Y-41800000D01*
X134400000Y-39800000D02*
X134400000Y-41800000D01*
X136400000Y-39800000D02*
X136400000Y-41800000D01*
X138400000Y-41800000D02*
X138400000Y-39800000D01*
X140400000Y-39800000D02*
X140400000Y-41800000D01*
X142400000Y-41800000D02*
X142400000Y-39800000D01*
X144400000Y-39800000D02*
X144400000Y-41800000D01*
X146400000Y-41800000D02*
X146400000Y-39800000D01*
X159420000Y-74280000D02*
X159400000Y-74300000D01*
X165000000Y-74280000D02*
X159420000Y-74280000D01*
X168720000Y-74280000D02*
X169600000Y-73400000D01*
X165000000Y-74280000D02*
X168720000Y-74280000D01*
X169600000Y-73400000D02*
X172200000Y-73460000D01*
X164900000Y-69300000D02*
X165000000Y-69400000D01*
X159400000Y-69300000D02*
X164900000Y-69300000D01*
X166520000Y-70920000D02*
X165000000Y-69400000D01*
X172200000Y-70920000D02*
X166520000Y-70920000D01*
X183980000Y-68380000D02*
X184000000Y-68400000D01*
X179820000Y-68380000D02*
X183980000Y-68380000D01*
X179900000Y-71000000D02*
X179820000Y-70920000D01*
X187888630Y-70920000D02*
X179820000Y-70920000D01*
X187968630Y-71000000D02*
X187888630Y-70920000D01*
X190650000Y-71900000D02*
X190400000Y-71650000D01*
X194100000Y-70700000D02*
X192900000Y-71900000D01*
X192900000Y-71900000D02*
X190650000Y-71900000D01*
X187920000Y-70920000D02*
X187888630Y-70920000D01*
X190400000Y-71650000D02*
X190250000Y-71800000D01*
X188800000Y-71800000D02*
X187920000Y-70920000D01*
X190250000Y-71800000D02*
X188800000Y-71800000D01*
X208100000Y-51220000D02*
X208100000Y-55460000D01*
X201600000Y-51120000D02*
X201600000Y-55560000D01*
X179820000Y-49468630D02*
X179820000Y-50600000D01*
X179800000Y-49448630D02*
X179820000Y-49468630D01*
X179800000Y-46200000D02*
X179800000Y-49448630D01*
X174080000Y-39200000D02*
X174080000Y-40480000D01*
X174080000Y-40480000D02*
X179800000Y-46200000D01*
X182800000Y-51900000D02*
X181560000Y-53140000D01*
X176620000Y-40402081D02*
X177400000Y-41182081D01*
X181560000Y-53140000D02*
X179820000Y-53140000D01*
X176620000Y-39200000D02*
X176620000Y-40402081D01*
X177400000Y-41182081D02*
X177400000Y-41200000D01*
X182800000Y-46600000D02*
X182800000Y-51900000D01*
X177400000Y-41200000D02*
X182800000Y-46600000D01*
X180951370Y-55680000D02*
X179820000Y-55680000D01*
X190560000Y-45700000D02*
X186100000Y-45700000D01*
X186100000Y-45700000D02*
X184900000Y-46900000D01*
X184900000Y-46900000D02*
X184900000Y-53800000D01*
X183020000Y-55680000D02*
X179820000Y-55680000D01*
X184900000Y-53800000D02*
X183020000Y-55680000D01*
X185380000Y-58220000D02*
X179820000Y-58220000D01*
X186880000Y-58220000D02*
X187900000Y-57200000D01*
X185380000Y-58220000D02*
X186880000Y-58220000D01*
X190320000Y-57200000D02*
X195520000Y-52000000D01*
X187900000Y-57200000D02*
X190320000Y-57200000D01*
X193100000Y-45700000D02*
X193100000Y-44700000D01*
X194240000Y-43560000D02*
X194240000Y-38800000D01*
X193100000Y-44700000D02*
X194240000Y-43560000D01*
X187900000Y-50900000D02*
X191830000Y-46970000D01*
X187900000Y-52000000D02*
X187900000Y-50900000D01*
D33*
G36*
X184573001Y-35772358D02*
G01*
X184573000Y-37610085D01*
X184565129Y-37690000D01*
X184573000Y-37769914D01*
X184573000Y-37769924D01*
X184596542Y-38008947D01*
X184689575Y-38315637D01*
X184840654Y-38598285D01*
X185043971Y-38846029D01*
X185106054Y-38896979D01*
X186103025Y-39893951D01*
X186153971Y-39956029D01*
X186216049Y-40006975D01*
X186216052Y-40006978D01*
X186401714Y-40159346D01*
X186684362Y-40310425D01*
X186991052Y-40403458D01*
X187230075Y-40427000D01*
X187230085Y-40427000D01*
X187309999Y-40434871D01*
X187389914Y-40427000D01*
X187489732Y-40427000D01*
X187509235Y-40450765D01*
X187680843Y-40591600D01*
X187876629Y-40696250D01*
X188089069Y-40760693D01*
X188310000Y-40782453D01*
X190010000Y-40782453D01*
X190230931Y-40760693D01*
X190443371Y-40696250D01*
X190639157Y-40591600D01*
X190810765Y-40450765D01*
X190951600Y-40279157D01*
X191056250Y-40083371D01*
X191120693Y-39870931D01*
X191142453Y-39650000D01*
X191142453Y-37950000D01*
X191120693Y-37729069D01*
X191056250Y-37516629D01*
X190951600Y-37320843D01*
X190810765Y-37149235D01*
X190639157Y-37008400D01*
X190443371Y-36903750D01*
X190230931Y-36839307D01*
X190010000Y-36817547D01*
X188310000Y-36817547D01*
X188089069Y-36839307D01*
X187876629Y-36903750D01*
X187827000Y-36930277D01*
X187827000Y-35769565D01*
X197357199Y-35683124D01*
X199973001Y-38298926D01*
X199973000Y-42466469D01*
X199892315Y-42587223D01*
X199747053Y-42937915D01*
X199673000Y-43310207D01*
X199673000Y-43689793D01*
X199747053Y-44062085D01*
X199892315Y-44412777D01*
X200103201Y-44728391D01*
X200371609Y-44996799D01*
X200687223Y-45207685D01*
X201037915Y-45352947D01*
X201410207Y-45427000D01*
X201789793Y-45427000D01*
X202162085Y-45352947D01*
X202466147Y-45227000D01*
X207066469Y-45227000D01*
X207187223Y-45307685D01*
X207537915Y-45452947D01*
X207680355Y-45481280D01*
X213123000Y-50923926D01*
X213123001Y-58141148D01*
X212916629Y-58203750D01*
X212720843Y-58308400D01*
X212549235Y-58449235D01*
X212408400Y-58620843D01*
X212303750Y-58816629D01*
X212239307Y-59029069D01*
X212217547Y-59250000D01*
X212217547Y-61681527D01*
X204726075Y-69173000D01*
X199581033Y-69173000D01*
X199455884Y-69047851D01*
X199107512Y-68815077D01*
X198720423Y-68654739D01*
X198309491Y-68573000D01*
X197890509Y-68573000D01*
X197479577Y-68654739D01*
X197092488Y-68815077D01*
X196744116Y-69047851D01*
X196447851Y-69344116D01*
X196215077Y-69692488D01*
X196100000Y-69970308D01*
X195984923Y-69692488D01*
X195752149Y-69344116D01*
X195455884Y-69047851D01*
X195107512Y-68815077D01*
X194720423Y-68654739D01*
X194309491Y-68573000D01*
X193890509Y-68573000D01*
X193479577Y-68654739D01*
X193092488Y-68815077D01*
X192744116Y-69047851D01*
X192447851Y-69344116D01*
X192215077Y-69692488D01*
X192054739Y-70079577D01*
X192016265Y-70273000D01*
X191748190Y-70273000D01*
X191628391Y-70153201D01*
X191312777Y-69942315D01*
X190962085Y-69797053D01*
X190589793Y-69723000D01*
X190210207Y-69723000D01*
X189837915Y-69797053D01*
X189487223Y-69942315D01*
X189340966Y-70040041D01*
X189126978Y-69826053D01*
X189076029Y-69763971D01*
X188828286Y-69560654D01*
X188545638Y-69409575D01*
X188238948Y-69316542D01*
X187999925Y-69293000D01*
X187999914Y-69293000D01*
X187920000Y-69285129D01*
X187904315Y-69286674D01*
X187888630Y-69285129D01*
X187808716Y-69293000D01*
X185715877Y-69293000D01*
X185852947Y-68962085D01*
X185927000Y-68589793D01*
X185927000Y-68210207D01*
X185852947Y-67837915D01*
X185707685Y-67487223D01*
X185496799Y-67171609D01*
X185228391Y-66903201D01*
X184912777Y-66692315D01*
X184562085Y-66547053D01*
X184189793Y-66473000D01*
X183810207Y-66473000D01*
X183437915Y-66547053D01*
X183087223Y-66692315D01*
X182996401Y-66753000D01*
X180853531Y-66753000D01*
X180732777Y-66672315D01*
X180382085Y-66527053D01*
X180009793Y-66453000D01*
X179630207Y-66453000D01*
X179257915Y-66527053D01*
X178907223Y-66672315D01*
X178591609Y-66883201D01*
X178323201Y-67151609D01*
X178112315Y-67467223D01*
X177967053Y-67817915D01*
X177893000Y-68190207D01*
X177893000Y-68569793D01*
X177967053Y-68942085D01*
X178112315Y-69292777D01*
X178323201Y-69608391D01*
X178364810Y-69650000D01*
X178323201Y-69691609D01*
X178112315Y-70007223D01*
X177967053Y-70357915D01*
X177893000Y-70730207D01*
X177893000Y-71109793D01*
X177967053Y-71482085D01*
X178112315Y-71832777D01*
X178323201Y-72148391D01*
X178364810Y-72190000D01*
X178323201Y-72231609D01*
X178112315Y-72547223D01*
X177967053Y-72897915D01*
X177893000Y-73270207D01*
X177893000Y-73649793D01*
X177967053Y-74022085D01*
X178112315Y-74372777D01*
X178323201Y-74688391D01*
X178364810Y-74730000D01*
X178323201Y-74771609D01*
X178112315Y-75087223D01*
X177967053Y-75437915D01*
X177893000Y-75810207D01*
X177893000Y-76189793D01*
X177967053Y-76562085D01*
X178112315Y-76912777D01*
X178323201Y-77228391D01*
X178364810Y-77270000D01*
X178323201Y-77311609D01*
X178112315Y-77627223D01*
X177967053Y-77977915D01*
X177893000Y-78350207D01*
X177893000Y-78729793D01*
X177967053Y-79102085D01*
X178112315Y-79452777D01*
X178323201Y-79768391D01*
X178364810Y-79810000D01*
X178323201Y-79851609D01*
X178112315Y-80167223D01*
X177967053Y-80517915D01*
X177893000Y-80890207D01*
X177893000Y-81269793D01*
X177967053Y-81642085D01*
X178112315Y-81992777D01*
X178323201Y-82308391D01*
X178364810Y-82350000D01*
X178323201Y-82391609D01*
X178112315Y-82707223D01*
X177967053Y-83057915D01*
X177893000Y-83430207D01*
X177893000Y-83809793D01*
X177967053Y-84182085D01*
X178112315Y-84532777D01*
X178323201Y-84848391D01*
X178591609Y-85116799D01*
X178907223Y-85327685D01*
X179257915Y-85472947D01*
X179400355Y-85501280D01*
X182043020Y-88143945D01*
X182093971Y-88206029D01*
X182341714Y-88409346D01*
X182624362Y-88560425D01*
X182691911Y-88580916D01*
X182749235Y-88650765D01*
X182920843Y-88791600D01*
X183116629Y-88896250D01*
X183329069Y-88960693D01*
X183550000Y-88982453D01*
X185150000Y-88982453D01*
X185370931Y-88960693D01*
X185583371Y-88896250D01*
X185656328Y-88857253D01*
X186991471Y-90192396D01*
X187010654Y-90228286D01*
X187213971Y-90476029D01*
X187276053Y-90526978D01*
X189256052Y-92506978D01*
X189256058Y-92506983D01*
X189273002Y-92523927D01*
X189273002Y-93070147D01*
X189085636Y-92789736D01*
X188810264Y-92514364D01*
X188486461Y-92298005D01*
X188126670Y-92148975D01*
X187744718Y-92073000D01*
X187355282Y-92073000D01*
X186973330Y-92148975D01*
X186613539Y-92298005D01*
X186289736Y-92514364D01*
X186014364Y-92789736D01*
X185798005Y-93113539D01*
X185648975Y-93473330D01*
X185573000Y-93855282D01*
X185573000Y-94244718D01*
X185648975Y-94626670D01*
X185798005Y-94986461D01*
X186014364Y-95310264D01*
X186289736Y-95585636D01*
X186613539Y-95801995D01*
X186973330Y-95951025D01*
X187193992Y-95994917D01*
X187778867Y-96579793D01*
X187744718Y-96573000D01*
X187355282Y-96573000D01*
X186973330Y-96648975D01*
X186613539Y-96798005D01*
X186289736Y-97014364D01*
X186014364Y-97289736D01*
X185798005Y-97613539D01*
X185648975Y-97973330D01*
X185573000Y-98355282D01*
X185573000Y-98744718D01*
X185648975Y-99126670D01*
X185798005Y-99486461D01*
X186014364Y-99810264D01*
X186289736Y-100085636D01*
X186613539Y-100301995D01*
X186973330Y-100451025D01*
X187355282Y-100527000D01*
X187744718Y-100527000D01*
X188126670Y-100451025D01*
X188486461Y-100301995D01*
X188810264Y-100085636D01*
X189085636Y-99810264D01*
X189301995Y-99486461D01*
X189451025Y-99126670D01*
X189527000Y-98744718D01*
X189527000Y-98355282D01*
X189451025Y-97973330D01*
X189301995Y-97613539D01*
X189225928Y-97499697D01*
X189380000Y-97514872D01*
X189459925Y-97507000D01*
X190666469Y-97507000D01*
X190787223Y-97587685D01*
X191137915Y-97732947D01*
X191510207Y-97807000D01*
X191889793Y-97807000D01*
X192262085Y-97732947D01*
X192612777Y-97587685D01*
X192928391Y-97376799D01*
X193196799Y-97108391D01*
X193407685Y-96792777D01*
X193552947Y-96442085D01*
X193627000Y-96069793D01*
X193627000Y-95690207D01*
X193552947Y-95317915D01*
X193407685Y-94967223D01*
X193196799Y-94651609D01*
X192928391Y-94383201D01*
X192612777Y-94172315D01*
X192527001Y-94136785D01*
X192527001Y-91929918D01*
X192534872Y-91850001D01*
X192527001Y-91770084D01*
X192527001Y-91770076D01*
X192503459Y-91531053D01*
X192410426Y-91224363D01*
X192259347Y-90941715D01*
X192056030Y-90693972D01*
X191993946Y-90643021D01*
X191977925Y-90627000D01*
X192139793Y-90627000D01*
X192512085Y-90552947D01*
X192862777Y-90407685D01*
X193178391Y-90196799D01*
X193446799Y-89928391D01*
X193657685Y-89612777D01*
X193802947Y-89262085D01*
X193877000Y-88889793D01*
X193877000Y-88637925D01*
X199677773Y-94438698D01*
X199725897Y-94680637D01*
X199875953Y-95042903D01*
X200093800Y-95368934D01*
X200371066Y-95646200D01*
X200697097Y-95864047D01*
X201059363Y-96014103D01*
X201443943Y-96090600D01*
X201836057Y-96090600D01*
X202220637Y-96014103D01*
X202297901Y-95982099D01*
X202265897Y-96059363D01*
X202189400Y-96443943D01*
X202189400Y-96836057D01*
X202265897Y-97220637D01*
X202415953Y-97582903D01*
X202633800Y-97908934D01*
X202911066Y-98186200D01*
X203190632Y-98373000D01*
X197229914Y-98373000D01*
X197149999Y-98365129D01*
X197070085Y-98373000D01*
X197070075Y-98373000D01*
X196831052Y-98396542D01*
X196524362Y-98489575D01*
X196241714Y-98640654D01*
X195993971Y-98843971D01*
X195943022Y-98906053D01*
X192976075Y-101873000D01*
X192733531Y-101873000D01*
X192612777Y-101792315D01*
X192262085Y-101647053D01*
X191889793Y-101573000D01*
X191510207Y-101573000D01*
X191137915Y-101647053D01*
X190787223Y-101792315D01*
X190471609Y-102003201D01*
X190401810Y-102073000D01*
X161713085Y-102073000D01*
X161557008Y-101989575D01*
X161250318Y-101896542D01*
X161011295Y-101873000D01*
X161011284Y-101873000D01*
X160931370Y-101865129D01*
X160851456Y-101873000D01*
X160833531Y-101873000D01*
X160712777Y-101792315D01*
X160362085Y-101647053D01*
X159989793Y-101573000D01*
X159610207Y-101573000D01*
X159237915Y-101647053D01*
X158887223Y-101792315D01*
X158571609Y-102003201D01*
X158501810Y-102073000D01*
X133329924Y-102073000D01*
X133249999Y-102065128D01*
X133170074Y-102073000D01*
X132931051Y-102096542D01*
X132742552Y-102153722D01*
X132604574Y-102153649D01*
X129377000Y-98926075D01*
X129377000Y-93850000D01*
X133873000Y-93850000D01*
X133873000Y-100200000D01*
X133875504Y-100225095D01*
X133882792Y-100248901D01*
X133894584Y-100270827D01*
X133899786Y-100277133D01*
X133899786Y-100428250D01*
X153600215Y-100428250D01*
X153600215Y-100266470D01*
X153620557Y-100255597D01*
X153639803Y-100239803D01*
X153655597Y-100220557D01*
X153667333Y-100198601D01*
X153674560Y-100174776D01*
X153677000Y-100150000D01*
X153677000Y-98405282D01*
X162123000Y-98405282D01*
X162123000Y-98794718D01*
X162198975Y-99176670D01*
X162348005Y-99536461D01*
X162564364Y-99860264D01*
X162839736Y-100135636D01*
X163163539Y-100351995D01*
X163523330Y-100501025D01*
X163905282Y-100577000D01*
X164294718Y-100577000D01*
X164676670Y-100501025D01*
X165036461Y-100351995D01*
X165360264Y-100135636D01*
X165635636Y-99860264D01*
X165851995Y-99536461D01*
X166001025Y-99176670D01*
X166077000Y-98794718D01*
X166077000Y-98405282D01*
X168623000Y-98405282D01*
X168623000Y-98794718D01*
X168698975Y-99176670D01*
X168848005Y-99536461D01*
X169064364Y-99860264D01*
X169339736Y-100135636D01*
X169663539Y-100351995D01*
X170023330Y-100501025D01*
X170405282Y-100577000D01*
X170794718Y-100577000D01*
X171176670Y-100501025D01*
X171536461Y-100351995D01*
X171860264Y-100135636D01*
X172135636Y-99860264D01*
X172351995Y-99536461D01*
X172501025Y-99176670D01*
X172577000Y-98794718D01*
X172577000Y-98405282D01*
X172567055Y-98355282D01*
X179073000Y-98355282D01*
X179073000Y-98744718D01*
X179148975Y-99126670D01*
X179298005Y-99486461D01*
X179514364Y-99810264D01*
X179789736Y-100085636D01*
X180113539Y-100301995D01*
X180473330Y-100451025D01*
X180855282Y-100527000D01*
X181244718Y-100527000D01*
X181626670Y-100451025D01*
X181986461Y-100301995D01*
X182310264Y-100085636D01*
X182585636Y-99810264D01*
X182801995Y-99486461D01*
X182951025Y-99126670D01*
X183027000Y-98744718D01*
X183027000Y-98355282D01*
X182951025Y-97973330D01*
X182801995Y-97613539D01*
X182585636Y-97289736D01*
X182310264Y-97014364D01*
X181986461Y-96798005D01*
X181626670Y-96648975D01*
X181244718Y-96573000D01*
X180855282Y-96573000D01*
X180473330Y-96648975D01*
X180113539Y-96798005D01*
X179789736Y-97014364D01*
X179514364Y-97289736D01*
X179298005Y-97613539D01*
X179148975Y-97973330D01*
X179073000Y-98355282D01*
X172567055Y-98355282D01*
X172501025Y-98023330D01*
X172351995Y-97663539D01*
X172135636Y-97339736D01*
X171860264Y-97064364D01*
X171536461Y-96848005D01*
X171176670Y-96698975D01*
X170794718Y-96623000D01*
X170405282Y-96623000D01*
X170023330Y-96698975D01*
X169663539Y-96848005D01*
X169339736Y-97064364D01*
X169064364Y-97339736D01*
X168848005Y-97663539D01*
X168698975Y-98023330D01*
X168623000Y-98405282D01*
X166077000Y-98405282D01*
X166001025Y-98023330D01*
X165851995Y-97663539D01*
X165635636Y-97339736D01*
X165360264Y-97064364D01*
X165036461Y-96848005D01*
X164676670Y-96698975D01*
X164294718Y-96623000D01*
X163905282Y-96623000D01*
X163523330Y-96698975D01*
X163163539Y-96848005D01*
X162839736Y-97064364D01*
X162564364Y-97339736D01*
X162348005Y-97663539D01*
X162198975Y-98023330D01*
X162123000Y-98405282D01*
X153677000Y-98405282D01*
X153677000Y-93900000D01*
X153674623Y-93875542D01*
X153667457Y-93851699D01*
X153655777Y-93829713D01*
X153650215Y-93822900D01*
X153650215Y-93249250D01*
X137449786Y-93249250D01*
X137449786Y-93731822D01*
X134000325Y-93723000D01*
X133975224Y-93725440D01*
X133951399Y-93732667D01*
X133929443Y-93744403D01*
X133910197Y-93760197D01*
X133894403Y-93779443D01*
X133882667Y-93801399D01*
X133875440Y-93825224D01*
X133873000Y-93850000D01*
X129377000Y-93850000D01*
X129377000Y-89305282D01*
X144223000Y-89305282D01*
X144223000Y-89694718D01*
X144298975Y-90076670D01*
X144448005Y-90436461D01*
X144664364Y-90760264D01*
X144939736Y-91035636D01*
X145263539Y-91251995D01*
X145623330Y-91401025D01*
X146005282Y-91477000D01*
X146394718Y-91477000D01*
X146776670Y-91401025D01*
X147136461Y-91251995D01*
X147460264Y-91035636D01*
X147735636Y-90760264D01*
X147951995Y-90436461D01*
X148101025Y-90076670D01*
X148177000Y-89694718D01*
X148177000Y-89305282D01*
X148101025Y-88923330D01*
X147951995Y-88563539D01*
X147735636Y-88239736D01*
X147460264Y-87964364D01*
X147136461Y-87748005D01*
X146776670Y-87598975D01*
X146394718Y-87523000D01*
X146005282Y-87523000D01*
X145623330Y-87598975D01*
X145263539Y-87748005D01*
X144939736Y-87964364D01*
X144664364Y-88239736D01*
X144448005Y-88563539D01*
X144298975Y-88923330D01*
X144223000Y-89305282D01*
X129377000Y-89305282D01*
X129377000Y-86692772D01*
X154473000Y-86692772D01*
X154473000Y-87407228D01*
X154612383Y-88107957D01*
X154885794Y-88768029D01*
X155282725Y-89362078D01*
X155787922Y-89867275D01*
X156381971Y-90264206D01*
X157042043Y-90537617D01*
X157742772Y-90677000D01*
X158457228Y-90677000D01*
X159157957Y-90537617D01*
X159818029Y-90264206D01*
X160412078Y-89867275D01*
X160917275Y-89362078D01*
X161314206Y-88768029D01*
X161587617Y-88107957D01*
X161727000Y-87407228D01*
X161727000Y-86692772D01*
X161587617Y-85992043D01*
X161314206Y-85331971D01*
X160917275Y-84737922D01*
X160412078Y-84232725D01*
X159818029Y-83835794D01*
X159157957Y-83562383D01*
X158457228Y-83423000D01*
X157742772Y-83423000D01*
X157042043Y-83562383D01*
X156381971Y-83835794D01*
X155787922Y-84232725D01*
X155282725Y-84737922D01*
X154885794Y-85331971D01*
X154612383Y-85992043D01*
X154473000Y-86692772D01*
X129377000Y-86692772D01*
X129377000Y-75261225D01*
X129638846Y-75340655D01*
X129681052Y-75353458D01*
X130000000Y-75384872D01*
X130079925Y-75377000D01*
X133665963Y-75377000D01*
X133592315Y-75487223D01*
X133447053Y-75837915D01*
X133373000Y-76210207D01*
X133373000Y-76589793D01*
X133447053Y-76962085D01*
X133592315Y-77312777D01*
X133803201Y-77628391D01*
X134071609Y-77896799D01*
X134387223Y-78107685D01*
X134737915Y-78252947D01*
X135110207Y-78327000D01*
X135489793Y-78327000D01*
X135862085Y-78252947D01*
X136212777Y-78107685D01*
X136528391Y-77896799D01*
X136796799Y-77628391D01*
X137007685Y-77312777D01*
X137152947Y-76962085D01*
X137227000Y-76589793D01*
X137227000Y-76210207D01*
X137152947Y-75837915D01*
X137007685Y-75487223D01*
X136927000Y-75366469D01*
X136927000Y-74361957D01*
X140123000Y-74333164D01*
X140123000Y-74470086D01*
X140115129Y-74550000D01*
X140123000Y-74629914D01*
X140123000Y-74629924D01*
X140146542Y-74868947D01*
X140239575Y-75175637D01*
X140390654Y-75458285D01*
X140593971Y-75706029D01*
X140656055Y-75756980D01*
X142793020Y-77893945D01*
X142843971Y-77956029D01*
X143091714Y-78159346D01*
X143374362Y-78310425D01*
X143681049Y-78403457D01*
X143681052Y-78403458D01*
X144000000Y-78434872D01*
X144079925Y-78427000D01*
X144438287Y-78427000D01*
X144298975Y-78763330D01*
X144223000Y-79145282D01*
X144223000Y-79534718D01*
X144298975Y-79916670D01*
X144448005Y-80276461D01*
X144664364Y-80600264D01*
X144674100Y-80610000D01*
X144664364Y-80619736D01*
X144448005Y-80943539D01*
X144298975Y-81303330D01*
X144223000Y-81685282D01*
X144223000Y-82074718D01*
X144298975Y-82456670D01*
X144448005Y-82816461D01*
X144664364Y-83140264D01*
X144674100Y-83150000D01*
X144664364Y-83159736D01*
X144448005Y-83483539D01*
X144298975Y-83843330D01*
X144223000Y-84225282D01*
X144223000Y-84614718D01*
X144298975Y-84996670D01*
X144448005Y-85356461D01*
X144664364Y-85680264D01*
X144939736Y-85955636D01*
X145263539Y-86171995D01*
X145623330Y-86321025D01*
X146005282Y-86397000D01*
X146394718Y-86397000D01*
X146776670Y-86321025D01*
X147136461Y-86171995D01*
X147323529Y-86047000D01*
X151596740Y-86047000D01*
X151837223Y-86207685D01*
X152187915Y-86352947D01*
X152560207Y-86427000D01*
X152939793Y-86427000D01*
X153312085Y-86352947D01*
X153662777Y-86207685D01*
X153978391Y-85996799D01*
X154246799Y-85728391D01*
X154457685Y-85412777D01*
X154602947Y-85062085D01*
X154677000Y-84689793D01*
X154677000Y-84310207D01*
X154602947Y-83937915D01*
X154457685Y-83587223D01*
X154246799Y-83271609D01*
X153978391Y-83003201D01*
X153662777Y-82792315D01*
X153312085Y-82647053D01*
X152939793Y-82573000D01*
X152560207Y-82573000D01*
X152187915Y-82647053D01*
X151837223Y-82792315D01*
X151836198Y-82793000D01*
X151757298Y-82793000D01*
X151852947Y-82562085D01*
X151927000Y-82189793D01*
X151927000Y-81810207D01*
X151852947Y-81437915D01*
X151707685Y-81087223D01*
X151627355Y-80967000D01*
X154466075Y-80967000D01*
X155673020Y-82173945D01*
X155723971Y-82236029D01*
X155971714Y-82439346D01*
X156254362Y-82590425D01*
X156510110Y-82668005D01*
X156561052Y-82683458D01*
X156880000Y-82714872D01*
X156959925Y-82707000D01*
X170492464Y-82707000D01*
X170492315Y-82707223D01*
X170347053Y-83057915D01*
X170273000Y-83430207D01*
X170273000Y-83809793D01*
X170347053Y-84182085D01*
X170492315Y-84532777D01*
X170573000Y-84653531D01*
X170573000Y-84831294D01*
X170573001Y-84831303D01*
X170573000Y-88872075D01*
X170532453Y-88831528D01*
X170532453Y-88400000D01*
X170510693Y-88179069D01*
X170446250Y-87966629D01*
X170341600Y-87770843D01*
X170200765Y-87599235D01*
X170029157Y-87458400D01*
X169833371Y-87353750D01*
X169620931Y-87289307D01*
X169400000Y-87267547D01*
X167800000Y-87267547D01*
X167579069Y-87289307D01*
X167366629Y-87353750D01*
X167170843Y-87458400D01*
X166999235Y-87599235D01*
X166858400Y-87770843D01*
X166753750Y-87966629D01*
X166689307Y-88179069D01*
X166667547Y-88400000D01*
X166667547Y-89973000D01*
X162056165Y-89973000D01*
X161968947Y-89946543D01*
X161649999Y-89915129D01*
X161331052Y-89946543D01*
X161024361Y-90039576D01*
X160989985Y-90057950D01*
X160885732Y-90089575D01*
X160603084Y-90240654D01*
X160355341Y-90443971D01*
X160152024Y-90691714D01*
X160088482Y-90810592D01*
X158706050Y-92193025D01*
X158643972Y-92243971D01*
X158593026Y-92306049D01*
X158593022Y-92306053D01*
X158440654Y-92491715D01*
X158334319Y-92690654D01*
X158289576Y-92774362D01*
X158203846Y-93056979D01*
X158196543Y-93081053D01*
X158165129Y-93400000D01*
X158173001Y-93479924D01*
X158173000Y-94846468D01*
X158092315Y-94967223D01*
X157947053Y-95317915D01*
X157873000Y-95690207D01*
X157873000Y-96069793D01*
X157947053Y-96442085D01*
X158092315Y-96792777D01*
X158303201Y-97108391D01*
X158571609Y-97376799D01*
X158887223Y-97587685D01*
X159237915Y-97732947D01*
X159610207Y-97807000D01*
X159989793Y-97807000D01*
X160362085Y-97732947D01*
X160712777Y-97587685D01*
X161028391Y-97376799D01*
X161296799Y-97108391D01*
X161507685Y-96792777D01*
X161652947Y-96442085D01*
X161727000Y-96069793D01*
X161727000Y-95690207D01*
X161652947Y-95317915D01*
X161507685Y-94967223D01*
X161427000Y-94846469D01*
X161427000Y-94073925D01*
X162273926Y-93227000D01*
X167920086Y-93227000D01*
X168000000Y-93234871D01*
X168079914Y-93227000D01*
X168079925Y-93227000D01*
X168318948Y-93203458D01*
X168625638Y-93110425D01*
X168908286Y-92959346D01*
X168973000Y-92906236D01*
X168973000Y-92976471D01*
X168848005Y-93163539D01*
X168698975Y-93523330D01*
X168623000Y-93905282D01*
X168623000Y-94294718D01*
X168698975Y-94676670D01*
X168848005Y-95036461D01*
X169064364Y-95360264D01*
X169339736Y-95635636D01*
X169663539Y-95851995D01*
X170023330Y-96001025D01*
X170405282Y-96077000D01*
X170794718Y-96077000D01*
X171176670Y-96001025D01*
X171536461Y-95851995D01*
X171860264Y-95635636D01*
X172135636Y-95360264D01*
X172351995Y-95036461D01*
X172501025Y-94676670D01*
X172544917Y-94456008D01*
X173293952Y-93706974D01*
X173356029Y-93656029D01*
X173406975Y-93593951D01*
X173406978Y-93593948D01*
X173559346Y-93408286D01*
X173651221Y-93236400D01*
X173710425Y-93125638D01*
X173803458Y-92818948D01*
X173827000Y-92579925D01*
X173827000Y-92579924D01*
X173834872Y-92500000D01*
X173827000Y-92420075D01*
X173827000Y-84653531D01*
X173907685Y-84532777D01*
X174052947Y-84182085D01*
X174127000Y-83809793D01*
X174127000Y-83430207D01*
X174052947Y-83057915D01*
X173907685Y-82707223D01*
X173696799Y-82391609D01*
X173655190Y-82350000D01*
X173696799Y-82308391D01*
X173907685Y-81992777D01*
X174052947Y-81642085D01*
X174127000Y-81269793D01*
X174127000Y-80890207D01*
X174052947Y-80517915D01*
X173907685Y-80167223D01*
X173696799Y-79851609D01*
X173655190Y-79810000D01*
X173696799Y-79768391D01*
X173907685Y-79452777D01*
X174052947Y-79102085D01*
X174127000Y-78729793D01*
X174127000Y-78350207D01*
X174052947Y-77977915D01*
X173907685Y-77627223D01*
X173696799Y-77311609D01*
X173655190Y-77270000D01*
X173696799Y-77228391D01*
X173907685Y-76912777D01*
X174052947Y-76562085D01*
X174127000Y-76189793D01*
X174127000Y-75810207D01*
X174052947Y-75437915D01*
X173907685Y-75087223D01*
X173696799Y-74771609D01*
X173655190Y-74730000D01*
X173696799Y-74688391D01*
X173907685Y-74372777D01*
X174052947Y-74022085D01*
X174127000Y-73649793D01*
X174127000Y-73270207D01*
X174052947Y-72897915D01*
X173907685Y-72547223D01*
X173696799Y-72231609D01*
X173655190Y-72190000D01*
X173696799Y-72148391D01*
X173907685Y-71832777D01*
X174052947Y-71482085D01*
X174127000Y-71109793D01*
X174127000Y-70730207D01*
X174052947Y-70357915D01*
X173907685Y-70007223D01*
X173696799Y-69691609D01*
X173428391Y-69423201D01*
X173112777Y-69212315D01*
X172762085Y-69067053D01*
X172389793Y-68993000D01*
X172010207Y-68993000D01*
X171637915Y-69067053D01*
X171287223Y-69212315D01*
X171166469Y-69293000D01*
X167193925Y-69293000D01*
X166817642Y-68916717D01*
X166804868Y-68852499D01*
X166663376Y-68510907D01*
X166457961Y-68203482D01*
X166196518Y-67942039D01*
X165889093Y-67736624D01*
X165547501Y-67595132D01*
X165184868Y-67523000D01*
X164815132Y-67523000D01*
X164452499Y-67595132D01*
X164264509Y-67673000D01*
X160433531Y-67673000D01*
X160312777Y-67592315D01*
X159962085Y-67447053D01*
X159589793Y-67373000D01*
X159210207Y-67373000D01*
X158837915Y-67447053D01*
X158487223Y-67592315D01*
X158171609Y-67803201D01*
X157903201Y-68071609D01*
X157692315Y-68387223D01*
X157547053Y-68737915D01*
X157473000Y-69110207D01*
X157473000Y-69489793D01*
X157547053Y-69862085D01*
X157692315Y-70212777D01*
X157903201Y-70528391D01*
X158171609Y-70796799D01*
X158487223Y-71007685D01*
X158837915Y-71152947D01*
X159210207Y-71227000D01*
X159589793Y-71227000D01*
X159962085Y-71152947D01*
X160312777Y-71007685D01*
X160433531Y-70927000D01*
X163906806Y-70927000D01*
X164110907Y-71063376D01*
X164452499Y-71204868D01*
X164516717Y-71217642D01*
X165313020Y-72013945D01*
X165363971Y-72076029D01*
X165611714Y-72279346D01*
X165894362Y-72430425D01*
X166175705Y-72515769D01*
X166201052Y-72523458D01*
X166520000Y-72554872D01*
X166599925Y-72547000D01*
X168152075Y-72547000D01*
X168046075Y-72653000D01*
X165943533Y-72653000D01*
X165889093Y-72616624D01*
X165547501Y-72475132D01*
X165184868Y-72403000D01*
X164815132Y-72403000D01*
X164452499Y-72475132D01*
X164110907Y-72616624D01*
X164056467Y-72653000D01*
X160403599Y-72653000D01*
X160312777Y-72592315D01*
X159962085Y-72447053D01*
X159589793Y-72373000D01*
X159210207Y-72373000D01*
X158837915Y-72447053D01*
X158487223Y-72592315D01*
X158171609Y-72803201D01*
X157903201Y-73071609D01*
X157692315Y-73387223D01*
X157547053Y-73737915D01*
X157473000Y-74110207D01*
X157473000Y-74489793D01*
X157547053Y-74862085D01*
X157692315Y-75212777D01*
X157903201Y-75528391D01*
X158171609Y-75796799D01*
X158487223Y-76007685D01*
X158837915Y-76152947D01*
X159210207Y-76227000D01*
X159589793Y-76227000D01*
X159962085Y-76152947D01*
X160312777Y-76007685D01*
X160463463Y-75907000D01*
X164056467Y-75907000D01*
X164110907Y-75943376D01*
X164452499Y-76084868D01*
X164815132Y-76157000D01*
X165184868Y-76157000D01*
X165547501Y-76084868D01*
X165889093Y-75943376D01*
X165943533Y-75907000D01*
X168640086Y-75907000D01*
X168720000Y-75914871D01*
X168799914Y-75907000D01*
X168799925Y-75907000D01*
X169038948Y-75883458D01*
X169345638Y-75790425D01*
X169628286Y-75639346D01*
X169876029Y-75436029D01*
X169926980Y-75373945D01*
X170258301Y-75042624D01*
X170518109Y-75048620D01*
X170492315Y-75087223D01*
X170347053Y-75437915D01*
X170273000Y-75810207D01*
X170273000Y-76189793D01*
X170347053Y-76562085D01*
X170492315Y-76912777D01*
X170703201Y-77228391D01*
X170744810Y-77270000D01*
X170703201Y-77311609D01*
X170492315Y-77627223D01*
X170347053Y-77977915D01*
X170273000Y-78350207D01*
X170273000Y-78729793D01*
X170347053Y-79102085D01*
X170491421Y-79450618D01*
X170483568Y-79453000D01*
X157553925Y-79453000D01*
X156346980Y-78246055D01*
X156296029Y-78183971D01*
X156048286Y-77980654D01*
X155765638Y-77829575D01*
X155458948Y-77736542D01*
X155219925Y-77713000D01*
X155219914Y-77713000D01*
X155140000Y-77705129D01*
X155060086Y-77713000D01*
X154287925Y-77713000D01*
X156718951Y-75281975D01*
X156781029Y-75231029D01*
X156831975Y-75168951D01*
X156831978Y-75168948D01*
X156984346Y-74983286D01*
X157045461Y-74868948D01*
X157135425Y-74700638D01*
X157228458Y-74393948D01*
X157252000Y-74154925D01*
X157252000Y-74154915D01*
X157259871Y-74075000D01*
X157252000Y-73995086D01*
X157252000Y-65823925D01*
X157348925Y-65727000D01*
X166101075Y-65727000D01*
X167268025Y-66893951D01*
X167318971Y-66956029D01*
X167381049Y-67006975D01*
X167381052Y-67006978D01*
X167462161Y-67073542D01*
X167566714Y-67159346D01*
X167849362Y-67310425D01*
X168156052Y-67403458D01*
X168395075Y-67427000D01*
X168395085Y-67427000D01*
X168474999Y-67434871D01*
X168554914Y-67427000D01*
X170695427Y-67427000D01*
X170749682Y-67443458D01*
X170988705Y-67467000D01*
X171068630Y-67474872D01*
X171148555Y-67467000D01*
X171166469Y-67467000D01*
X171287223Y-67547685D01*
X171637915Y-67692947D01*
X172010207Y-67767000D01*
X172389793Y-67767000D01*
X172762085Y-67692947D01*
X173112777Y-67547685D01*
X173428391Y-67336799D01*
X173696799Y-67068391D01*
X173907685Y-66752777D01*
X174052947Y-66402085D01*
X174127000Y-66029793D01*
X174127000Y-65650207D01*
X174052947Y-65277915D01*
X173907685Y-64927223D01*
X173696799Y-64611609D01*
X173655190Y-64570000D01*
X173696799Y-64528391D01*
X173907685Y-64212777D01*
X174052947Y-63862085D01*
X174127000Y-63489793D01*
X174127000Y-63110207D01*
X174052947Y-62737915D01*
X173907685Y-62387223D01*
X173696799Y-62071609D01*
X173655190Y-62030000D01*
X173696799Y-61988391D01*
X173907685Y-61672777D01*
X174052947Y-61322085D01*
X174127000Y-60949793D01*
X174127000Y-60570207D01*
X174052947Y-60197915D01*
X173907685Y-59847223D01*
X173696799Y-59531609D01*
X173655190Y-59490000D01*
X173696799Y-59448391D01*
X173907685Y-59132777D01*
X174052947Y-58782085D01*
X174127000Y-58409793D01*
X174127000Y-58030207D01*
X174052947Y-57657915D01*
X173907685Y-57307223D01*
X173696799Y-56991609D01*
X173655190Y-56950000D01*
X173696799Y-56908391D01*
X173907685Y-56592777D01*
X174052947Y-56242085D01*
X174127000Y-55869793D01*
X174127000Y-55490207D01*
X174052947Y-55117915D01*
X173907685Y-54767223D01*
X173696799Y-54451609D01*
X173655190Y-54410000D01*
X173696799Y-54368391D01*
X173907685Y-54052777D01*
X174052947Y-53702085D01*
X174127000Y-53329793D01*
X174127000Y-52950207D01*
X174052947Y-52577915D01*
X173907685Y-52227223D01*
X173849956Y-52140825D01*
X173941600Y-52029157D01*
X174046250Y-51833371D01*
X174110693Y-51620931D01*
X174132453Y-51400000D01*
X174132453Y-49800000D01*
X174110693Y-49579069D01*
X174046250Y-49366629D01*
X173941600Y-49170843D01*
X173800765Y-48999235D01*
X173629157Y-48858400D01*
X173433371Y-48753750D01*
X173220931Y-48689307D01*
X173000000Y-48667547D01*
X171400000Y-48667547D01*
X171179069Y-48689307D01*
X170966629Y-48753750D01*
X170770843Y-48858400D01*
X170631202Y-48973000D01*
X169798359Y-48973000D01*
X169536461Y-48798005D01*
X169367952Y-48728207D01*
X169353459Y-48581053D01*
X169260426Y-48274363D01*
X169260425Y-48274361D01*
X169109347Y-47991714D01*
X168989083Y-47845173D01*
X168906030Y-47743972D01*
X168843946Y-47693021D01*
X167406978Y-46256053D01*
X167356029Y-46193971D01*
X167108286Y-45990654D01*
X166825638Y-45839575D01*
X166518948Y-45746542D01*
X166279925Y-45723000D01*
X166279914Y-45723000D01*
X166200000Y-45715129D01*
X166120086Y-45723000D01*
X165154685Y-45723000D01*
X165360264Y-45585636D01*
X165635636Y-45310264D01*
X165851995Y-44986461D01*
X166001025Y-44626670D01*
X166077000Y-44244718D01*
X166077000Y-43855282D01*
X166001025Y-43473330D01*
X165851995Y-43113539D01*
X165827580Y-43077000D01*
X168066469Y-43077000D01*
X168187223Y-43157685D01*
X168537915Y-43302947D01*
X168910207Y-43377000D01*
X169289793Y-43377000D01*
X169662085Y-43302947D01*
X170012777Y-43157685D01*
X170328391Y-42946799D01*
X170596799Y-42678391D01*
X170807685Y-42362777D01*
X170952947Y-42012085D01*
X171027000Y-41639793D01*
X171027000Y-41260207D01*
X170952947Y-40887915D01*
X170807685Y-40537223D01*
X170709442Y-40390192D01*
X170841600Y-40229157D01*
X170946250Y-40033371D01*
X171010693Y-39820931D01*
X171032453Y-39600000D01*
X171032453Y-38555282D01*
X172153000Y-38555282D01*
X172153000Y-38944718D01*
X172228975Y-39326670D01*
X172378005Y-39686461D01*
X172453000Y-39798699D01*
X172453000Y-40400086D01*
X172445129Y-40480000D01*
X172453000Y-40559914D01*
X172453000Y-40559925D01*
X172476542Y-40798948D01*
X172560889Y-41077000D01*
X172569576Y-41105638D01*
X172720654Y-41388285D01*
X172873022Y-41573947D01*
X172873026Y-41573951D01*
X172923972Y-41636029D01*
X172986050Y-41686975D01*
X178173000Y-46873925D01*
X178173001Y-49368706D01*
X178165129Y-49448630D01*
X178173001Y-49528555D01*
X178178825Y-49587684D01*
X178112315Y-49687223D01*
X177967053Y-50037915D01*
X177893000Y-50410207D01*
X177893000Y-50789793D01*
X177967053Y-51162085D01*
X178112315Y-51512777D01*
X178323201Y-51828391D01*
X178364810Y-51870000D01*
X178323201Y-51911609D01*
X178112315Y-52227223D01*
X177967053Y-52577915D01*
X177893000Y-52950207D01*
X177893000Y-53329793D01*
X177967053Y-53702085D01*
X178112315Y-54052777D01*
X178323201Y-54368391D01*
X178364810Y-54410000D01*
X178323201Y-54451609D01*
X178112315Y-54767223D01*
X177967053Y-55117915D01*
X177893000Y-55490207D01*
X177893000Y-55869793D01*
X177967053Y-56242085D01*
X178112315Y-56592777D01*
X178323201Y-56908391D01*
X178364810Y-56950000D01*
X178323201Y-56991609D01*
X178112315Y-57307223D01*
X177967053Y-57657915D01*
X177893000Y-58030207D01*
X177893000Y-58409793D01*
X177967053Y-58782085D01*
X178112315Y-59132777D01*
X178323201Y-59448391D01*
X178364810Y-59490000D01*
X178323201Y-59531609D01*
X178112315Y-59847223D01*
X177967053Y-60197915D01*
X177893000Y-60570207D01*
X177893000Y-60949793D01*
X177967053Y-61322085D01*
X178112315Y-61672777D01*
X178323201Y-61988391D01*
X178364810Y-62030000D01*
X178323201Y-62071609D01*
X178112315Y-62387223D01*
X177967053Y-62737915D01*
X177893000Y-63110207D01*
X177893000Y-63489793D01*
X177967053Y-63862085D01*
X178112315Y-64212777D01*
X178323201Y-64528391D01*
X178591609Y-64796799D01*
X178907223Y-65007685D01*
X179257915Y-65152947D01*
X179630207Y-65227000D01*
X180009793Y-65227000D01*
X180382085Y-65152947D01*
X180732777Y-65007685D01*
X180853531Y-64927000D01*
X203420086Y-64927000D01*
X203500000Y-64934871D01*
X203579914Y-64927000D01*
X203579925Y-64927000D01*
X203818948Y-64903458D01*
X204125638Y-64810425D01*
X204408286Y-64659346D01*
X204656029Y-64456029D01*
X204706980Y-64393945D01*
X209075953Y-60024972D01*
X209220931Y-60010693D01*
X209433371Y-59946250D01*
X209629157Y-59841600D01*
X209800765Y-59700765D01*
X209941600Y-59529157D01*
X210046250Y-59333371D01*
X210110693Y-59120931D01*
X210132453Y-58900000D01*
X210132453Y-57100000D01*
X210110693Y-56879069D01*
X210046250Y-56666629D01*
X209941600Y-56470843D01*
X209897541Y-56417158D01*
X210049104Y-56051254D01*
X210127000Y-55659642D01*
X210127000Y-55260358D01*
X210049104Y-54868746D01*
X209896304Y-54499855D01*
X209727000Y-54246474D01*
X209727000Y-52253531D01*
X209807685Y-52132777D01*
X209952947Y-51782085D01*
X210027000Y-51409793D01*
X210027000Y-51030207D01*
X209952947Y-50657915D01*
X209807685Y-50307223D01*
X209596799Y-49991609D01*
X209328391Y-49723201D01*
X209012777Y-49512315D01*
X208662085Y-49367053D01*
X208289793Y-49293000D01*
X207910207Y-49293000D01*
X207537915Y-49367053D01*
X207187223Y-49512315D01*
X206871609Y-49723201D01*
X206603201Y-49991609D01*
X206392315Y-50307223D01*
X206247053Y-50657915D01*
X206173000Y-51030207D01*
X206173000Y-51409793D01*
X206247053Y-51782085D01*
X206392315Y-52132777D01*
X206473000Y-52253531D01*
X206473001Y-54246473D01*
X206303696Y-54499855D01*
X206150896Y-54868746D01*
X206073000Y-55260358D01*
X206073000Y-55659642D01*
X206150896Y-56051254D01*
X206302459Y-56417158D01*
X206258400Y-56470843D01*
X206153750Y-56666629D01*
X206089307Y-56879069D01*
X206067547Y-57100000D01*
X206067547Y-58431528D01*
X202826075Y-61673000D01*
X201127925Y-61673000D01*
X202686878Y-60114047D01*
X202720931Y-60110693D01*
X202933371Y-60046250D01*
X203129157Y-59941600D01*
X203300765Y-59800765D01*
X203441600Y-59629157D01*
X203546250Y-59433371D01*
X203610693Y-59220931D01*
X203632453Y-59000000D01*
X203632453Y-57200000D01*
X203610693Y-56979069D01*
X203546250Y-56766629D01*
X203441600Y-56570843D01*
X203397541Y-56517158D01*
X203549104Y-56151254D01*
X203627000Y-55759642D01*
X203627000Y-55360358D01*
X203549104Y-54968746D01*
X203396304Y-54599855D01*
X203227000Y-54346474D01*
X203227000Y-52153531D01*
X203307685Y-52032777D01*
X203452947Y-51682085D01*
X203527000Y-51309793D01*
X203527000Y-50930207D01*
X203452947Y-50557915D01*
X203307685Y-50207223D01*
X203096799Y-49891609D01*
X202828391Y-49623201D01*
X202512777Y-49412315D01*
X202162085Y-49267053D01*
X201789793Y-49193000D01*
X201410207Y-49193000D01*
X201037915Y-49267053D01*
X200687223Y-49412315D01*
X200371609Y-49623201D01*
X200103201Y-49891609D01*
X199892315Y-50207223D01*
X199747053Y-50557915D01*
X199673000Y-50930207D01*
X199673000Y-51309793D01*
X199747053Y-51682085D01*
X199892315Y-52032777D01*
X199973000Y-52153531D01*
X199973001Y-54346473D01*
X199803696Y-54599855D01*
X199650896Y-54968746D01*
X199573000Y-55360358D01*
X199573000Y-55759642D01*
X199650896Y-56151254D01*
X199802459Y-56517158D01*
X199758400Y-56570843D01*
X199653750Y-56766629D01*
X199589307Y-56979069D01*
X199567547Y-57200000D01*
X199567547Y-58631528D01*
X199026075Y-59173000D01*
X188227925Y-59173000D01*
X188319645Y-59081280D01*
X188462085Y-59052947D01*
X188812777Y-58907685D01*
X188933531Y-58827000D01*
X190240086Y-58827000D01*
X190320000Y-58834871D01*
X190399914Y-58827000D01*
X190399925Y-58827000D01*
X190638948Y-58803458D01*
X190945638Y-58710425D01*
X191228286Y-58559346D01*
X191476029Y-58356029D01*
X191526980Y-58293945D01*
X195939645Y-53881280D01*
X196082085Y-53852947D01*
X196432777Y-53707685D01*
X196748391Y-53496799D01*
X197016799Y-53228391D01*
X197227685Y-52912777D01*
X197372947Y-52562085D01*
X197447000Y-52189793D01*
X197447000Y-51810207D01*
X197372947Y-51437915D01*
X197227685Y-51087223D01*
X197016799Y-50771609D01*
X196748391Y-50503201D01*
X196432777Y-50292315D01*
X196082085Y-50147053D01*
X195709793Y-50073000D01*
X195330207Y-50073000D01*
X194957915Y-50147053D01*
X194607223Y-50292315D01*
X194291609Y-50503201D01*
X194023201Y-50771609D01*
X193812315Y-51087223D01*
X193667053Y-51437915D01*
X193638720Y-51580355D01*
X189646075Y-55573000D01*
X188933531Y-55573000D01*
X188812777Y-55492315D01*
X188462085Y-55347053D01*
X188089793Y-55273000D01*
X187710207Y-55273000D01*
X187337915Y-55347053D01*
X186987223Y-55492315D01*
X186671609Y-55703201D01*
X186403201Y-55971609D01*
X186192315Y-56287223D01*
X186065657Y-56593000D01*
X184407925Y-56593000D01*
X185993945Y-55006980D01*
X186056029Y-54956029D01*
X186259346Y-54708286D01*
X186410425Y-54425638D01*
X186503458Y-54118948D01*
X186527000Y-53879925D01*
X186527000Y-53879915D01*
X186534871Y-53800001D01*
X186527000Y-53720086D01*
X186527000Y-53352190D01*
X186671609Y-53496799D01*
X186987223Y-53707685D01*
X187337915Y-53852947D01*
X187710207Y-53927000D01*
X188089793Y-53927000D01*
X188462085Y-53852947D01*
X188812777Y-53707685D01*
X189128391Y-53496799D01*
X189396799Y-53228391D01*
X189607685Y-52912777D01*
X189752947Y-52562085D01*
X189827000Y-52189793D01*
X189827000Y-51810207D01*
X189752947Y-51437915D01*
X189726605Y-51374320D01*
X191698473Y-49402453D01*
X192105000Y-49402453D01*
X192379580Y-49375409D01*
X192643609Y-49295317D01*
X192886939Y-49165254D01*
X193100220Y-48990220D01*
X193275254Y-48776939D01*
X193405317Y-48533609D01*
X193485409Y-48269580D01*
X193512453Y-47995000D01*
X193512453Y-47332453D01*
X193650000Y-47332453D01*
X193870931Y-47310693D01*
X194083371Y-47246250D01*
X194279157Y-47141600D01*
X194450765Y-47000765D01*
X194591600Y-46829157D01*
X194696250Y-46633371D01*
X194760693Y-46420931D01*
X194782453Y-46200000D01*
X194782453Y-45318472D01*
X195333947Y-44766978D01*
X195396029Y-44716029D01*
X195599346Y-44468286D01*
X195750425Y-44185638D01*
X195843458Y-43878948D01*
X195867000Y-43639925D01*
X195867000Y-43639915D01*
X195874871Y-43560001D01*
X195867000Y-43480086D01*
X195867000Y-39923529D01*
X195991995Y-39736461D01*
X196141025Y-39376670D01*
X196217000Y-38994718D01*
X196217000Y-38605282D01*
X196141025Y-38223330D01*
X195991995Y-37863539D01*
X195775636Y-37539736D01*
X195500264Y-37264364D01*
X195176461Y-37048005D01*
X194816670Y-36898975D01*
X194434718Y-36823000D01*
X194045282Y-36823000D01*
X193663330Y-36898975D01*
X193303539Y-37048005D01*
X192979736Y-37264364D01*
X192704364Y-37539736D01*
X192488005Y-37863539D01*
X192338975Y-38223330D01*
X192263000Y-38605282D01*
X192263000Y-38994718D01*
X192338975Y-39376670D01*
X192488005Y-39736461D01*
X192613001Y-39923530D01*
X192613000Y-42886075D01*
X192157820Y-43341255D01*
X192116629Y-43353750D01*
X191920843Y-43458400D01*
X191749235Y-43599235D01*
X191742329Y-43607650D01*
X191616939Y-43504746D01*
X191373609Y-43374683D01*
X191109580Y-43294591D01*
X190835000Y-43267547D01*
X190285000Y-43267547D01*
X190010420Y-43294591D01*
X189746391Y-43374683D01*
X189503061Y-43504746D01*
X189289780Y-43679780D01*
X189114746Y-43893061D01*
X189018566Y-44073000D01*
X186179914Y-44073000D01*
X186099999Y-44065129D01*
X186020085Y-44073000D01*
X186020075Y-44073000D01*
X185781052Y-44096542D01*
X185474362Y-44189575D01*
X185474360Y-44189576D01*
X185191714Y-44340654D01*
X185006052Y-44493022D01*
X185006049Y-44493025D01*
X184943971Y-44543971D01*
X184893025Y-44606049D01*
X184000687Y-45498387D01*
X183956029Y-45443971D01*
X183893952Y-45393026D01*
X179227925Y-40727000D01*
X179404718Y-40727000D01*
X179786670Y-40651025D01*
X180146461Y-40501995D01*
X180470264Y-40285636D01*
X180480000Y-40275900D01*
X180489736Y-40285636D01*
X180813539Y-40501995D01*
X181173330Y-40651025D01*
X181555282Y-40727000D01*
X181944718Y-40727000D01*
X182326670Y-40651025D01*
X182686461Y-40501995D01*
X183010264Y-40285636D01*
X183285636Y-40010264D01*
X183501995Y-39686461D01*
X183651025Y-39326670D01*
X183727000Y-38944718D01*
X183727000Y-38555282D01*
X183651025Y-38173330D01*
X183501995Y-37813539D01*
X183285636Y-37489736D01*
X183010264Y-37214364D01*
X182686461Y-36998005D01*
X182326670Y-36848975D01*
X181944718Y-36773000D01*
X181555282Y-36773000D01*
X181173330Y-36848975D01*
X180813539Y-36998005D01*
X180489736Y-37214364D01*
X180480000Y-37224100D01*
X180470264Y-37214364D01*
X180146461Y-36998005D01*
X179786670Y-36848975D01*
X179404718Y-36773000D01*
X179015282Y-36773000D01*
X178633330Y-36848975D01*
X178273539Y-36998005D01*
X177949736Y-37214364D01*
X177940000Y-37224100D01*
X177930264Y-37214364D01*
X177606461Y-36998005D01*
X177246670Y-36848975D01*
X176864718Y-36773000D01*
X176475282Y-36773000D01*
X176093330Y-36848975D01*
X175733539Y-36998005D01*
X175409736Y-37214364D01*
X175400000Y-37224100D01*
X175390264Y-37214364D01*
X175066461Y-36998005D01*
X174706670Y-36848975D01*
X174324718Y-36773000D01*
X173935282Y-36773000D01*
X173553330Y-36848975D01*
X173193539Y-36998005D01*
X172869736Y-37214364D01*
X172594364Y-37489736D01*
X172378005Y-37813539D01*
X172228975Y-38173330D01*
X172153000Y-38555282D01*
X171032453Y-38555282D01*
X171032453Y-37900000D01*
X171010693Y-37679069D01*
X170946250Y-37466629D01*
X170841600Y-37270843D01*
X170700765Y-37099235D01*
X170529157Y-36958400D01*
X170333371Y-36853750D01*
X170120931Y-36789307D01*
X169900000Y-36767547D01*
X168200000Y-36767547D01*
X167979069Y-36789307D01*
X167766629Y-36853750D01*
X167661088Y-36910163D01*
X166675925Y-35925000D01*
X166922454Y-35678471D01*
X184573001Y-35772358D01*
G37*
X184573001Y-35772358D02*
X184573000Y-37610085D01*
X184565129Y-37690000D01*
X184573000Y-37769914D01*
X184573000Y-37769924D01*
X184596542Y-38008947D01*
X184689575Y-38315637D01*
X184840654Y-38598285D01*
X185043971Y-38846029D01*
X185106054Y-38896979D01*
X186103025Y-39893951D01*
X186153971Y-39956029D01*
X186216049Y-40006975D01*
X186216052Y-40006978D01*
X186401714Y-40159346D01*
X186684362Y-40310425D01*
X186991052Y-40403458D01*
X187230075Y-40427000D01*
X187230085Y-40427000D01*
X187309999Y-40434871D01*
X187389914Y-40427000D01*
X187489732Y-40427000D01*
X187509235Y-40450765D01*
X187680843Y-40591600D01*
X187876629Y-40696250D01*
X188089069Y-40760693D01*
X188310000Y-40782453D01*
X190010000Y-40782453D01*
X190230931Y-40760693D01*
X190443371Y-40696250D01*
X190639157Y-40591600D01*
X190810765Y-40450765D01*
X190951600Y-40279157D01*
X191056250Y-40083371D01*
X191120693Y-39870931D01*
X191142453Y-39650000D01*
X191142453Y-37950000D01*
X191120693Y-37729069D01*
X191056250Y-37516629D01*
X190951600Y-37320843D01*
X190810765Y-37149235D01*
X190639157Y-37008400D01*
X190443371Y-36903750D01*
X190230931Y-36839307D01*
X190010000Y-36817547D01*
X188310000Y-36817547D01*
X188089069Y-36839307D01*
X187876629Y-36903750D01*
X187827000Y-36930277D01*
X187827000Y-35769565D01*
X197357199Y-35683124D01*
X199973001Y-38298926D01*
X199973000Y-42466469D01*
X199892315Y-42587223D01*
X199747053Y-42937915D01*
X199673000Y-43310207D01*
X199673000Y-43689793D01*
X199747053Y-44062085D01*
X199892315Y-44412777D01*
X200103201Y-44728391D01*
X200371609Y-44996799D01*
X200687223Y-45207685D01*
X201037915Y-45352947D01*
X201410207Y-45427000D01*
X201789793Y-45427000D01*
X202162085Y-45352947D01*
X202466147Y-45227000D01*
X207066469Y-45227000D01*
X207187223Y-45307685D01*
X207537915Y-45452947D01*
X207680355Y-45481280D01*
X213123000Y-50923926D01*
X213123001Y-58141148D01*
X212916629Y-58203750D01*
X212720843Y-58308400D01*
X212549235Y-58449235D01*
X212408400Y-58620843D01*
X212303750Y-58816629D01*
X212239307Y-59029069D01*
X212217547Y-59250000D01*
X212217547Y-61681527D01*
X204726075Y-69173000D01*
X199581033Y-69173000D01*
X199455884Y-69047851D01*
X199107512Y-68815077D01*
X198720423Y-68654739D01*
X198309491Y-68573000D01*
X197890509Y-68573000D01*
X197479577Y-68654739D01*
X197092488Y-68815077D01*
X196744116Y-69047851D01*
X196447851Y-69344116D01*
X196215077Y-69692488D01*
X196100000Y-69970308D01*
X195984923Y-69692488D01*
X195752149Y-69344116D01*
X195455884Y-69047851D01*
X195107512Y-68815077D01*
X194720423Y-68654739D01*
X194309491Y-68573000D01*
X193890509Y-68573000D01*
X193479577Y-68654739D01*
X193092488Y-68815077D01*
X192744116Y-69047851D01*
X192447851Y-69344116D01*
X192215077Y-69692488D01*
X192054739Y-70079577D01*
X192016265Y-70273000D01*
X191748190Y-70273000D01*
X191628391Y-70153201D01*
X191312777Y-69942315D01*
X190962085Y-69797053D01*
X190589793Y-69723000D01*
X190210207Y-69723000D01*
X189837915Y-69797053D01*
X189487223Y-69942315D01*
X189340966Y-70040041D01*
X189126978Y-69826053D01*
X189076029Y-69763971D01*
X188828286Y-69560654D01*
X188545638Y-69409575D01*
X188238948Y-69316542D01*
X187999925Y-69293000D01*
X187999914Y-69293000D01*
X187920000Y-69285129D01*
X187904315Y-69286674D01*
X187888630Y-69285129D01*
X187808716Y-69293000D01*
X185715877Y-69293000D01*
X185852947Y-68962085D01*
X185927000Y-68589793D01*
X185927000Y-68210207D01*
X185852947Y-67837915D01*
X185707685Y-67487223D01*
X185496799Y-67171609D01*
X185228391Y-66903201D01*
X184912777Y-66692315D01*
X184562085Y-66547053D01*
X184189793Y-66473000D01*
X183810207Y-66473000D01*
X183437915Y-66547053D01*
X183087223Y-66692315D01*
X182996401Y-66753000D01*
X180853531Y-66753000D01*
X180732777Y-66672315D01*
X180382085Y-66527053D01*
X180009793Y-66453000D01*
X179630207Y-66453000D01*
X179257915Y-66527053D01*
X178907223Y-66672315D01*
X178591609Y-66883201D01*
X178323201Y-67151609D01*
X178112315Y-67467223D01*
X177967053Y-67817915D01*
X177893000Y-68190207D01*
X177893000Y-68569793D01*
X177967053Y-68942085D01*
X178112315Y-69292777D01*
X178323201Y-69608391D01*
X178364810Y-69650000D01*
X178323201Y-69691609D01*
X178112315Y-70007223D01*
X177967053Y-70357915D01*
X177893000Y-70730207D01*
X177893000Y-71109793D01*
X177967053Y-71482085D01*
X178112315Y-71832777D01*
X178323201Y-72148391D01*
X178364810Y-72190000D01*
X178323201Y-72231609D01*
X178112315Y-72547223D01*
X177967053Y-72897915D01*
X177893000Y-73270207D01*
X177893000Y-73649793D01*
X177967053Y-74022085D01*
X178112315Y-74372777D01*
X178323201Y-74688391D01*
X178364810Y-74730000D01*
X178323201Y-74771609D01*
X178112315Y-75087223D01*
X177967053Y-75437915D01*
X177893000Y-75810207D01*
X177893000Y-76189793D01*
X177967053Y-76562085D01*
X178112315Y-76912777D01*
X178323201Y-77228391D01*
X178364810Y-77270000D01*
X178323201Y-77311609D01*
X178112315Y-77627223D01*
X177967053Y-77977915D01*
X177893000Y-78350207D01*
X177893000Y-78729793D01*
X177967053Y-79102085D01*
X178112315Y-79452777D01*
X178323201Y-79768391D01*
X178364810Y-79810000D01*
X178323201Y-79851609D01*
X178112315Y-80167223D01*
X177967053Y-80517915D01*
X177893000Y-80890207D01*
X177893000Y-81269793D01*
X177967053Y-81642085D01*
X178112315Y-81992777D01*
X178323201Y-82308391D01*
X178364810Y-82350000D01*
X178323201Y-82391609D01*
X178112315Y-82707223D01*
X177967053Y-83057915D01*
X177893000Y-83430207D01*
X177893000Y-83809793D01*
X177967053Y-84182085D01*
X178112315Y-84532777D01*
X178323201Y-84848391D01*
X178591609Y-85116799D01*
X178907223Y-85327685D01*
X179257915Y-85472947D01*
X179400355Y-85501280D01*
X182043020Y-88143945D01*
X182093971Y-88206029D01*
X182341714Y-88409346D01*
X182624362Y-88560425D01*
X182691911Y-88580916D01*
X182749235Y-88650765D01*
X182920843Y-88791600D01*
X183116629Y-88896250D01*
X183329069Y-88960693D01*
X183550000Y-88982453D01*
X185150000Y-88982453D01*
X185370931Y-88960693D01*
X185583371Y-88896250D01*
X185656328Y-88857253D01*
X186991471Y-90192396D01*
X187010654Y-90228286D01*
X187213971Y-90476029D01*
X187276053Y-90526978D01*
X189256052Y-92506978D01*
X189256058Y-92506983D01*
X189273002Y-92523927D01*
X189273002Y-93070147D01*
X189085636Y-92789736D01*
X188810264Y-92514364D01*
X188486461Y-92298005D01*
X188126670Y-92148975D01*
X187744718Y-92073000D01*
X187355282Y-92073000D01*
X186973330Y-92148975D01*
X186613539Y-92298005D01*
X186289736Y-92514364D01*
X186014364Y-92789736D01*
X185798005Y-93113539D01*
X185648975Y-93473330D01*
X185573000Y-93855282D01*
X185573000Y-94244718D01*
X185648975Y-94626670D01*
X185798005Y-94986461D01*
X186014364Y-95310264D01*
X186289736Y-95585636D01*
X186613539Y-95801995D01*
X186973330Y-95951025D01*
X187193992Y-95994917D01*
X187778867Y-96579793D01*
X187744718Y-96573000D01*
X187355282Y-96573000D01*
X186973330Y-96648975D01*
X186613539Y-96798005D01*
X186289736Y-97014364D01*
X186014364Y-97289736D01*
X185798005Y-97613539D01*
X185648975Y-97973330D01*
X185573000Y-98355282D01*
X185573000Y-98744718D01*
X185648975Y-99126670D01*
X185798005Y-99486461D01*
X186014364Y-99810264D01*
X186289736Y-100085636D01*
X186613539Y-100301995D01*
X186973330Y-100451025D01*
X187355282Y-100527000D01*
X187744718Y-100527000D01*
X188126670Y-100451025D01*
X188486461Y-100301995D01*
X188810264Y-100085636D01*
X189085636Y-99810264D01*
X189301995Y-99486461D01*
X189451025Y-99126670D01*
X189527000Y-98744718D01*
X189527000Y-98355282D01*
X189451025Y-97973330D01*
X189301995Y-97613539D01*
X189225928Y-97499697D01*
X189380000Y-97514872D01*
X189459925Y-97507000D01*
X190666469Y-97507000D01*
X190787223Y-97587685D01*
X191137915Y-97732947D01*
X191510207Y-97807000D01*
X191889793Y-97807000D01*
X192262085Y-97732947D01*
X192612777Y-97587685D01*
X192928391Y-97376799D01*
X193196799Y-97108391D01*
X193407685Y-96792777D01*
X193552947Y-96442085D01*
X193627000Y-96069793D01*
X193627000Y-95690207D01*
X193552947Y-95317915D01*
X193407685Y-94967223D01*
X193196799Y-94651609D01*
X192928391Y-94383201D01*
X192612777Y-94172315D01*
X192527001Y-94136785D01*
X192527001Y-91929918D01*
X192534872Y-91850001D01*
X192527001Y-91770084D01*
X192527001Y-91770076D01*
X192503459Y-91531053D01*
X192410426Y-91224363D01*
X192259347Y-90941715D01*
X192056030Y-90693972D01*
X191993946Y-90643021D01*
X191977925Y-90627000D01*
X192139793Y-90627000D01*
X192512085Y-90552947D01*
X192862777Y-90407685D01*
X193178391Y-90196799D01*
X193446799Y-89928391D01*
X193657685Y-89612777D01*
X193802947Y-89262085D01*
X193877000Y-88889793D01*
X193877000Y-88637925D01*
X199677773Y-94438698D01*
X199725897Y-94680637D01*
X199875953Y-95042903D01*
X200093800Y-95368934D01*
X200371066Y-95646200D01*
X200697097Y-95864047D01*
X201059363Y-96014103D01*
X201443943Y-96090600D01*
X201836057Y-96090600D01*
X202220637Y-96014103D01*
X202297901Y-95982099D01*
X202265897Y-96059363D01*
X202189400Y-96443943D01*
X202189400Y-96836057D01*
X202265897Y-97220637D01*
X202415953Y-97582903D01*
X202633800Y-97908934D01*
X202911066Y-98186200D01*
X203190632Y-98373000D01*
X197229914Y-98373000D01*
X197149999Y-98365129D01*
X197070085Y-98373000D01*
X197070075Y-98373000D01*
X196831052Y-98396542D01*
X196524362Y-98489575D01*
X196241714Y-98640654D01*
X195993971Y-98843971D01*
X195943022Y-98906053D01*
X192976075Y-101873000D01*
X192733531Y-101873000D01*
X192612777Y-101792315D01*
X192262085Y-101647053D01*
X191889793Y-101573000D01*
X191510207Y-101573000D01*
X191137915Y-101647053D01*
X190787223Y-101792315D01*
X190471609Y-102003201D01*
X190401810Y-102073000D01*
X161713085Y-102073000D01*
X161557008Y-101989575D01*
X161250318Y-101896542D01*
X161011295Y-101873000D01*
X161011284Y-101873000D01*
X160931370Y-101865129D01*
X160851456Y-101873000D01*
X160833531Y-101873000D01*
X160712777Y-101792315D01*
X160362085Y-101647053D01*
X159989793Y-101573000D01*
X159610207Y-101573000D01*
X159237915Y-101647053D01*
X158887223Y-101792315D01*
X158571609Y-102003201D01*
X158501810Y-102073000D01*
X133329924Y-102073000D01*
X133249999Y-102065128D01*
X133170074Y-102073000D01*
X132931051Y-102096542D01*
X132742552Y-102153722D01*
X132604574Y-102153649D01*
X129377000Y-98926075D01*
X129377000Y-93850000D01*
X133873000Y-93850000D01*
X133873000Y-100200000D01*
X133875504Y-100225095D01*
X133882792Y-100248901D01*
X133894584Y-100270827D01*
X133899786Y-100277133D01*
X133899786Y-100428250D01*
X153600215Y-100428250D01*
X153600215Y-100266470D01*
X153620557Y-100255597D01*
X153639803Y-100239803D01*
X153655597Y-100220557D01*
X153667333Y-100198601D01*
X153674560Y-100174776D01*
X153677000Y-100150000D01*
X153677000Y-98405282D01*
X162123000Y-98405282D01*
X162123000Y-98794718D01*
X162198975Y-99176670D01*
X162348005Y-99536461D01*
X162564364Y-99860264D01*
X162839736Y-100135636D01*
X163163539Y-100351995D01*
X163523330Y-100501025D01*
X163905282Y-100577000D01*
X164294718Y-100577000D01*
X164676670Y-100501025D01*
X165036461Y-100351995D01*
X165360264Y-100135636D01*
X165635636Y-99860264D01*
X165851995Y-99536461D01*
X166001025Y-99176670D01*
X166077000Y-98794718D01*
X166077000Y-98405282D01*
X168623000Y-98405282D01*
X168623000Y-98794718D01*
X168698975Y-99176670D01*
X168848005Y-99536461D01*
X169064364Y-99860264D01*
X169339736Y-100135636D01*
X169663539Y-100351995D01*
X170023330Y-100501025D01*
X170405282Y-100577000D01*
X170794718Y-100577000D01*
X171176670Y-100501025D01*
X171536461Y-100351995D01*
X171860264Y-100135636D01*
X172135636Y-99860264D01*
X172351995Y-99536461D01*
X172501025Y-99176670D01*
X172577000Y-98794718D01*
X172577000Y-98405282D01*
X172567055Y-98355282D01*
X179073000Y-98355282D01*
X179073000Y-98744718D01*
X179148975Y-99126670D01*
X179298005Y-99486461D01*
X179514364Y-99810264D01*
X179789736Y-100085636D01*
X180113539Y-100301995D01*
X180473330Y-100451025D01*
X180855282Y-100527000D01*
X181244718Y-100527000D01*
X181626670Y-100451025D01*
X181986461Y-100301995D01*
X182310264Y-100085636D01*
X182585636Y-99810264D01*
X182801995Y-99486461D01*
X182951025Y-99126670D01*
X183027000Y-98744718D01*
X183027000Y-98355282D01*
X182951025Y-97973330D01*
X182801995Y-97613539D01*
X182585636Y-97289736D01*
X182310264Y-97014364D01*
X181986461Y-96798005D01*
X181626670Y-96648975D01*
X181244718Y-96573000D01*
X180855282Y-96573000D01*
X180473330Y-96648975D01*
X180113539Y-96798005D01*
X179789736Y-97014364D01*
X179514364Y-97289736D01*
X179298005Y-97613539D01*
X179148975Y-97973330D01*
X179073000Y-98355282D01*
X172567055Y-98355282D01*
X172501025Y-98023330D01*
X172351995Y-97663539D01*
X172135636Y-97339736D01*
X171860264Y-97064364D01*
X171536461Y-96848005D01*
X171176670Y-96698975D01*
X170794718Y-96623000D01*
X170405282Y-96623000D01*
X170023330Y-96698975D01*
X169663539Y-96848005D01*
X169339736Y-97064364D01*
X169064364Y-97339736D01*
X168848005Y-97663539D01*
X168698975Y-98023330D01*
X168623000Y-98405282D01*
X166077000Y-98405282D01*
X166001025Y-98023330D01*
X165851995Y-97663539D01*
X165635636Y-97339736D01*
X165360264Y-97064364D01*
X165036461Y-96848005D01*
X164676670Y-96698975D01*
X164294718Y-96623000D01*
X163905282Y-96623000D01*
X163523330Y-96698975D01*
X163163539Y-96848005D01*
X162839736Y-97064364D01*
X162564364Y-97339736D01*
X162348005Y-97663539D01*
X162198975Y-98023330D01*
X162123000Y-98405282D01*
X153677000Y-98405282D01*
X153677000Y-93900000D01*
X153674623Y-93875542D01*
X153667457Y-93851699D01*
X153655777Y-93829713D01*
X153650215Y-93822900D01*
X153650215Y-93249250D01*
X137449786Y-93249250D01*
X137449786Y-93731822D01*
X134000325Y-93723000D01*
X133975224Y-93725440D01*
X133951399Y-93732667D01*
X133929443Y-93744403D01*
X133910197Y-93760197D01*
X133894403Y-93779443D01*
X133882667Y-93801399D01*
X133875440Y-93825224D01*
X133873000Y-93850000D01*
X129377000Y-93850000D01*
X129377000Y-89305282D01*
X144223000Y-89305282D01*
X144223000Y-89694718D01*
X144298975Y-90076670D01*
X144448005Y-90436461D01*
X144664364Y-90760264D01*
X144939736Y-91035636D01*
X145263539Y-91251995D01*
X145623330Y-91401025D01*
X146005282Y-91477000D01*
X146394718Y-91477000D01*
X146776670Y-91401025D01*
X147136461Y-91251995D01*
X147460264Y-91035636D01*
X147735636Y-90760264D01*
X147951995Y-90436461D01*
X148101025Y-90076670D01*
X148177000Y-89694718D01*
X148177000Y-89305282D01*
X148101025Y-88923330D01*
X147951995Y-88563539D01*
X147735636Y-88239736D01*
X147460264Y-87964364D01*
X147136461Y-87748005D01*
X146776670Y-87598975D01*
X146394718Y-87523000D01*
X146005282Y-87523000D01*
X145623330Y-87598975D01*
X145263539Y-87748005D01*
X144939736Y-87964364D01*
X144664364Y-88239736D01*
X144448005Y-88563539D01*
X144298975Y-88923330D01*
X144223000Y-89305282D01*
X129377000Y-89305282D01*
X129377000Y-86692772D01*
X154473000Y-86692772D01*
X154473000Y-87407228D01*
X154612383Y-88107957D01*
X154885794Y-88768029D01*
X155282725Y-89362078D01*
X155787922Y-89867275D01*
X156381971Y-90264206D01*
X157042043Y-90537617D01*
X157742772Y-90677000D01*
X158457228Y-90677000D01*
X159157957Y-90537617D01*
X159818029Y-90264206D01*
X160412078Y-89867275D01*
X160917275Y-89362078D01*
X161314206Y-88768029D01*
X161587617Y-88107957D01*
X161727000Y-87407228D01*
X161727000Y-86692772D01*
X161587617Y-85992043D01*
X161314206Y-85331971D01*
X160917275Y-84737922D01*
X160412078Y-84232725D01*
X159818029Y-83835794D01*
X159157957Y-83562383D01*
X158457228Y-83423000D01*
X157742772Y-83423000D01*
X157042043Y-83562383D01*
X156381971Y-83835794D01*
X155787922Y-84232725D01*
X155282725Y-84737922D01*
X154885794Y-85331971D01*
X154612383Y-85992043D01*
X154473000Y-86692772D01*
X129377000Y-86692772D01*
X129377000Y-75261225D01*
X129638846Y-75340655D01*
X129681052Y-75353458D01*
X130000000Y-75384872D01*
X130079925Y-75377000D01*
X133665963Y-75377000D01*
X133592315Y-75487223D01*
X133447053Y-75837915D01*
X133373000Y-76210207D01*
X133373000Y-76589793D01*
X133447053Y-76962085D01*
X133592315Y-77312777D01*
X133803201Y-77628391D01*
X134071609Y-77896799D01*
X134387223Y-78107685D01*
X134737915Y-78252947D01*
X135110207Y-78327000D01*
X135489793Y-78327000D01*
X135862085Y-78252947D01*
X136212777Y-78107685D01*
X136528391Y-77896799D01*
X136796799Y-77628391D01*
X137007685Y-77312777D01*
X137152947Y-76962085D01*
X137227000Y-76589793D01*
X137227000Y-76210207D01*
X137152947Y-75837915D01*
X137007685Y-75487223D01*
X136927000Y-75366469D01*
X136927000Y-74361957D01*
X140123000Y-74333164D01*
X140123000Y-74470086D01*
X140115129Y-74550000D01*
X140123000Y-74629914D01*
X140123000Y-74629924D01*
X140146542Y-74868947D01*
X140239575Y-75175637D01*
X140390654Y-75458285D01*
X140593971Y-75706029D01*
X140656055Y-75756980D01*
X142793020Y-77893945D01*
X142843971Y-77956029D01*
X143091714Y-78159346D01*
X143374362Y-78310425D01*
X143681049Y-78403457D01*
X143681052Y-78403458D01*
X144000000Y-78434872D01*
X144079925Y-78427000D01*
X144438287Y-78427000D01*
X144298975Y-78763330D01*
X144223000Y-79145282D01*
X144223000Y-79534718D01*
X144298975Y-79916670D01*
X144448005Y-80276461D01*
X144664364Y-80600264D01*
X144674100Y-80610000D01*
X144664364Y-80619736D01*
X144448005Y-80943539D01*
X144298975Y-81303330D01*
X144223000Y-81685282D01*
X144223000Y-82074718D01*
X144298975Y-82456670D01*
X144448005Y-82816461D01*
X144664364Y-83140264D01*
X144674100Y-83150000D01*
X144664364Y-83159736D01*
X144448005Y-83483539D01*
X144298975Y-83843330D01*
X144223000Y-84225282D01*
X144223000Y-84614718D01*
X144298975Y-84996670D01*
X144448005Y-85356461D01*
X144664364Y-85680264D01*
X144939736Y-85955636D01*
X145263539Y-86171995D01*
X145623330Y-86321025D01*
X146005282Y-86397000D01*
X146394718Y-86397000D01*
X146776670Y-86321025D01*
X147136461Y-86171995D01*
X147323529Y-86047000D01*
X151596740Y-86047000D01*
X151837223Y-86207685D01*
X152187915Y-86352947D01*
X152560207Y-86427000D01*
X152939793Y-86427000D01*
X153312085Y-86352947D01*
X153662777Y-86207685D01*
X153978391Y-85996799D01*
X154246799Y-85728391D01*
X154457685Y-85412777D01*
X154602947Y-85062085D01*
X154677000Y-84689793D01*
X154677000Y-84310207D01*
X154602947Y-83937915D01*
X154457685Y-83587223D01*
X154246799Y-83271609D01*
X153978391Y-83003201D01*
X153662777Y-82792315D01*
X153312085Y-82647053D01*
X152939793Y-82573000D01*
X152560207Y-82573000D01*
X152187915Y-82647053D01*
X151837223Y-82792315D01*
X151836198Y-82793000D01*
X151757298Y-82793000D01*
X151852947Y-82562085D01*
X151927000Y-82189793D01*
X151927000Y-81810207D01*
X151852947Y-81437915D01*
X151707685Y-81087223D01*
X151627355Y-80967000D01*
X154466075Y-80967000D01*
X155673020Y-82173945D01*
X155723971Y-82236029D01*
X155971714Y-82439346D01*
X156254362Y-82590425D01*
X156510110Y-82668005D01*
X156561052Y-82683458D01*
X156880000Y-82714872D01*
X156959925Y-82707000D01*
X170492464Y-82707000D01*
X170492315Y-82707223D01*
X170347053Y-83057915D01*
X170273000Y-83430207D01*
X170273000Y-83809793D01*
X170347053Y-84182085D01*
X170492315Y-84532777D01*
X170573000Y-84653531D01*
X170573000Y-84831294D01*
X170573001Y-84831303D01*
X170573000Y-88872075D01*
X170532453Y-88831528D01*
X170532453Y-88400000D01*
X170510693Y-88179069D01*
X170446250Y-87966629D01*
X170341600Y-87770843D01*
X170200765Y-87599235D01*
X170029157Y-87458400D01*
X169833371Y-87353750D01*
X169620931Y-87289307D01*
X169400000Y-87267547D01*
X167800000Y-87267547D01*
X167579069Y-87289307D01*
X167366629Y-87353750D01*
X167170843Y-87458400D01*
X166999235Y-87599235D01*
X166858400Y-87770843D01*
X166753750Y-87966629D01*
X166689307Y-88179069D01*
X166667547Y-88400000D01*
X166667547Y-89973000D01*
X162056165Y-89973000D01*
X161968947Y-89946543D01*
X161649999Y-89915129D01*
X161331052Y-89946543D01*
X161024361Y-90039576D01*
X160989985Y-90057950D01*
X160885732Y-90089575D01*
X160603084Y-90240654D01*
X160355341Y-90443971D01*
X160152024Y-90691714D01*
X160088482Y-90810592D01*
X158706050Y-92193025D01*
X158643972Y-92243971D01*
X158593026Y-92306049D01*
X158593022Y-92306053D01*
X158440654Y-92491715D01*
X158334319Y-92690654D01*
X158289576Y-92774362D01*
X158203846Y-93056979D01*
X158196543Y-93081053D01*
X158165129Y-93400000D01*
X158173001Y-93479924D01*
X158173000Y-94846468D01*
X158092315Y-94967223D01*
X157947053Y-95317915D01*
X157873000Y-95690207D01*
X157873000Y-96069793D01*
X157947053Y-96442085D01*
X158092315Y-96792777D01*
X158303201Y-97108391D01*
X158571609Y-97376799D01*
X158887223Y-97587685D01*
X159237915Y-97732947D01*
X159610207Y-97807000D01*
X159989793Y-97807000D01*
X160362085Y-97732947D01*
X160712777Y-97587685D01*
X161028391Y-97376799D01*
X161296799Y-97108391D01*
X161507685Y-96792777D01*
X161652947Y-96442085D01*
X161727000Y-96069793D01*
X161727000Y-95690207D01*
X161652947Y-95317915D01*
X161507685Y-94967223D01*
X161427000Y-94846469D01*
X161427000Y-94073925D01*
X162273926Y-93227000D01*
X167920086Y-93227000D01*
X168000000Y-93234871D01*
X168079914Y-93227000D01*
X168079925Y-93227000D01*
X168318948Y-93203458D01*
X168625638Y-93110425D01*
X168908286Y-92959346D01*
X168973000Y-92906236D01*
X168973000Y-92976471D01*
X168848005Y-93163539D01*
X168698975Y-93523330D01*
X168623000Y-93905282D01*
X168623000Y-94294718D01*
X168698975Y-94676670D01*
X168848005Y-95036461D01*
X169064364Y-95360264D01*
X169339736Y-95635636D01*
X169663539Y-95851995D01*
X170023330Y-96001025D01*
X170405282Y-96077000D01*
X170794718Y-96077000D01*
X171176670Y-96001025D01*
X171536461Y-95851995D01*
X171860264Y-95635636D01*
X172135636Y-95360264D01*
X172351995Y-95036461D01*
X172501025Y-94676670D01*
X172544917Y-94456008D01*
X173293952Y-93706974D01*
X173356029Y-93656029D01*
X173406975Y-93593951D01*
X173406978Y-93593948D01*
X173559346Y-93408286D01*
X173651221Y-93236400D01*
X173710425Y-93125638D01*
X173803458Y-92818948D01*
X173827000Y-92579925D01*
X173827000Y-92579924D01*
X173834872Y-92500000D01*
X173827000Y-92420075D01*
X173827000Y-84653531D01*
X173907685Y-84532777D01*
X174052947Y-84182085D01*
X174127000Y-83809793D01*
X174127000Y-83430207D01*
X174052947Y-83057915D01*
X173907685Y-82707223D01*
X173696799Y-82391609D01*
X173655190Y-82350000D01*
X173696799Y-82308391D01*
X173907685Y-81992777D01*
X174052947Y-81642085D01*
X174127000Y-81269793D01*
X174127000Y-80890207D01*
X174052947Y-80517915D01*
X173907685Y-80167223D01*
X173696799Y-79851609D01*
X173655190Y-79810000D01*
X173696799Y-79768391D01*
X173907685Y-79452777D01*
X174052947Y-79102085D01*
X174127000Y-78729793D01*
X174127000Y-78350207D01*
X174052947Y-77977915D01*
X173907685Y-77627223D01*
X173696799Y-77311609D01*
X173655190Y-77270000D01*
X173696799Y-77228391D01*
X173907685Y-76912777D01*
X174052947Y-76562085D01*
X174127000Y-76189793D01*
X174127000Y-75810207D01*
X174052947Y-75437915D01*
X173907685Y-75087223D01*
X173696799Y-74771609D01*
X173655190Y-74730000D01*
X173696799Y-74688391D01*
X173907685Y-74372777D01*
X174052947Y-74022085D01*
X174127000Y-73649793D01*
X174127000Y-73270207D01*
X174052947Y-72897915D01*
X173907685Y-72547223D01*
X173696799Y-72231609D01*
X173655190Y-72190000D01*
X173696799Y-72148391D01*
X173907685Y-71832777D01*
X174052947Y-71482085D01*
X174127000Y-71109793D01*
X174127000Y-70730207D01*
X174052947Y-70357915D01*
X173907685Y-70007223D01*
X173696799Y-69691609D01*
X173428391Y-69423201D01*
X173112777Y-69212315D01*
X172762085Y-69067053D01*
X172389793Y-68993000D01*
X172010207Y-68993000D01*
X171637915Y-69067053D01*
X171287223Y-69212315D01*
X171166469Y-69293000D01*
X167193925Y-69293000D01*
X166817642Y-68916717D01*
X166804868Y-68852499D01*
X166663376Y-68510907D01*
X166457961Y-68203482D01*
X166196518Y-67942039D01*
X165889093Y-67736624D01*
X165547501Y-67595132D01*
X165184868Y-67523000D01*
X164815132Y-67523000D01*
X164452499Y-67595132D01*
X164264509Y-67673000D01*
X160433531Y-67673000D01*
X160312777Y-67592315D01*
X159962085Y-67447053D01*
X159589793Y-67373000D01*
X159210207Y-67373000D01*
X158837915Y-67447053D01*
X158487223Y-67592315D01*
X158171609Y-67803201D01*
X157903201Y-68071609D01*
X157692315Y-68387223D01*
X157547053Y-68737915D01*
X157473000Y-69110207D01*
X157473000Y-69489793D01*
X157547053Y-69862085D01*
X157692315Y-70212777D01*
X157903201Y-70528391D01*
X158171609Y-70796799D01*
X158487223Y-71007685D01*
X158837915Y-71152947D01*
X159210207Y-71227000D01*
X159589793Y-71227000D01*
X159962085Y-71152947D01*
X160312777Y-71007685D01*
X160433531Y-70927000D01*
X163906806Y-70927000D01*
X164110907Y-71063376D01*
X164452499Y-71204868D01*
X164516717Y-71217642D01*
X165313020Y-72013945D01*
X165363971Y-72076029D01*
X165611714Y-72279346D01*
X165894362Y-72430425D01*
X166175705Y-72515769D01*
X166201052Y-72523458D01*
X166520000Y-72554872D01*
X166599925Y-72547000D01*
X168152075Y-72547000D01*
X168046075Y-72653000D01*
X165943533Y-72653000D01*
X165889093Y-72616624D01*
X165547501Y-72475132D01*
X165184868Y-72403000D01*
X164815132Y-72403000D01*
X164452499Y-72475132D01*
X164110907Y-72616624D01*
X164056467Y-72653000D01*
X160403599Y-72653000D01*
X160312777Y-72592315D01*
X159962085Y-72447053D01*
X159589793Y-72373000D01*
X159210207Y-72373000D01*
X158837915Y-72447053D01*
X158487223Y-72592315D01*
X158171609Y-72803201D01*
X157903201Y-73071609D01*
X157692315Y-73387223D01*
X157547053Y-73737915D01*
X157473000Y-74110207D01*
X157473000Y-74489793D01*
X157547053Y-74862085D01*
X157692315Y-75212777D01*
X157903201Y-75528391D01*
X158171609Y-75796799D01*
X158487223Y-76007685D01*
X158837915Y-76152947D01*
X159210207Y-76227000D01*
X159589793Y-76227000D01*
X159962085Y-76152947D01*
X160312777Y-76007685D01*
X160463463Y-75907000D01*
X164056467Y-75907000D01*
X164110907Y-75943376D01*
X164452499Y-76084868D01*
X164815132Y-76157000D01*
X165184868Y-76157000D01*
X165547501Y-76084868D01*
X165889093Y-75943376D01*
X165943533Y-75907000D01*
X168640086Y-75907000D01*
X168720000Y-75914871D01*
X168799914Y-75907000D01*
X168799925Y-75907000D01*
X169038948Y-75883458D01*
X169345638Y-75790425D01*
X169628286Y-75639346D01*
X169876029Y-75436029D01*
X169926980Y-75373945D01*
X170258301Y-75042624D01*
X170518109Y-75048620D01*
X170492315Y-75087223D01*
X170347053Y-75437915D01*
X170273000Y-75810207D01*
X170273000Y-76189793D01*
X170347053Y-76562085D01*
X170492315Y-76912777D01*
X170703201Y-77228391D01*
X170744810Y-77270000D01*
X170703201Y-77311609D01*
X170492315Y-77627223D01*
X170347053Y-77977915D01*
X170273000Y-78350207D01*
X170273000Y-78729793D01*
X170347053Y-79102085D01*
X170491421Y-79450618D01*
X170483568Y-79453000D01*
X157553925Y-79453000D01*
X156346980Y-78246055D01*
X156296029Y-78183971D01*
X156048286Y-77980654D01*
X155765638Y-77829575D01*
X155458948Y-77736542D01*
X155219925Y-77713000D01*
X155219914Y-77713000D01*
X155140000Y-77705129D01*
X155060086Y-77713000D01*
X154287925Y-77713000D01*
X156718951Y-75281975D01*
X156781029Y-75231029D01*
X156831975Y-75168951D01*
X156831978Y-75168948D01*
X156984346Y-74983286D01*
X157045461Y-74868948D01*
X157135425Y-74700638D01*
X157228458Y-74393948D01*
X157252000Y-74154925D01*
X157252000Y-74154915D01*
X157259871Y-74075000D01*
X157252000Y-73995086D01*
X157252000Y-65823925D01*
X157348925Y-65727000D01*
X166101075Y-65727000D01*
X167268025Y-66893951D01*
X167318971Y-66956029D01*
X167381049Y-67006975D01*
X167381052Y-67006978D01*
X167462161Y-67073542D01*
X167566714Y-67159346D01*
X167849362Y-67310425D01*
X168156052Y-67403458D01*
X168395075Y-67427000D01*
X168395085Y-67427000D01*
X168474999Y-67434871D01*
X168554914Y-67427000D01*
X170695427Y-67427000D01*
X170749682Y-67443458D01*
X170988705Y-67467000D01*
X171068630Y-67474872D01*
X171148555Y-67467000D01*
X171166469Y-67467000D01*
X171287223Y-67547685D01*
X171637915Y-67692947D01*
X172010207Y-67767000D01*
X172389793Y-67767000D01*
X172762085Y-67692947D01*
X173112777Y-67547685D01*
X173428391Y-67336799D01*
X173696799Y-67068391D01*
X173907685Y-66752777D01*
X174052947Y-66402085D01*
X174127000Y-66029793D01*
X174127000Y-65650207D01*
X174052947Y-65277915D01*
X173907685Y-64927223D01*
X173696799Y-64611609D01*
X173655190Y-64570000D01*
X173696799Y-64528391D01*
X173907685Y-64212777D01*
X174052947Y-63862085D01*
X174127000Y-63489793D01*
X174127000Y-63110207D01*
X174052947Y-62737915D01*
X173907685Y-62387223D01*
X173696799Y-62071609D01*
X173655190Y-62030000D01*
X173696799Y-61988391D01*
X173907685Y-61672777D01*
X174052947Y-61322085D01*
X174127000Y-60949793D01*
X174127000Y-60570207D01*
X174052947Y-60197915D01*
X173907685Y-59847223D01*
X173696799Y-59531609D01*
X173655190Y-59490000D01*
X173696799Y-59448391D01*
X173907685Y-59132777D01*
X174052947Y-58782085D01*
X174127000Y-58409793D01*
X174127000Y-58030207D01*
X174052947Y-57657915D01*
X173907685Y-57307223D01*
X173696799Y-56991609D01*
X173655190Y-56950000D01*
X173696799Y-56908391D01*
X173907685Y-56592777D01*
X174052947Y-56242085D01*
X174127000Y-55869793D01*
X174127000Y-55490207D01*
X174052947Y-55117915D01*
X173907685Y-54767223D01*
X173696799Y-54451609D01*
X173655190Y-54410000D01*
X173696799Y-54368391D01*
X173907685Y-54052777D01*
X174052947Y-53702085D01*
X174127000Y-53329793D01*
X174127000Y-52950207D01*
X174052947Y-52577915D01*
X173907685Y-52227223D01*
X173849956Y-52140825D01*
X173941600Y-52029157D01*
X174046250Y-51833371D01*
X174110693Y-51620931D01*
X174132453Y-51400000D01*
X174132453Y-49800000D01*
X174110693Y-49579069D01*
X174046250Y-49366629D01*
X173941600Y-49170843D01*
X173800765Y-48999235D01*
X173629157Y-48858400D01*
X173433371Y-48753750D01*
X173220931Y-48689307D01*
X173000000Y-48667547D01*
X171400000Y-48667547D01*
X171179069Y-48689307D01*
X170966629Y-48753750D01*
X170770843Y-48858400D01*
X170631202Y-48973000D01*
X169798359Y-48973000D01*
X169536461Y-48798005D01*
X169367952Y-48728207D01*
X169353459Y-48581053D01*
X169260426Y-48274363D01*
X169260425Y-48274361D01*
X169109347Y-47991714D01*
X168989083Y-47845173D01*
X168906030Y-47743972D01*
X168843946Y-47693021D01*
X167406978Y-46256053D01*
X167356029Y-46193971D01*
X167108286Y-45990654D01*
X166825638Y-45839575D01*
X166518948Y-45746542D01*
X166279925Y-45723000D01*
X166279914Y-45723000D01*
X166200000Y-45715129D01*
X166120086Y-45723000D01*
X165154685Y-45723000D01*
X165360264Y-45585636D01*
X165635636Y-45310264D01*
X165851995Y-44986461D01*
X166001025Y-44626670D01*
X166077000Y-44244718D01*
X166077000Y-43855282D01*
X166001025Y-43473330D01*
X165851995Y-43113539D01*
X165827580Y-43077000D01*
X168066469Y-43077000D01*
X168187223Y-43157685D01*
X168537915Y-43302947D01*
X168910207Y-43377000D01*
X169289793Y-43377000D01*
X169662085Y-43302947D01*
X170012777Y-43157685D01*
X170328391Y-42946799D01*
X170596799Y-42678391D01*
X170807685Y-42362777D01*
X170952947Y-42012085D01*
X171027000Y-41639793D01*
X171027000Y-41260207D01*
X170952947Y-40887915D01*
X170807685Y-40537223D01*
X170709442Y-40390192D01*
X170841600Y-40229157D01*
X170946250Y-40033371D01*
X171010693Y-39820931D01*
X171032453Y-39600000D01*
X171032453Y-38555282D01*
X172153000Y-38555282D01*
X172153000Y-38944718D01*
X172228975Y-39326670D01*
X172378005Y-39686461D01*
X172453000Y-39798699D01*
X172453000Y-40400086D01*
X172445129Y-40480000D01*
X172453000Y-40559914D01*
X172453000Y-40559925D01*
X172476542Y-40798948D01*
X172560889Y-41077000D01*
X172569576Y-41105638D01*
X172720654Y-41388285D01*
X172873022Y-41573947D01*
X172873026Y-41573951D01*
X172923972Y-41636029D01*
X172986050Y-41686975D01*
X178173000Y-46873925D01*
X178173001Y-49368706D01*
X178165129Y-49448630D01*
X178173001Y-49528555D01*
X178178825Y-49587684D01*
X178112315Y-49687223D01*
X177967053Y-50037915D01*
X177893000Y-50410207D01*
X177893000Y-50789793D01*
X177967053Y-51162085D01*
X178112315Y-51512777D01*
X178323201Y-51828391D01*
X178364810Y-51870000D01*
X178323201Y-51911609D01*
X178112315Y-52227223D01*
X177967053Y-52577915D01*
X177893000Y-52950207D01*
X177893000Y-53329793D01*
X177967053Y-53702085D01*
X178112315Y-54052777D01*
X178323201Y-54368391D01*
X178364810Y-54410000D01*
X178323201Y-54451609D01*
X178112315Y-54767223D01*
X177967053Y-55117915D01*
X177893000Y-55490207D01*
X177893000Y-55869793D01*
X177967053Y-56242085D01*
X178112315Y-56592777D01*
X178323201Y-56908391D01*
X178364810Y-56950000D01*
X178323201Y-56991609D01*
X178112315Y-57307223D01*
X177967053Y-57657915D01*
X177893000Y-58030207D01*
X177893000Y-58409793D01*
X177967053Y-58782085D01*
X178112315Y-59132777D01*
X178323201Y-59448391D01*
X178364810Y-59490000D01*
X178323201Y-59531609D01*
X178112315Y-59847223D01*
X177967053Y-60197915D01*
X177893000Y-60570207D01*
X177893000Y-60949793D01*
X177967053Y-61322085D01*
X178112315Y-61672777D01*
X178323201Y-61988391D01*
X178364810Y-62030000D01*
X178323201Y-62071609D01*
X178112315Y-62387223D01*
X177967053Y-62737915D01*
X177893000Y-63110207D01*
X177893000Y-63489793D01*
X177967053Y-63862085D01*
X178112315Y-64212777D01*
X178323201Y-64528391D01*
X178591609Y-64796799D01*
X178907223Y-65007685D01*
X179257915Y-65152947D01*
X179630207Y-65227000D01*
X180009793Y-65227000D01*
X180382085Y-65152947D01*
X180732777Y-65007685D01*
X180853531Y-64927000D01*
X203420086Y-64927000D01*
X203500000Y-64934871D01*
X203579914Y-64927000D01*
X203579925Y-64927000D01*
X203818948Y-64903458D01*
X204125638Y-64810425D01*
X204408286Y-64659346D01*
X204656029Y-64456029D01*
X204706980Y-64393945D01*
X209075953Y-60024972D01*
X209220931Y-60010693D01*
X209433371Y-59946250D01*
X209629157Y-59841600D01*
X209800765Y-59700765D01*
X209941600Y-59529157D01*
X210046250Y-59333371D01*
X210110693Y-59120931D01*
X210132453Y-58900000D01*
X210132453Y-57100000D01*
X210110693Y-56879069D01*
X210046250Y-56666629D01*
X209941600Y-56470843D01*
X209897541Y-56417158D01*
X210049104Y-56051254D01*
X210127000Y-55659642D01*
X210127000Y-55260358D01*
X210049104Y-54868746D01*
X209896304Y-54499855D01*
X209727000Y-54246474D01*
X209727000Y-52253531D01*
X209807685Y-52132777D01*
X209952947Y-51782085D01*
X210027000Y-51409793D01*
X210027000Y-51030207D01*
X209952947Y-50657915D01*
X209807685Y-50307223D01*
X209596799Y-49991609D01*
X209328391Y-49723201D01*
X209012777Y-49512315D01*
X208662085Y-49367053D01*
X208289793Y-49293000D01*
X207910207Y-49293000D01*
X207537915Y-49367053D01*
X207187223Y-49512315D01*
X206871609Y-49723201D01*
X206603201Y-49991609D01*
X206392315Y-50307223D01*
X206247053Y-50657915D01*
X206173000Y-51030207D01*
X206173000Y-51409793D01*
X206247053Y-51782085D01*
X206392315Y-52132777D01*
X206473000Y-52253531D01*
X206473001Y-54246473D01*
X206303696Y-54499855D01*
X206150896Y-54868746D01*
X206073000Y-55260358D01*
X206073000Y-55659642D01*
X206150896Y-56051254D01*
X206302459Y-56417158D01*
X206258400Y-56470843D01*
X206153750Y-56666629D01*
X206089307Y-56879069D01*
X206067547Y-57100000D01*
X206067547Y-58431528D01*
X202826075Y-61673000D01*
X201127925Y-61673000D01*
X202686878Y-60114047D01*
X202720931Y-60110693D01*
X202933371Y-60046250D01*
X203129157Y-59941600D01*
X203300765Y-59800765D01*
X203441600Y-59629157D01*
X203546250Y-59433371D01*
X203610693Y-59220931D01*
X203632453Y-59000000D01*
X203632453Y-57200000D01*
X203610693Y-56979069D01*
X203546250Y-56766629D01*
X203441600Y-56570843D01*
X203397541Y-56517158D01*
X203549104Y-56151254D01*
X203627000Y-55759642D01*
X203627000Y-55360358D01*
X203549104Y-54968746D01*
X203396304Y-54599855D01*
X203227000Y-54346474D01*
X203227000Y-52153531D01*
X203307685Y-52032777D01*
X203452947Y-51682085D01*
X203527000Y-51309793D01*
X203527000Y-50930207D01*
X203452947Y-50557915D01*
X203307685Y-50207223D01*
X203096799Y-49891609D01*
X202828391Y-49623201D01*
X202512777Y-49412315D01*
X202162085Y-49267053D01*
X201789793Y-49193000D01*
X201410207Y-49193000D01*
X201037915Y-49267053D01*
X200687223Y-49412315D01*
X200371609Y-49623201D01*
X200103201Y-49891609D01*
X199892315Y-50207223D01*
X199747053Y-50557915D01*
X199673000Y-50930207D01*
X199673000Y-51309793D01*
X199747053Y-51682085D01*
X199892315Y-52032777D01*
X199973000Y-52153531D01*
X199973001Y-54346473D01*
X199803696Y-54599855D01*
X199650896Y-54968746D01*
X199573000Y-55360358D01*
X199573000Y-55759642D01*
X199650896Y-56151254D01*
X199802459Y-56517158D01*
X199758400Y-56570843D01*
X199653750Y-56766629D01*
X199589307Y-56979069D01*
X199567547Y-57200000D01*
X199567547Y-58631528D01*
X199026075Y-59173000D01*
X188227925Y-59173000D01*
X188319645Y-59081280D01*
X188462085Y-59052947D01*
X188812777Y-58907685D01*
X188933531Y-58827000D01*
X190240086Y-58827000D01*
X190320000Y-58834871D01*
X190399914Y-58827000D01*
X190399925Y-58827000D01*
X190638948Y-58803458D01*
X190945638Y-58710425D01*
X191228286Y-58559346D01*
X191476029Y-58356029D01*
X191526980Y-58293945D01*
X195939645Y-53881280D01*
X196082085Y-53852947D01*
X196432777Y-53707685D01*
X196748391Y-53496799D01*
X197016799Y-53228391D01*
X197227685Y-52912777D01*
X197372947Y-52562085D01*
X197447000Y-52189793D01*
X197447000Y-51810207D01*
X197372947Y-51437915D01*
X197227685Y-51087223D01*
X197016799Y-50771609D01*
X196748391Y-50503201D01*
X196432777Y-50292315D01*
X196082085Y-50147053D01*
X195709793Y-50073000D01*
X195330207Y-50073000D01*
X194957915Y-50147053D01*
X194607223Y-50292315D01*
X194291609Y-50503201D01*
X194023201Y-50771609D01*
X193812315Y-51087223D01*
X193667053Y-51437915D01*
X193638720Y-51580355D01*
X189646075Y-55573000D01*
X188933531Y-55573000D01*
X188812777Y-55492315D01*
X188462085Y-55347053D01*
X188089793Y-55273000D01*
X187710207Y-55273000D01*
X187337915Y-55347053D01*
X186987223Y-55492315D01*
X186671609Y-55703201D01*
X186403201Y-55971609D01*
X186192315Y-56287223D01*
X186065657Y-56593000D01*
X184407925Y-56593000D01*
X185993945Y-55006980D01*
X186056029Y-54956029D01*
X186259346Y-54708286D01*
X186410425Y-54425638D01*
X186503458Y-54118948D01*
X186527000Y-53879925D01*
X186527000Y-53879915D01*
X186534871Y-53800001D01*
X186527000Y-53720086D01*
X186527000Y-53352190D01*
X186671609Y-53496799D01*
X186987223Y-53707685D01*
X187337915Y-53852947D01*
X187710207Y-53927000D01*
X188089793Y-53927000D01*
X188462085Y-53852947D01*
X188812777Y-53707685D01*
X189128391Y-53496799D01*
X189396799Y-53228391D01*
X189607685Y-52912777D01*
X189752947Y-52562085D01*
X189827000Y-52189793D01*
X189827000Y-51810207D01*
X189752947Y-51437915D01*
X189726605Y-51374320D01*
X191698473Y-49402453D01*
X192105000Y-49402453D01*
X192379580Y-49375409D01*
X192643609Y-49295317D01*
X192886939Y-49165254D01*
X193100220Y-48990220D01*
X193275254Y-48776939D01*
X193405317Y-48533609D01*
X193485409Y-48269580D01*
X193512453Y-47995000D01*
X193512453Y-47332453D01*
X193650000Y-47332453D01*
X193870931Y-47310693D01*
X194083371Y-47246250D01*
X194279157Y-47141600D01*
X194450765Y-47000765D01*
X194591600Y-46829157D01*
X194696250Y-46633371D01*
X194760693Y-46420931D01*
X194782453Y-46200000D01*
X194782453Y-45318472D01*
X195333947Y-44766978D01*
X195396029Y-44716029D01*
X195599346Y-44468286D01*
X195750425Y-44185638D01*
X195843458Y-43878948D01*
X195867000Y-43639925D01*
X195867000Y-43639915D01*
X195874871Y-43560001D01*
X195867000Y-43480086D01*
X195867000Y-39923529D01*
X195991995Y-39736461D01*
X196141025Y-39376670D01*
X196217000Y-38994718D01*
X196217000Y-38605282D01*
X196141025Y-38223330D01*
X195991995Y-37863539D01*
X195775636Y-37539736D01*
X195500264Y-37264364D01*
X195176461Y-37048005D01*
X194816670Y-36898975D01*
X194434718Y-36823000D01*
X194045282Y-36823000D01*
X193663330Y-36898975D01*
X193303539Y-37048005D01*
X192979736Y-37264364D01*
X192704364Y-37539736D01*
X192488005Y-37863539D01*
X192338975Y-38223330D01*
X192263000Y-38605282D01*
X192263000Y-38994718D01*
X192338975Y-39376670D01*
X192488005Y-39736461D01*
X192613001Y-39923530D01*
X192613000Y-42886075D01*
X192157820Y-43341255D01*
X192116629Y-43353750D01*
X191920843Y-43458400D01*
X191749235Y-43599235D01*
X191742329Y-43607650D01*
X191616939Y-43504746D01*
X191373609Y-43374683D01*
X191109580Y-43294591D01*
X190835000Y-43267547D01*
X190285000Y-43267547D01*
X190010420Y-43294591D01*
X189746391Y-43374683D01*
X189503061Y-43504746D01*
X189289780Y-43679780D01*
X189114746Y-43893061D01*
X189018566Y-44073000D01*
X186179914Y-44073000D01*
X186099999Y-44065129D01*
X186020085Y-44073000D01*
X186020075Y-44073000D01*
X185781052Y-44096542D01*
X185474362Y-44189575D01*
X185474360Y-44189576D01*
X185191714Y-44340654D01*
X185006052Y-44493022D01*
X185006049Y-44493025D01*
X184943971Y-44543971D01*
X184893025Y-44606049D01*
X184000687Y-45498387D01*
X183956029Y-45443971D01*
X183893952Y-45393026D01*
X179227925Y-40727000D01*
X179404718Y-40727000D01*
X179786670Y-40651025D01*
X180146461Y-40501995D01*
X180470264Y-40285636D01*
X180480000Y-40275900D01*
X180489736Y-40285636D01*
X180813539Y-40501995D01*
X181173330Y-40651025D01*
X181555282Y-40727000D01*
X181944718Y-40727000D01*
X182326670Y-40651025D01*
X182686461Y-40501995D01*
X183010264Y-40285636D01*
X183285636Y-40010264D01*
X183501995Y-39686461D01*
X183651025Y-39326670D01*
X183727000Y-38944718D01*
X183727000Y-38555282D01*
X183651025Y-38173330D01*
X183501995Y-37813539D01*
X183285636Y-37489736D01*
X183010264Y-37214364D01*
X182686461Y-36998005D01*
X182326670Y-36848975D01*
X181944718Y-36773000D01*
X181555282Y-36773000D01*
X181173330Y-36848975D01*
X180813539Y-36998005D01*
X180489736Y-37214364D01*
X180480000Y-37224100D01*
X180470264Y-37214364D01*
X180146461Y-36998005D01*
X179786670Y-36848975D01*
X179404718Y-36773000D01*
X179015282Y-36773000D01*
X178633330Y-36848975D01*
X178273539Y-36998005D01*
X177949736Y-37214364D01*
X177940000Y-37224100D01*
X177930264Y-37214364D01*
X177606461Y-36998005D01*
X177246670Y-36848975D01*
X176864718Y-36773000D01*
X176475282Y-36773000D01*
X176093330Y-36848975D01*
X175733539Y-36998005D01*
X175409736Y-37214364D01*
X175400000Y-37224100D01*
X175390264Y-37214364D01*
X175066461Y-36998005D01*
X174706670Y-36848975D01*
X174324718Y-36773000D01*
X173935282Y-36773000D01*
X173553330Y-36848975D01*
X173193539Y-36998005D01*
X172869736Y-37214364D01*
X172594364Y-37489736D01*
X172378005Y-37813539D01*
X172228975Y-38173330D01*
X172153000Y-38555282D01*
X171032453Y-38555282D01*
X171032453Y-37900000D01*
X171010693Y-37679069D01*
X170946250Y-37466629D01*
X170841600Y-37270843D01*
X170700765Y-37099235D01*
X170529157Y-36958400D01*
X170333371Y-36853750D01*
X170120931Y-36789307D01*
X169900000Y-36767547D01*
X168200000Y-36767547D01*
X167979069Y-36789307D01*
X167766629Y-36853750D01*
X167661088Y-36910163D01*
X166675925Y-35925000D01*
X166922454Y-35678471D01*
X184573001Y-35772358D01*
G36*
X216823000Y-66815973D02*
G01*
X215296729Y-68342244D01*
X214998888Y-68283000D01*
X214501112Y-68283000D01*
X214012901Y-68380111D01*
X213553017Y-68570602D01*
X213139131Y-68847151D01*
X212787151Y-69199131D01*
X212510602Y-69613017D01*
X212320111Y-70072901D01*
X212223000Y-70561112D01*
X212223000Y-71058888D01*
X212320111Y-71547099D01*
X212510602Y-72006983D01*
X212787151Y-72420869D01*
X213042678Y-72676396D01*
X211300355Y-74418720D01*
X211157915Y-74447053D01*
X210807223Y-74592315D01*
X210491609Y-74803201D01*
X210223201Y-75071609D01*
X210012315Y-75387223D01*
X209867053Y-75737915D01*
X209793000Y-76110207D01*
X209793000Y-76489793D01*
X209867053Y-76862085D01*
X210012315Y-77212777D01*
X210093000Y-77333531D01*
X210093001Y-79106074D01*
X210080355Y-79118720D01*
X209937915Y-79147053D01*
X209587223Y-79292315D01*
X209271609Y-79503201D01*
X209003201Y-79771609D01*
X208792315Y-80087223D01*
X208647053Y-80437915D01*
X208573000Y-80810207D01*
X208573000Y-81189793D01*
X208647053Y-81562085D01*
X208792315Y-81912777D01*
X208873000Y-82033531D01*
X208873001Y-84126073D01*
X205626054Y-87373021D01*
X205563971Y-87423971D01*
X205360654Y-87671715D01*
X205209575Y-87954363D01*
X205116542Y-88261053D01*
X205093000Y-88500076D01*
X205093000Y-88500086D01*
X205085129Y-88580000D01*
X205093000Y-88659915D01*
X205093001Y-91490761D01*
X186149239Y-72547000D01*
X187246075Y-72547000D01*
X187593020Y-72893945D01*
X187643971Y-72956029D01*
X187891714Y-73159346D01*
X188174362Y-73310425D01*
X188481052Y-73403458D01*
X188720075Y-73427000D01*
X188720083Y-73427000D01*
X188800000Y-73434871D01*
X188879917Y-73427000D01*
X189654564Y-73427000D01*
X189837915Y-73502947D01*
X190210207Y-73577000D01*
X190589793Y-73577000D01*
X190841162Y-73527000D01*
X192820086Y-73527000D01*
X192900000Y-73534871D01*
X192979914Y-73527000D01*
X192979925Y-73527000D01*
X193218948Y-73503458D01*
X193525638Y-73410425D01*
X193808286Y-73259346D01*
X194056029Y-73056029D01*
X194106979Y-72993946D01*
X194273925Y-72827000D01*
X194309491Y-72827000D01*
X194720423Y-72745261D01*
X195107512Y-72584923D01*
X195455884Y-72352149D01*
X195752149Y-72055884D01*
X195984923Y-71707512D01*
X196100000Y-71429692D01*
X196215077Y-71707512D01*
X196447851Y-72055884D01*
X196473000Y-72081033D01*
X196473000Y-72194137D01*
X196473001Y-72194146D01*
X196472999Y-75756785D01*
X196387223Y-75792315D01*
X196071609Y-76003201D01*
X195803201Y-76271609D01*
X195592315Y-76587223D01*
X195447053Y-76937915D01*
X195373000Y-77310207D01*
X195373000Y-77689793D01*
X195447053Y-78062085D01*
X195592315Y-78412777D01*
X195803201Y-78728391D01*
X196071609Y-78996799D01*
X196387223Y-79207685D01*
X196737915Y-79352947D01*
X197110207Y-79427000D01*
X197489793Y-79427000D01*
X197862085Y-79352947D01*
X198212777Y-79207685D01*
X198528391Y-78996799D01*
X198796799Y-78728391D01*
X199007685Y-78412777D01*
X199152947Y-78062085D01*
X199181280Y-77919644D01*
X199193944Y-77906980D01*
X199256027Y-77856030D01*
X199354088Y-77736542D01*
X199459345Y-77608287D01*
X199610423Y-77325641D01*
X199703456Y-77018949D01*
X199734870Y-76700002D01*
X199726998Y-76620078D01*
X199727000Y-72427000D01*
X202326075Y-72427000D01*
X202473001Y-72573926D01*
X202473000Y-75266469D01*
X202392315Y-75387223D01*
X202247053Y-75737915D01*
X202173000Y-76110207D01*
X202173000Y-76489793D01*
X202247053Y-76862085D01*
X202392315Y-77212777D01*
X202603201Y-77528391D01*
X202871609Y-77796799D01*
X203187223Y-78007685D01*
X203537915Y-78152947D01*
X203910207Y-78227000D01*
X204289793Y-78227000D01*
X204662085Y-78152947D01*
X205012777Y-78007685D01*
X205328391Y-77796799D01*
X205596799Y-77528391D01*
X205807685Y-77212777D01*
X205952947Y-76862085D01*
X206027000Y-76489793D01*
X206027000Y-76110207D01*
X205952947Y-75737915D01*
X205807685Y-75387223D01*
X205727000Y-75266469D01*
X205727000Y-72573925D01*
X205975199Y-72325725D01*
X206025638Y-72310425D01*
X206308286Y-72159346D01*
X206556029Y-71956029D01*
X206606979Y-71893946D01*
X215318473Y-63182453D01*
X216150000Y-63182453D01*
X216370931Y-63160693D01*
X216583371Y-63096250D01*
X216779157Y-62991600D01*
X216823000Y-62955619D01*
X216823000Y-66815973D01*
G37*
X216823000Y-66815973D02*
X215296729Y-68342244D01*
X214998888Y-68283000D01*
X214501112Y-68283000D01*
X214012901Y-68380111D01*
X213553017Y-68570602D01*
X213139131Y-68847151D01*
X212787151Y-69199131D01*
X212510602Y-69613017D01*
X212320111Y-70072901D01*
X212223000Y-70561112D01*
X212223000Y-71058888D01*
X212320111Y-71547099D01*
X212510602Y-72006983D01*
X212787151Y-72420869D01*
X213042678Y-72676396D01*
X211300355Y-74418720D01*
X211157915Y-74447053D01*
X210807223Y-74592315D01*
X210491609Y-74803201D01*
X210223201Y-75071609D01*
X210012315Y-75387223D01*
X209867053Y-75737915D01*
X209793000Y-76110207D01*
X209793000Y-76489793D01*
X209867053Y-76862085D01*
X210012315Y-77212777D01*
X210093000Y-77333531D01*
X210093001Y-79106074D01*
X210080355Y-79118720D01*
X209937915Y-79147053D01*
X209587223Y-79292315D01*
X209271609Y-79503201D01*
X209003201Y-79771609D01*
X208792315Y-80087223D01*
X208647053Y-80437915D01*
X208573000Y-80810207D01*
X208573000Y-81189793D01*
X208647053Y-81562085D01*
X208792315Y-81912777D01*
X208873000Y-82033531D01*
X208873001Y-84126073D01*
X205626054Y-87373021D01*
X205563971Y-87423971D01*
X205360654Y-87671715D01*
X205209575Y-87954363D01*
X205116542Y-88261053D01*
X205093000Y-88500076D01*
X205093000Y-88500086D01*
X205085129Y-88580000D01*
X205093000Y-88659915D01*
X205093001Y-91490761D01*
X186149239Y-72547000D01*
X187246075Y-72547000D01*
X187593020Y-72893945D01*
X187643971Y-72956029D01*
X187891714Y-73159346D01*
X188174362Y-73310425D01*
X188481052Y-73403458D01*
X188720075Y-73427000D01*
X188720083Y-73427000D01*
X188800000Y-73434871D01*
X188879917Y-73427000D01*
X189654564Y-73427000D01*
X189837915Y-73502947D01*
X190210207Y-73577000D01*
X190589793Y-73577000D01*
X190841162Y-73527000D01*
X192820086Y-73527000D01*
X192900000Y-73534871D01*
X192979914Y-73527000D01*
X192979925Y-73527000D01*
X193218948Y-73503458D01*
X193525638Y-73410425D01*
X193808286Y-73259346D01*
X194056029Y-73056029D01*
X194106979Y-72993946D01*
X194273925Y-72827000D01*
X194309491Y-72827000D01*
X194720423Y-72745261D01*
X195107512Y-72584923D01*
X195455884Y-72352149D01*
X195752149Y-72055884D01*
X195984923Y-71707512D01*
X196100000Y-71429692D01*
X196215077Y-71707512D01*
X196447851Y-72055884D01*
X196473000Y-72081033D01*
X196473000Y-72194137D01*
X196473001Y-72194146D01*
X196472999Y-75756785D01*
X196387223Y-75792315D01*
X196071609Y-76003201D01*
X195803201Y-76271609D01*
X195592315Y-76587223D01*
X195447053Y-76937915D01*
X195373000Y-77310207D01*
X195373000Y-77689793D01*
X195447053Y-78062085D01*
X195592315Y-78412777D01*
X195803201Y-78728391D01*
X196071609Y-78996799D01*
X196387223Y-79207685D01*
X196737915Y-79352947D01*
X197110207Y-79427000D01*
X197489793Y-79427000D01*
X197862085Y-79352947D01*
X198212777Y-79207685D01*
X198528391Y-78996799D01*
X198796799Y-78728391D01*
X199007685Y-78412777D01*
X199152947Y-78062085D01*
X199181280Y-77919644D01*
X199193944Y-77906980D01*
X199256027Y-77856030D01*
X199354088Y-77736542D01*
X199459345Y-77608287D01*
X199610423Y-77325641D01*
X199703456Y-77018949D01*
X199734870Y-76700002D01*
X199726998Y-76620078D01*
X199727000Y-72427000D01*
X202326075Y-72427000D01*
X202473001Y-72573926D01*
X202473000Y-75266469D01*
X202392315Y-75387223D01*
X202247053Y-75737915D01*
X202173000Y-76110207D01*
X202173000Y-76489793D01*
X202247053Y-76862085D01*
X202392315Y-77212777D01*
X202603201Y-77528391D01*
X202871609Y-77796799D01*
X203187223Y-78007685D01*
X203537915Y-78152947D01*
X203910207Y-78227000D01*
X204289793Y-78227000D01*
X204662085Y-78152947D01*
X205012777Y-78007685D01*
X205328391Y-77796799D01*
X205596799Y-77528391D01*
X205807685Y-77212777D01*
X205952947Y-76862085D01*
X206027000Y-76489793D01*
X206027000Y-76110207D01*
X205952947Y-75737915D01*
X205807685Y-75387223D01*
X205727000Y-75266469D01*
X205727000Y-72573925D01*
X205975199Y-72325725D01*
X206025638Y-72310425D01*
X206308286Y-72159346D01*
X206556029Y-71956029D01*
X206606979Y-71893946D01*
X215318473Y-63182453D01*
X216150000Y-63182453D01*
X216370931Y-63160693D01*
X216583371Y-63096250D01*
X216779157Y-62991600D01*
X216823000Y-62955619D01*
X216823000Y-66815973D01*
G36*
X170492315Y-57307223D02*
G01*
X170347053Y-57657915D01*
X170273000Y-58030207D01*
X170273000Y-58409793D01*
X170347053Y-58782085D01*
X170492315Y-59132777D01*
X170492464Y-59133000D01*
X169658925Y-59133000D01*
X169456980Y-58931055D01*
X169406029Y-58868971D01*
X169158286Y-58665654D01*
X168875638Y-58514575D01*
X168568948Y-58421542D01*
X168329925Y-58398000D01*
X168329914Y-58398000D01*
X168250000Y-58390129D01*
X168170086Y-58398000D01*
X153808531Y-58398000D01*
X153687777Y-58317315D01*
X153337085Y-58172053D01*
X152964793Y-58098000D01*
X152585207Y-58098000D01*
X152212915Y-58172053D01*
X151862223Y-58317315D01*
X151546609Y-58528201D01*
X151278201Y-58796609D01*
X151067315Y-59112223D01*
X150922053Y-59462915D01*
X150848000Y-59835207D01*
X150848000Y-60214793D01*
X150922053Y-60587085D01*
X151067315Y-60937777D01*
X151278201Y-61253391D01*
X151546609Y-61521799D01*
X151862223Y-61732685D01*
X152212915Y-61877947D01*
X152585207Y-61952000D01*
X152964793Y-61952000D01*
X153337085Y-61877947D01*
X153523232Y-61800842D01*
X148906050Y-66418025D01*
X148843972Y-66468971D01*
X148793026Y-66531049D01*
X148793022Y-66531053D01*
X148640654Y-66716715D01*
X148545922Y-66893947D01*
X148489576Y-66999362D01*
X148396543Y-67306052D01*
X148378699Y-67487223D01*
X148365129Y-67625000D01*
X148373001Y-67704924D01*
X148373000Y-69216468D01*
X148292315Y-69337223D01*
X148147053Y-69687915D01*
X148073000Y-70060207D01*
X148073000Y-70439793D01*
X148147053Y-70812085D01*
X148292315Y-71162777D01*
X148503201Y-71478391D01*
X148771609Y-71746799D01*
X149087223Y-71957685D01*
X149437915Y-72102947D01*
X149810207Y-72177000D01*
X150189793Y-72177000D01*
X150562085Y-72102947D01*
X150912777Y-71957685D01*
X151228391Y-71746799D01*
X151496799Y-71478391D01*
X151707685Y-71162777D01*
X151852947Y-70812085D01*
X151927000Y-70439793D01*
X151927000Y-70060207D01*
X151852947Y-69687915D01*
X151707685Y-69337223D01*
X151627000Y-69216469D01*
X151627000Y-68298925D01*
X153998000Y-65927925D01*
X153998001Y-73401073D01*
X152226075Y-75173000D01*
X147870268Y-75173000D01*
X147850765Y-75149235D01*
X147679157Y-75008400D01*
X147483371Y-74903750D01*
X147270931Y-74839307D01*
X147050000Y-74817547D01*
X145350000Y-74817547D01*
X145129069Y-74839307D01*
X144916629Y-74903750D01*
X144720843Y-75008400D01*
X144604668Y-75103743D01*
X143557253Y-74056328D01*
X143596250Y-73983371D01*
X143660693Y-73770931D01*
X143682453Y-73550000D01*
X143682453Y-71950000D01*
X143660693Y-71729069D01*
X143596250Y-71516629D01*
X143491600Y-71320843D01*
X143350765Y-71149235D01*
X143179157Y-71008400D01*
X142983371Y-70903750D01*
X142770931Y-70839307D01*
X142550000Y-70817547D01*
X140950000Y-70817547D01*
X140729069Y-70839307D01*
X140516629Y-70903750D01*
X140320843Y-71008400D01*
X140236016Y-71078016D01*
X136801685Y-71108956D01*
X136679157Y-71008400D01*
X136483371Y-70903750D01*
X136270931Y-70839307D01*
X136050000Y-70817547D01*
X134450000Y-70817547D01*
X134229069Y-70839307D01*
X134016629Y-70903750D01*
X133820843Y-71008400D01*
X133649235Y-71149235D01*
X133508400Y-71320843D01*
X133403750Y-71516629D01*
X133339307Y-71729069D01*
X133317547Y-71950000D01*
X133317547Y-72123000D01*
X130673925Y-72123000D01*
X129377000Y-70826075D01*
X129377000Y-68078519D01*
X129493945Y-67961574D01*
X129556029Y-67910623D01*
X129759346Y-67662880D01*
X129837145Y-67517329D01*
X129874376Y-67532750D01*
X130222519Y-67602000D01*
X130577481Y-67602000D01*
X130925624Y-67532750D01*
X131253567Y-67396912D01*
X131400000Y-67299069D01*
X131546433Y-67396912D01*
X131874376Y-67532750D01*
X132222519Y-67602000D01*
X132577481Y-67602000D01*
X132925624Y-67532750D01*
X133253567Y-67396912D01*
X133400000Y-67299069D01*
X133546433Y-67396912D01*
X133874376Y-67532750D01*
X134222519Y-67602000D01*
X134577481Y-67602000D01*
X134925624Y-67532750D01*
X135253567Y-67396912D01*
X135400000Y-67299069D01*
X135546433Y-67396912D01*
X135874376Y-67532750D01*
X136222519Y-67602000D01*
X136577481Y-67602000D01*
X136925624Y-67532750D01*
X137253567Y-67396912D01*
X137400000Y-67299069D01*
X137546433Y-67396912D01*
X137874376Y-67532750D01*
X138222519Y-67602000D01*
X138577481Y-67602000D01*
X138925624Y-67532750D01*
X139253567Y-67396912D01*
X139400000Y-67299069D01*
X139546433Y-67396912D01*
X139874376Y-67532750D01*
X140222519Y-67602000D01*
X140577481Y-67602000D01*
X140925624Y-67532750D01*
X141253567Y-67396912D01*
X141400000Y-67299069D01*
X141546433Y-67396912D01*
X141874376Y-67532750D01*
X142222519Y-67602000D01*
X142577481Y-67602000D01*
X142925624Y-67532750D01*
X143253567Y-67396912D01*
X143400000Y-67299069D01*
X143546433Y-67396912D01*
X143874376Y-67532750D01*
X144222519Y-67602000D01*
X144577481Y-67602000D01*
X144925624Y-67532750D01*
X145253567Y-67396912D01*
X145548708Y-67199705D01*
X145799705Y-66948708D01*
X145996912Y-66653567D01*
X146132750Y-66325624D01*
X146202000Y-65977481D01*
X146202000Y-65622519D01*
X146132750Y-65274376D01*
X146027000Y-65019072D01*
X146027000Y-64580928D01*
X146132750Y-64325624D01*
X146202000Y-63977481D01*
X146202000Y-63622519D01*
X146132750Y-63274376D01*
X145996912Y-62946433D01*
X145799705Y-62651292D01*
X145548708Y-62400295D01*
X145253567Y-62203088D01*
X144925624Y-62067250D01*
X144577481Y-61998000D01*
X144222519Y-61998000D01*
X143874376Y-62067250D01*
X143546433Y-62203088D01*
X143400000Y-62300931D01*
X143253567Y-62203088D01*
X142925624Y-62067250D01*
X142577481Y-61998000D01*
X142222519Y-61998000D01*
X141874376Y-62067250D01*
X141546433Y-62203088D01*
X141400000Y-62300931D01*
X141253567Y-62203088D01*
X140925624Y-62067250D01*
X140577481Y-61998000D01*
X140222519Y-61998000D01*
X139874376Y-62067250D01*
X139546433Y-62203088D01*
X139400000Y-62300931D01*
X139253567Y-62203088D01*
X138925624Y-62067250D01*
X138577481Y-61998000D01*
X138222519Y-61998000D01*
X137874376Y-62067250D01*
X137546433Y-62203088D01*
X137400000Y-62300931D01*
X137253567Y-62203088D01*
X136925624Y-62067250D01*
X136577481Y-61998000D01*
X136222519Y-61998000D01*
X135874376Y-62067250D01*
X135546433Y-62203088D01*
X135400000Y-62300931D01*
X135253567Y-62203088D01*
X134925624Y-62067250D01*
X134848930Y-62051995D01*
X139593925Y-57307000D01*
X170492464Y-57307000D01*
X170492315Y-57307223D01*
G37*
X170492315Y-57307223D02*
X170347053Y-57657915D01*
X170273000Y-58030207D01*
X170273000Y-58409793D01*
X170347053Y-58782085D01*
X170492315Y-59132777D01*
X170492464Y-59133000D01*
X169658925Y-59133000D01*
X169456980Y-58931055D01*
X169406029Y-58868971D01*
X169158286Y-58665654D01*
X168875638Y-58514575D01*
X168568948Y-58421542D01*
X168329925Y-58398000D01*
X168329914Y-58398000D01*
X168250000Y-58390129D01*
X168170086Y-58398000D01*
X153808531Y-58398000D01*
X153687777Y-58317315D01*
X153337085Y-58172053D01*
X152964793Y-58098000D01*
X152585207Y-58098000D01*
X152212915Y-58172053D01*
X151862223Y-58317315D01*
X151546609Y-58528201D01*
X151278201Y-58796609D01*
X151067315Y-59112223D01*
X150922053Y-59462915D01*
X150848000Y-59835207D01*
X150848000Y-60214793D01*
X150922053Y-60587085D01*
X151067315Y-60937777D01*
X151278201Y-61253391D01*
X151546609Y-61521799D01*
X151862223Y-61732685D01*
X152212915Y-61877947D01*
X152585207Y-61952000D01*
X152964793Y-61952000D01*
X153337085Y-61877947D01*
X153523232Y-61800842D01*
X148906050Y-66418025D01*
X148843972Y-66468971D01*
X148793026Y-66531049D01*
X148793022Y-66531053D01*
X148640654Y-66716715D01*
X148545922Y-66893947D01*
X148489576Y-66999362D01*
X148396543Y-67306052D01*
X148378699Y-67487223D01*
X148365129Y-67625000D01*
X148373001Y-67704924D01*
X148373000Y-69216468D01*
X148292315Y-69337223D01*
X148147053Y-69687915D01*
X148073000Y-70060207D01*
X148073000Y-70439793D01*
X148147053Y-70812085D01*
X148292315Y-71162777D01*
X148503201Y-71478391D01*
X148771609Y-71746799D01*
X149087223Y-71957685D01*
X149437915Y-72102947D01*
X149810207Y-72177000D01*
X150189793Y-72177000D01*
X150562085Y-72102947D01*
X150912777Y-71957685D01*
X151228391Y-71746799D01*
X151496799Y-71478391D01*
X151707685Y-71162777D01*
X151852947Y-70812085D01*
X151927000Y-70439793D01*
X151927000Y-70060207D01*
X151852947Y-69687915D01*
X151707685Y-69337223D01*
X151627000Y-69216469D01*
X151627000Y-68298925D01*
X153998000Y-65927925D01*
X153998001Y-73401073D01*
X152226075Y-75173000D01*
X147870268Y-75173000D01*
X147850765Y-75149235D01*
X147679157Y-75008400D01*
X147483371Y-74903750D01*
X147270931Y-74839307D01*
X147050000Y-74817547D01*
X145350000Y-74817547D01*
X145129069Y-74839307D01*
X144916629Y-74903750D01*
X144720843Y-75008400D01*
X144604668Y-75103743D01*
X143557253Y-74056328D01*
X143596250Y-73983371D01*
X143660693Y-73770931D01*
X143682453Y-73550000D01*
X143682453Y-71950000D01*
X143660693Y-71729069D01*
X143596250Y-71516629D01*
X143491600Y-71320843D01*
X143350765Y-71149235D01*
X143179157Y-71008400D01*
X142983371Y-70903750D01*
X142770931Y-70839307D01*
X142550000Y-70817547D01*
X140950000Y-70817547D01*
X140729069Y-70839307D01*
X140516629Y-70903750D01*
X140320843Y-71008400D01*
X140236016Y-71078016D01*
X136801685Y-71108956D01*
X136679157Y-71008400D01*
X136483371Y-70903750D01*
X136270931Y-70839307D01*
X136050000Y-70817547D01*
X134450000Y-70817547D01*
X134229069Y-70839307D01*
X134016629Y-70903750D01*
X133820843Y-71008400D01*
X133649235Y-71149235D01*
X133508400Y-71320843D01*
X133403750Y-71516629D01*
X133339307Y-71729069D01*
X133317547Y-71950000D01*
X133317547Y-72123000D01*
X130673925Y-72123000D01*
X129377000Y-70826075D01*
X129377000Y-68078519D01*
X129493945Y-67961574D01*
X129556029Y-67910623D01*
X129759346Y-67662880D01*
X129837145Y-67517329D01*
X129874376Y-67532750D01*
X130222519Y-67602000D01*
X130577481Y-67602000D01*
X130925624Y-67532750D01*
X131253567Y-67396912D01*
X131400000Y-67299069D01*
X131546433Y-67396912D01*
X131874376Y-67532750D01*
X132222519Y-67602000D01*
X132577481Y-67602000D01*
X132925624Y-67532750D01*
X133253567Y-67396912D01*
X133400000Y-67299069D01*
X133546433Y-67396912D01*
X133874376Y-67532750D01*
X134222519Y-67602000D01*
X134577481Y-67602000D01*
X134925624Y-67532750D01*
X135253567Y-67396912D01*
X135400000Y-67299069D01*
X135546433Y-67396912D01*
X135874376Y-67532750D01*
X136222519Y-67602000D01*
X136577481Y-67602000D01*
X136925624Y-67532750D01*
X137253567Y-67396912D01*
X137400000Y-67299069D01*
X137546433Y-67396912D01*
X137874376Y-67532750D01*
X138222519Y-67602000D01*
X138577481Y-67602000D01*
X138925624Y-67532750D01*
X139253567Y-67396912D01*
X139400000Y-67299069D01*
X139546433Y-67396912D01*
X139874376Y-67532750D01*
X140222519Y-67602000D01*
X140577481Y-67602000D01*
X140925624Y-67532750D01*
X141253567Y-67396912D01*
X141400000Y-67299069D01*
X141546433Y-67396912D01*
X141874376Y-67532750D01*
X142222519Y-67602000D01*
X142577481Y-67602000D01*
X142925624Y-67532750D01*
X143253567Y-67396912D01*
X143400000Y-67299069D01*
X143546433Y-67396912D01*
X143874376Y-67532750D01*
X144222519Y-67602000D01*
X144577481Y-67602000D01*
X144925624Y-67532750D01*
X145253567Y-67396912D01*
X145548708Y-67199705D01*
X145799705Y-66948708D01*
X145996912Y-66653567D01*
X146132750Y-66325624D01*
X146202000Y-65977481D01*
X146202000Y-65622519D01*
X146132750Y-65274376D01*
X146027000Y-65019072D01*
X146027000Y-64580928D01*
X146132750Y-64325624D01*
X146202000Y-63977481D01*
X146202000Y-63622519D01*
X146132750Y-63274376D01*
X145996912Y-62946433D01*
X145799705Y-62651292D01*
X145548708Y-62400295D01*
X145253567Y-62203088D01*
X144925624Y-62067250D01*
X144577481Y-61998000D01*
X144222519Y-61998000D01*
X143874376Y-62067250D01*
X143546433Y-62203088D01*
X143400000Y-62300931D01*
X143253567Y-62203088D01*
X142925624Y-62067250D01*
X142577481Y-61998000D01*
X142222519Y-61998000D01*
X141874376Y-62067250D01*
X141546433Y-62203088D01*
X141400000Y-62300931D01*
X141253567Y-62203088D01*
X140925624Y-62067250D01*
X140577481Y-61998000D01*
X140222519Y-61998000D01*
X139874376Y-62067250D01*
X139546433Y-62203088D01*
X139400000Y-62300931D01*
X139253567Y-62203088D01*
X138925624Y-62067250D01*
X138577481Y-61998000D01*
X138222519Y-61998000D01*
X137874376Y-62067250D01*
X137546433Y-62203088D01*
X137400000Y-62300931D01*
X137253567Y-62203088D01*
X136925624Y-62067250D01*
X136577481Y-61998000D01*
X136222519Y-61998000D01*
X135874376Y-62067250D01*
X135546433Y-62203088D01*
X135400000Y-62300931D01*
X135253567Y-62203088D01*
X134925624Y-62067250D01*
X134848930Y-62051995D01*
X139593925Y-57307000D01*
X170492464Y-57307000D01*
X170492315Y-57307223D01*
M02*
